<?xml version="1.0" encoding="UTF-8" standalone="no"?>
<!-- Created with Inkscape (http://www.inkscape.org/) -->

<svg
   xmlns:dc="http://purl.org/dc/elements/1.1/"
   xmlns:cc="http://creativecommons.org/ns#"
   xmlns:rdf="http://www.w3.org/1999/02/22-rdf-syntax-ns#"
   xmlns:svg="http://www.w3.org/2000/svg"
   xmlns="http://www.w3.org/2000/svg"
   xmlns:sodipodi="http://sodipodi.sourceforge.net/DTD/sodipodi-0.dtd"
   xmlns:inkscape="http://www.inkscape.org/namespaces/inkscape"
   width="94.895912mm"
   height="68.233963mm"
   viewBox="0 0 336.24536 241.77388"
   id="svg3868"
   version="1.1"
   inkscape:version="0.91 r13725"
   sodipodi:docname="200.svg">
  <defs
     id="defs3870" />
  <sodipodi:namedview
     id="base"
     pagecolor="#ffffff"
     bordercolor="#666666"
     borderopacity="1.0"
     inkscape:pageopacity="0.0"
     inkscape:pageshadow="2"
     inkscape:zoom="0.35"
     inkscape:cx="1011.6941"
     inkscape:cy="-381.9702"
     inkscape:document-units="px"
     inkscape:current-layer="layer1"
     showgrid="false"
     inkscape:window-width="1600"
     inkscape:window-height="851"
     inkscape:window-x="0"
     inkscape:window-y="25"
     inkscape:window-maximized="1"
     fit-margin-top="0"
     fit-margin-left="0"
     fit-margin-right="0"
     fit-margin-bottom="0" />
  <metadata
     id="metadata3873">
    <rdf:RDF>
      <cc:Work
         rdf:about="">
        <dc:format>image/svg+xml</dc:format>
        <dc:type
           rdf:resource="http://purl.org/dc/dcmitype/StillImage" />
        <dc:title />
      </cc:Work>
    </rdf:RDF>
  </metadata>
  <g
     inkscape:label="Layer 1"
     inkscape:groupmode="layer"
     id="layer1"
     transform="translate(630.97983,91.381881)">
    <path
       style="fill:#000000"
       d="m -557.70484,150.21367 c -0.73767,-0.29766 -0.34403,-1.76145 1.75369,-6.52125 2.22822,-5.05591 16.05714,-36.57756 17.97437,-40.97078 1.18577,-2.71711 2.20203,-3.806801 3.24235,-3.476621 0.6754,0.21437 1.03356,1.120791 1.57749,3.992331 0.37294,1.96885 0.61965,2.17195 1.71035,1.40799 0.52889,-0.37045 0.66675,-0.75984 0.66675,-1.88325 0,-0.82974 0.2047,-1.70848 0.49429,-2.12194 l 0.49429,-0.705701 21.48071,0.133651 21.48071,0.13364 1.275,0.84517 c 0.91515,0.60663 1.275,1.0498 1.275,1.5702 0,1.24977 -0.81519,2.42072 -1.94478,2.79352 -2.63138,0.86843 0.41263,1.68485 3.185,0.85423 0.9422,-0.28229 1.48347,-0.25689 2.8848,0.13538 4.31052,1.20664 6.25125,1.49948 7.40789,1.11775 0.61,-0.20132 1.18956,-0.57571 1.2879,-0.83198 0.1783,-0.46465 -1.05926,-1.79733 -2.59147,-2.79067 -0.58298,-0.37795 -0.74282,-0.77843 -0.83813,-2.1 -0.0648,-0.89815 0.003,-1.811501 0.15162,-2.029691 0.43673,-0.64309 2.37105,-0.93842 6.20717,-0.94768 1.98,-0.005 8.9325,-0.20093 15.45,-0.43589 6.5175,-0.23497 14.99381,-0.51698 18.83623,-0.62671 l 6.98623,-0.1995 1.33877,1.33876 c 0.73633,0.73633 1.33877,1.597401 1.33877,1.913491 0,0.3161 -0.73829,1.30385 -1.64065,2.195 -2.35041,2.32121 -1.78784,2.72702 3.07565,2.21869 l 1.82301,-0.19054 -0.62744,-0.84866 -0.62743,-0.84866 1.18765,-1.7358 c 1.1319,-1.654321 1.25739,-1.742921 2.67343,-1.887561 1.00719,-0.10287 1.92063,-0.45635 2.83578,-1.09739 1.60352,-1.12323 0.57827,-1.0539 25.95,-1.75468 24.3339,-0.6721 33.248,-0.98709 33.78632,-1.19387 0.94549,-0.36319 1.91467,1.35477 1.19188,2.1127 -0.14946,0.15675 -3.19196,6.560071 -6.76109,14.229591 -3.56911,7.66953 -6.69534,14.25905 -6.94716,14.64338 -0.61518,0.93888 -1.73815,0.79477 -1.8543,-0.23797 -0.0536,-0.47632 2.16189,-5.55839 6.07129,-13.92701 3.38561,-7.24736 6.24074,-13.445111 6.34474,-13.772791 0.18549,-0.58445 0.0871,-0.59178 -5.1713,-0.38494 -5.61868,0.22101 -29.95078,0.93705 -42.26038,1.24363 -3.96,0.0986 -7.48989,0.23732 -7.84421,0.30821 -0.35431,0.0709 -1.21083,0.602281 -1.90338,1.180891 -0.963,0.80456 -1.53227,1.05201 -2.42024,1.05201 -0.83692,0 -1.24691,0.16042 -1.46858,0.5746 -0.26104,0.48776 -0.0812,0.76406 1.18945,1.82794 1.62197,1.35799 1.77707,1.75305 0.97196,2.47568 -0.42477,0.38125 -1.52728,0.49035 -5.775,0.57149 l -5.25,0.10029 -1.425,-1.18853 c -0.78375,-0.65369 -1.425,-1.43185 -1.425,-1.72925 0,-0.2974 0.81001,-1.30122 1.80002,-2.23071 2.80768,-2.636041 2.81113,-2.634941 -7.49978,-2.39016 -4.70263,0.11164 -11.79024,0.32775 -15.75024,0.48024 -3.96,0.15249 -10.14322,0.36694 -13.7405,0.47657 -7.45863,0.22729 -7.55512,0.27459 -4.78143,2.34359 l 1.57193,1.17256 0,1.70128 c 0,2.14018 -0.48267,2.70222 -2.96643,3.45425 -1.74338,0.52785 -1.95293,0.53276 -3.42036,0.0802 -2.08177,-0.64198 -4.96797,-1.2137 -5.98821,-1.18619 -5.13036,0.13834 -5.51329,0.1119 -6.85669,-0.47343 -1.37896,-0.60078 -1.76831,-1.08503 -1.76831,-2.19928 0,-0.70658 1.30232,-1.97756 2.55,-2.48865 2.26121,-0.92626 0.0517,-1.04437 -20.3376,-1.08721 -10.98788,-0.0231 -20.12071,0.0462 -20.29518,0.15408 -0.17447,0.10783 -0.31722,0.72595 -0.31722,1.37361 0,1.57185 -1.16535,2.84797 -3.04496,3.3344 -1.87085,0.48416 -2.71519,-0.0477 -3.25389,-2.04956 -0.50814,-1.8883 -0.7582,-2.12878 -1.1392,-1.09554 -0.17192,0.46625 -1.68547,3.95273 -3.36344,7.74773 -1.67797,3.795 -4.91025,11.1525 -7.18285,16.35 -2.2726,5.1975 -4.40524,10.0575 -4.73919,10.8 -0.33395,0.7425 -1.51618,3.4425 -2.62718,6 -1.7916,4.12426 -2.56734,5.45603 -3.13163,5.37631 -0.0922,-0.013 -0.33641,-0.0918 -0.54266,-0.17499 z m -20.13589,-7.52825 c -0.18535,-0.34633 -0.15304,-0.88611 0.0943,-1.575 0.45147,-1.25748 12.43785,-28.77142 15.63242,-35.88319 1.32744,-2.95515 2.50819,-2.68041 -10.96581,-2.55156 -6.5175,0.0623 -11.95125,0.17154 -12.075,0.2427 -0.12375,0.0712 -0.22551,0.49267 -0.22613,0.93669 -0.002,1.10221 -1.03385,2.7094 -1.96854,3.06477 -1.16844,0.44424 -3.02772,0.35227 -3.55587,-0.17588 -0.25762,-0.25762 -0.67855,-1.19131 -0.93541,-2.07487 -0.25686,-0.88356 -0.62948,-1.73764 -0.82804,-1.89795 -0.20982,-0.16941 -4.31811,-0.33699 -9.80968,-0.40013 l -9.44867,-0.10865 -0.17762,1.32105 c -0.14015,1.04237 -0.43858,1.56447 -1.41471,2.475 -1.05855,0.98739 -1.43364,1.15395 -2.59872,1.15395 -1.94025,0 -2.46963,-0.63521 -2.7298,-3.27546 -0.16818,-1.70682 -0.36108,-2.27608 -0.998,-2.94516 -1.19061,-1.250721 -11.13382,-18.519811 -11.13382,-19.336911 0,-0.92315 6.4222,-16.94876 7.08616,-17.68243 0.27876,-0.30802 0.63119,-0.56004 0.78317,-0.56004 0.15199,0 2.79325,1.0125 5.86946,2.25 3.07622,1.2375 5.78027,2.25 6.00899,2.25 0.22873,0 0.67769,-0.33285 0.99769,-0.73967 1.54627,-1.96575 6.55453,-1.35626 6.55453,0.79768 0,0.43287 0.15533,0.51444 0.71308,0.37445 0.53224,-0.13358 0.9926,0.0665 1.81532,0.78882 1.45021,1.2733 2.06386,2.47709 2.26038,4.43422 l 0.16122,1.6055 5.85,3.11362 c 3.2175,1.71249 5.95125,3.11627 6.075,3.1195 0.12375,0.003 0.225,-0.58509 0.225,-1.30739 0,-0.72229 0.17123,-1.45537 0.38051,-1.62906 0.4334,-0.35968 5.89362,-0.57411 21.06569,-0.82726 6.32418,-0.10552 10.64067,-0.29502 10.85966,-0.47677 0.1999,-0.1659 0.51698,-0.76683 0.70462,-1.33539 0.36981,-1.12055 0.13448,-1.55295 -5.14573,-9.45467 l -1.72835,-2.58643 -2.57079,-0.13493 c -2.343,-0.12298 -2.65225,-0.21279 -3.49014,-1.01358 -0.70742,-0.67609 -0.89061,-1.07622 -0.79466,-1.73572 0.1053,-0.72379 -0.009,-0.90365 -0.73439,-1.15655 -1.18888,-0.41445 -1.44642,-1.0549 -1.44642,-3.59701 0,-1.8542 0.11827,-2.37412 0.75228,-3.30715 l 0.75227,-1.10707 -3.03924,-4.88757 c -4.48283,-7.2091 -4.13723,-6.83719 -6.35557,-6.83955 -2.0064,-0.002 -2.97946,-0.44296 -4.08772,-1.85189 -1.00001,-1.2713 -0.7964,-1.97405 1.07161,-3.69878 l 1.69363,-1.56373 -2.46335,-4.09389 c -2.8391,-4.71834 -2.96532,-5.40181 -1.1605,-6.2839 1.0883,-0.5319 1.1453,-0.53006 2.52829,0.0817 0.77819,0.34423 1.51382,0.5216 1.63473,0.39416 0.12091,-0.12743 0.10015,-0.97151 -0.0461,-1.87572 -0.22208,-1.37275 -0.45278,-1.80237 -1.39814,-2.60369 -0.95425,-0.80887 -1.07962,-1.04552 -0.79779,-1.50598 0.27188,-0.4442 0.7261,-0.54649 2.43004,-0.54726 2.13551,-9.7e-4 3.08559,-0.38828 3.08559,-1.25788 0,-0.23945 -0.7425,-1.11397 -1.65,-1.94337 -1.7377,-1.58816 -2.12185,-2.6809 -1.125,-3.20016 0.28875,-0.1504103 1.44047,-0.3688603 2.55938,-0.4854403 1.62171,-0.16897 2.11838,-0.34385 2.44842,-0.86209 0.22771,-0.357562 2.93887,-6.590112 6.02479,-13.850112 3.08591,-7.2599997 7.19985,-16.9124997 9.14207,-21.4499997 1.94222,-4.5375 3.59582,-8.4525 3.67466,-8.7 0.17988,-0.564636 -0.41668,-1.773843 -1.24487,-2.523348 -0.78474,-0.710181 -1.32942,-2.638584 -1.07388,-3.802038 0.26029,-1.185096 1.23791,-1.394202 2.79776,-0.598422 0.67252,0.343095 1.36738,0.623808 1.54414,0.623808 0.68882,0 0.63246,-0.954129 -0.1142,-1.933044 -0.4308,-0.564807 -0.78327,-1.301181 -0.78327,-1.636383 0,-0.848895 0.95778,-1.307814 1.94562,-0.932238 1.0814,0.411144 2.08114,-0.622359 2.50247,-2.586984 0.17536,-0.817662 1.39271,-3.978464 2.70523,-7.024004 1.31251,-3.04554 4.30504,-9.992346 6.65007,-15.437346 5.00766,-11.627482 5.21298,-12.051286 5.95202,-12.285847 1.37955,-0.437853 1.69459,-1.262556 1.69459,-4.435981 0,-2.532754 0.0823,-3.056311 0.525,-3.339391 0.37218,-0.237994 0.67127,-0.243447 1.02752,-0.01873 0.61498,0.387922 5.45856,9.066592 5.48122,9.8212 0.0131,0.436542 -0.79704,3.634995 -1.66347,6.567324 -0.12621,0.42714 0.0105,0.48249 0.85364,0.34566 0.72196,-0.117156 1.12143,-0.02133 1.4223,0.341199 0.60266,0.726159 0.63952,5.594788 0.0564,7.445515 -0.43505,1.380729 -0.42749,1.46748 0.18096,2.075931 0.57503,0.575025 0.79829,0.608931 2.36422,0.359058 l 1.72923,-0.275934 3.6115,-8.703169 c 1.98633,-4.786743 3.73361,-8.891343 3.88285,-9.121335 0.2287,-0.352455 2.42085,-0.386025 13.95,-0.213633 19.1338,0.286108 19.22866,0.297697 19.22866,2.349154 0,1.181658 0.93113,2.675619 2.38558,3.827562 0.63292,0.501282 1.23258,0.911421 1.33259,0.911421 0.10001,0 0.18183,-1.1205 0.18183,-2.49 0,-1.536666 0.13783,-2.627832 0.36,-2.85 0.52207,-0.522069 3.2785,-0.449655 4.07325,0.10701 0.4956,0.347133 0.66675,0.767973 0.66675,1.639446 0,1.433442 0.44394,1.723719 3.05327,1.996449 l 1.88093,0.196596 -0.5171,-0.789195 c -0.60536,-0.923904 -0.66771,-3.419361 -0.12517,-5.010306 0.28186,-0.826527 0.54067,-1.07088 1.21602,-1.148106 1.27763,-0.146097 5.44768,2.734056 7.40026,5.111184 0.85246,1.037808 1.72653,2.027433 1.94238,2.199171 0.21585,0.171735 1.31652,0.343893 2.44593,0.382569 1.12941,0.03868 2.49012,0.211689 3.02379,0.384471 1.26294,0.408888 2.17969,1.601145 2.17969,2.834742 0,0.852397 -0.28978,1.226827 -2.17933,2.815984 -3.66929,3.085956 -2.5154,2.849739 -14.75222,3.019986 l -10.78154,0.15 -1.89346,3.554064 c -1.0414,1.954736 -1.89345,3.669165 -1.89345,3.809844 0,0.140676 0.91125,0.892794 2.025,1.671372 2.49841,1.746537 2.775,2.076966 2.775,3.315144 0,1.597782 -0.96684,2.02632 -4.07654,1.806867 -2.51231,-0.177297 -2.55378,-0.16899 -2.89506,0.580038 -0.19298,0.423557 -3.70622,3.344534 -7.93732,6.599243 -4.17509,3.211632 -7.58679,5.934753 -7.58154,6.051378 0.005,0.116628 0.20775,0.474102 0.45,0.794388 0.66352,0.877257 0.56252,3.349341 -0.18635,4.561047 -1.18734,1.921143 -2.69475,2.066844 -3.70417,0.358029 -0.31621,-0.535308 -1.12485,-1.484184 -1.79698,-2.10861 l -1.22207,-1.135321 -9.375,-0.0037 -9.375,-0.0037 0,2.64 c 0,3.541233 -0.41882,3.896418 -3.39764,2.881434 -1.52743,-0.520452 -3.25861,-2.24034 -4.00502,-3.978918 l -0.43254,-1.007481 -3.9574,0.212556 c -2.17657,0.116904 -4.04942,0.300273 -4.16188,0.407481 -0.11246,0.107211 -3.23512,7.822428 -6.93923,17.144928 -3.70411,9.3224997 -7.7754,19.55647965 -9.04731,22.7421697 l -2.31258,5.792183 0.92842,2.3078203 c 1.01941,2.53406 1.10217,3.06084 0.56518,3.59783 -0.50095,0.50095 -2.67711,0.45062 -3.43384,-0.0794 -0.82947,-0.58099 -0.97505,-0.37136 -0.78706,1.13333 0.12401,0.99255 0.4322,1.51357 1.46892,2.48337 2.2915,2.14358 1.63001,3.25742 -1.95942,3.29929 -1.79695,0.021 -2.2587,0.11609 -2.18449,0.45 0.0518,0.23288 0.64515,1.62594 1.31865,3.09569 0.91197,1.99018 1.14814,2.79422 0.92525,3.15 -0.45367,0.72416 -1.40641,0.73257 -2.79405,0.0247 -0.68866,-0.35132 -1.31539,-0.57548 -1.39275,-0.49813 -0.25566,0.25567 0.54907,2.7293 1.31103,4.02992 0.42392,0.72361 0.66754,1.49127 0.5612,1.76838 -0.10335,0.26933 -0.002,0.70641 0.22593,0.9713 0.22761,0.26489 2.27928,3.51911 4.55927,7.23161 2.27998,3.7125 5.89601,9.585 8.03561,13.05 2.13961,3.465 5.84859,9.4725 8.24219,13.35 2.39359,3.8775 4.62562,7.44139 4.96006,7.91975 l 0.60808,0.86974 38.12271,-0.2027 c 39.00385,-0.20739 46.90812,-0.34357 47.40771,-0.81682 0.15675,-0.14848 1.1772,-0.26997 2.26766,-0.26997 1.9947,0 3.27989,-0.50012 2.89316,-1.12585 -0.10771,-0.17429 -0.92046,-0.72584 -1.80612,-1.22567 -0.88565,-0.49983 -1.71228,-1.15396 -1.83695,-1.45363 -0.12467,-0.29968 -0.33664,-4.12236 -0.47105,-8.49486 -0.1344,-4.3725 -0.25277,-8.17847 -0.26303,-8.45772 -0.0103,-0.27925 -0.82632,-1.42675 -1.81346,-2.55 -1.91141,-2.17499 -2.11408,-2.7239 -1.28021,-3.46739 0.57504,-0.51271 4.14034,-2.02489 4.77413,-2.02489 0.21762,0 1.01469,0.4725 1.77125,1.05 1.34739,1.02849 2.66411,1.32492 3.85508,0.8679 0.67691,-0.25975 0.59899,-0.59652 -0.48835,-2.11062 -1.03998,-1.44815 -0.94621,-2.26431 0.2813,-2.44827 0.48075,-0.072 1.48526,1.10396 4.82586,5.64972 4.86022,6.61361 4.38097,5.10154 4.79899,15.14127 0.29167,7.00519 0.27005,7.11784 -1.5985,8.32811 -1.90467,1.23367 -1.29521,1.72189 2.1495,1.72189 1.23485,0 2.47256,0.12165 2.75046,0.27032 0.29871,0.15981 5.77911,0.16575 13.40528,0.0145 26.13752,-0.51829 45.00233,-0.94828 45.08722,-1.02769 0.048,-0.0449 -4.87548,-8.56985 -10.941,-18.94437 -11.25032,-19.24268 -11.90252,-20.54028 -10.42967,-20.75099 0.33911,-0.0485 0.83081,0.15399 1.09267,0.45 0.65763,0.74339 22.7435,38.65733 23.15688,39.75251 0.46195,1.22383 -0.19481,1.64319 -2.91672,1.86241 -2.09224,0.16851 -54.65724,1.23214 -57.64938,1.16651 -2.7004,-0.0592 -6.8865,-0.57628 -7.54264,-0.93165 -0.92446,-0.50067 -2.20736,-2.11163 -2.20736,-2.7718 0,-0.31031 0.48905,-0.9412 1.08679,-1.40198 0.59773,-0.46079 1.40211,-1.10779 1.78752,-1.43779 l 0.70074,-0.6 -0.30687,-6.88087 c -0.169,-3.78943 -0.45504,-7.15903 -0.63667,-7.5 -0.37453,-0.70308 -4.13202,-5.86913 -4.26887,-5.86913 -0.0491,0 -0.57402,0.2025 -1.16637,0.45 -2.0583,0.86001 -4.02957,0.50443 -6.2325,-1.12423 -0.74238,-0.54886 -0.83923,-0.55387 -1.73652,-0.0899 l -0.9503,0.49142 1.43653,1.6811 1.43652,1.68111 0.24313,8.43023 c 0.27507,9.53816 0.0347,8.7025 3.00329,10.44246 1.73126,1.01475 2.02115,1.90312 1.10481,3.38578 -0.87196,1.41086 -2.07919,1.99676 -4.80123,2.33013 -3.64451,0.44634 -16.73396,0.70099 -39.15,0.76163 -11.55,0.0312 -27.48,0.14203 -35.4,0.24619 l -14.4,0.18939 -0.78118,-0.86268 c -0.42964,-0.47447 -1.65671,-2.28017 -2.72682,-4.01267 -1.0701,-1.7325 -4.68935,-7.605 -8.04277,-13.05 -3.35343,-5.445 -7.60169,-12.33 -9.44058,-15.3 -5.95419,-9.61663 -6.57779,-10.70097 -6.63577,-11.5385 -0.0314,-0.45375 -0.40348,-1.35071 -0.82682,-1.99325 -0.89748,-1.36221 -1.69606,-4.197 -1.69606,-6.02072 0,-1.57576 0.64716,-2.05903 2.08572,-1.55755 0.5197,0.18117 0.99589,0.27842 1.0582,0.21612 0.0623,-0.0623 -0.29897,-1.04901 -0.80284,-2.19268 -1.24118,-2.81724 -1.01186,-3.57793 1.11461,-3.69728 2.20439,-0.12371 2.35542,-0.21767 1.77467,-1.10401 -0.7221,-1.10207 -0.51724,-5.83842 0.29114,-6.73106 0.73369,-0.81016 1.60809,-0.8018 2.48688,0.0238 l 0.69704,0.65484 -0.59371,-1.72566 -0.59372,-1.7256703 1.1652,-3.054173 c 0.64086,-1.6798 3.18514,-8.11668 5.65395,-14.30418 2.46882,-6.1874997 6.13586,-15.3991747 8.14899,-20.4703897 2.01313,-5.071218 3.88605,-9.479139 4.16205,-9.795387 0.44991,-0.515514 1.06497,-0.590553 5.94599,-0.725433 5.81315,-0.160641 6.10494,-0.09967 6.10695,1.276212 10e-4,0.833157 0.98476,2.633565 1.76185,3.225153 1.04042,0.792048 1.23703,0.478389 1.23703,-1.973421 0,-1.831272 0.11158,-2.45595 0.49565,-2.775 0.39474,-0.327915 2.65169,-0.4299 11.08664,-0.500976 l 10.591,-0.08924 1.8664,1.949169 c 1.02651,1.072041 1.97753,1.880484 2.11335,1.796538 0.47914,-0.296127 0.23784,-1.448133 -0.53776,-2.567325 -0.52794,-0.761814 -0.72752,-1.356105 -0.6099,-1.816125 0.11406,-0.446139 2.89739,-2.76291 8.00886,-6.66639 6.7798,-5.177523 7.9309,-6.173744 8.55372,-7.40282 0.82458,-1.627239 1.63227,-2.029983 2.68617,-1.339437 0.78533,0.514563 2.54587,0.649476 2.54587,0.195096 0,-0.153882 -0.23625,-0.356901 -0.525,-0.451155 -0.28875,-0.09425 -1.16625,-0.763716 -1.95,-1.487688 -0.99701,-0.92097 -1.425,-1.550556 -1.425,-2.09622 0,-0.862698 4.28119,-9.085653 5.05954,-9.717951 0.39376,-0.319872 2.56617,-0.373503 11.01873,-0.272013 10.31038,0.123795 10.54991,0.113253 11.57369,-0.509388 1.59265,-0.968616 3.92287,-3.122026 3.72493,-3.4423 -0.28967,-0.46869 -3.6366,-0.739695 -4.3592,-0.352971 -1.00864,0.539793 -1.53509,0.16887 -3.61769,-2.548926 -3.73872,-4.879029 -7.77182,-6.295848 -5.1,-1.791618 0.48937,0.825 0.89207,1.85472 0.89488,2.288268 0.009,1.34175 -0.52799,1.522191 -3.49023,1.173432 -5.24626,-0.617678 -6.40465,-1.170806 -6.40465,-3.058211 0,-0.825336 -0.12802,-1.153503 -0.45,-1.153503 -0.55271,0 -0.62646,2.40426 -0.11847,3.861501 0.48161,1.381533 -0.0173,1.838499 -2.00717,1.838499 -1.45609,0 -1.73515,-0.116244 -3.06081,-1.275 -1.82853,-1.598319 -3.09729,-3.318537 -3.34543,-4.535844 l -0.19145,-0.939156 -5.94676,-0.185718 c -3.27071,-0.102144 -9.87495,-0.237144 -14.67608,-0.3 l -8.72931,-0.114282 -3.53656,8.540965 c -1.9451,4.697529 -3.7736,8.778008 -4.06333,9.067733 -0.58039,0.580389 -4.81769,1.307022 -5.89208,1.010403 -0.67058,-0.185139 -2.40126,-2.353211 -2.87672,-3.603752 -0.23068,-0.606741 -0.14579,-0.909516 0.45531,-1.623879 0.58695,-0.697554 0.73886,-1.213551 0.73886,-2.509776 0,-0.897432 -0.0788,-1.71048 -0.17508,-1.806777 -0.0963,-0.09629 -0.62867,0.09254 -1.18305,0.419631 -0.79959,0.471771 -1.1355,0.526455 -1.62491,0.264528 -0.33933,-0.181602 -0.61696,-0.592596 -0.61696,-0.913323 0,-0.320724 0.56421,-2.6377 1.2538,-5.148838 l 1.25379,-4.5657 -0.92056,-1.65453 c -0.96119,-1.727544 -1.58703,-2.255251 -1.58703,-1.338183 0,0.296178 -0.74754,1.234203 -1.66119,2.084505 l -1.66119,1.546002 -6.92214,16.015495 c -3.80718,8.808525 -7.01726,16.555496 -7.13352,17.215496 -0.27897,1.583685 -0.73366,2.375061 -1.80147,3.135411 -0.7332,0.522084 -0.85857,0.789405 -0.74845,1.595862 0.0856,0.626847 -0.1067,1.445166 -0.54488,2.318727 -0.58797,1.172184 -0.7957,1.344783 -1.57716,1.310385 -0.495,-0.02178 -1.22097,-0.143286 -1.61327,-0.269997 -0.67256,-0.217236 -0.65116,-0.138147 0.375,1.38561 0.59855,0.888795 1.08827,1.800486 1.08827,2.025978 0,0.225492 -1.56296,4.074795 -3.47326,8.554005 -1.91028,4.47921 -6.31916,14.826519 -9.7975,22.9940187 -3.47834,8.1675 -6.51353,15.0721433 -6.74487,15.3436633 -0.23135,0.2715 -1.01997,0.58353 -1.7525,0.69338 -0.73253,0.10985 -1.33187,0.30119 -1.33187,0.42521 0,0.12402 0.405,0.61351 0.9,1.08775 0.67372,0.64546 0.9,1.13384 0.9,1.94246 0,1.34602 -1.27518,2.97262 -2.7275,3.47915 -0.63254,0.22061 -0.9741,0.51332 -0.89559,0.7675 0.0698,0.22599 0.18543,1.4589 0.25695,2.7398 0.20581,3.68612 -0.67469,4.49263 -3.50353,3.20917 -0.72581,-0.32931 -1.36151,-0.5569 -1.41266,-0.50575 -0.0512,0.0511 0.91304,1.7748 2.14264,3.83034 1.27437,2.13035 2.23652,4.08005 2.23767,4.53439 10e-4,0.5903 -0.38709,1.12285 -1.49798,2.05294 -2.31451,1.93782 -2.05781,2.43264 1.31005,2.52531 1.18844,0.0327 2.31422,0.15427 2.50174,0.27017 0.52773,0.32616 8.27899,12.86681 8.42835,13.63611 0.0826,0.42527 -0.18452,1.1388 -0.71019,1.89734 -0.86515,1.24842 -1.27693,3.38302 -0.71911,3.72777 0.16891,0.10439 0.90086,-0.15816 1.62655,-0.58345 1.85996,-1.09001 2.42887,-1.01151 3.16791,0.43713 0.53629,1.05121 0.56668,1.31751 0.2311,2.025 -0.21252,0.44804 -0.82515,1.00773 -1.3614,1.24376 -0.53625,0.23603 -0.975,0.53978 -0.975,0.675 0,0.22269 1.93969,0.40261 3.45,0.32002 1.51063,-0.0826 2.11225,0.56953 5.82418,6.31321 2.0483,3.16944 3.8587,6.1128 4.0231,6.5408 0.23468,0.61096 0.1473,1.15887 -0.40668,2.55 -1.29125,3.24255 0.36239,2.93075 -17.02072,3.20932 -8.37093,0.13414 -15.38863,0.3001 -15.59488,0.36879 -0.27201,0.0906 -0.375,1.10604 -0.375,3.69757 0,2.89377 -0.0903,3.64762 -0.47514,3.96702 -0.858,0.71207 -1.46408,-0.0305 -1.56453,-1.91694 -0.10963,-2.05873 0.22833,-1.79479 -7.56033,-5.90457 -3.2175,-1.69775 -6.07824,-3.28332 -6.35721,-3.52349 -0.30839,-0.2655 -0.57983,-1.10093 -0.69248,-2.13127 -0.21026,-1.92325 -0.59473,-3.0446 -1.04388,-3.0446 -0.16853,0 -0.30643,0.41387 -0.30643,0.91972 0,1.22587 -0.49102,2.08028 -1.19551,2.08028 -0.31593,0 -1.18868,-0.41456 -1.93945,-0.92126 -1.51576,-1.02297 -1.6116,-1.39491 -0.93439,-3.62634 0.23329,-0.76868 0.34433,-1.47743 0.24676,-1.575 -0.46167,-0.46167 -1.58641,-0.0793 -2.56652,0.8726 -0.73992,0.7186 -1.3606,1.05 -1.96655,1.05 -0.48697,0 -3.27071,-0.96245 -6.18609,-2.13878 -2.94173,-1.18696 -5.40607,-2.02139 -5.53748,-1.875 -0.38764,0.43183 -6.02077,14.63429 -6.02077,15.17979 0,0.8845 9.58509,17.12107 10.67569,18.08399 0.8664,0.764961 1.04275,1.147541 1.17535,2.549781 0.2114,2.23569 0.39241,2.70022 1.05217,2.70022 0.84998,0 1.49679,-1.16967 1.49679,-2.70675 0,-0.75529 0.162,-1.53525 0.36,-1.73325 0.4637,-0.463701 20.24125,-0.509071 21.89329,-0.0502 0.95031,0.26394 1.17267,0.50288 1.6038,1.72333 0.91801,2.59874 1.01791,2.76689 1.64391,2.76689 0.72906,0 1.199,-1.04238 1.199,-2.65953 0,-1.27484 0.42427,-1.84047 1.38049,-1.84047 0.63378,0 0.65864,-0.1061 0.615,-2.625001 -0.0442,-2.55358 -0.026,-2.62775 0.67059,-2.72625 0.91175,-0.12891 1.16634,0.30214 1.38716,2.34867 0.0981,0.90892 0.24129,1.95633 0.31825,2.32758 l 0.13994,0.675001 12.13373,0 c 11.85177,0 12.14124,0.014 12.45685,0.60374 0.271,0.50638 -1.11401,3.90526 -8.58782,21.075 -4.90101,11.25919 -9.04069,20.64001 -9.19929,20.84626 -0.41829,0.54396 -1.3485,0.45962 -1.67579,-0.15193 z m 268.69516,-21.58696 c -0.26334,-0.29486 -1.14132,-1.75111 -1.95105,-3.23611 -0.80976,-1.485 -3.681,-6.73096 -6.38058,-11.65769 -5.13198,-9.365851 -5.33937,-9.942311 -3.57672,-9.942311 0.75132,0 0.31512,-0.73427 9.26703,15.600001 4.95234,9.03634 4.68753,8.48132 4.32489,9.0652 -0.45966,0.74009 -1.11573,0.80669 -1.68357,0.17091 z m 11.35806,-1.36111 c -0.23184,-0.37125 -3.82941,-6.75 -7.99464,-14.175 -4.16523,-7.425001 -8.08428,-14.402531 -8.70903,-15.505621 -0.62475,-1.10309 -1.20804,-2.25059 -1.29621,-2.55 -0.0913,-0.31021 0.96861,-3.25439 2.46405,-6.84438 2.4261,-5.82407 2.68491,-6.30711 3.42603,-6.39416 0.59874,-0.0703 2.4933,0.94495 7.48458,4.01096 3.6756,2.25782 6.92508,4.31775 7.22109,4.57761 0.29601,0.25987 0.49851,0.74993 0.45,1.08904 -0.18876,1.3194 -1.65648,0.74148 -7.8654,-3.09706 -3.28743,-2.0324 -6.13875,-3.75727 -6.33621,-3.83304 -0.21516,-0.0826 -0.66672,0.62036 -1.12698,1.75444 -0.4224,1.04071 -1.37124,3.34058 -2.10855,5.1108 l -1.34055,3.21859 7.79913,13.881411 c 10.9401,19.47189 10.35879,18.35675 9.8739,18.941 -0.57402,0.69165 -1.44582,0.60875 -1.94121,-0.18459 z m -43.69233,-41.897131 c -0.7425,-0.0978 -1.56885,-0.31287 -1.8363,-0.47787 -0.40869,-0.2521 -4.77681,-8.00163 -19.35786,-34.34298 -1.04821,-1.89364 -1.90584,-3.53775 -1.90584,-3.65357 0,-0.29703 0.89099,-1.15345 1.2,-1.15345 0.58166,0 1.45085,1.45132 8.57142,14.31207 11.47032,20.71703 12.43134,22.41448 12.88941,22.76676 0.66168,0.50887 7.09386,0.80248 7.51443,0.343 0.1872,-0.20451 1.79004,-3.775 3.56187,-7.93443 1.77183,-4.15943 3.42213,-7.7291 3.66735,-7.9326 0.53895,-0.4473 1.39146,-0.0155 1.54869,0.78444 0.0568,0.28871 -0.80628,2.63674 -1.91781,5.21784 -1.11156,2.58111 -2.68869,6.24542 -3.50478,8.14292 -0.81609,1.8975 -1.62333,3.61875 -1.79391,3.825 -0.32556,0.39365 -5.92365,0.46032 -8.63667,0.10287 z"
       id="path3857"
       inkscape:connector-curvature="0" />
  </g>
</svg>
