<?xml version="1.0" encoding="UTF-8" standalone="no"?>
<!-- Created with Inkscape (http://www.inkscape.org/) -->

<svg
   xmlns:dc="http://purl.org/dc/elements/1.1/"
   xmlns:cc="http://creativecommons.org/ns#"
   xmlns:rdf="http://www.w3.org/1999/02/22-rdf-syntax-ns#"
   xmlns:svg="http://www.w3.org/2000/svg"
   xmlns="http://www.w3.org/2000/svg"
   xmlns:sodipodi="http://sodipodi.sourceforge.net/DTD/sodipodi-0.dtd"
   xmlns:inkscape="http://www.inkscape.org/namespaces/inkscape"
   width="70.961334mm"
   height="73.605316mm"
   viewBox="0 0 251.4378 260.80624"
   id="svg3535"
   version="1.1"
   inkscape:version="0.91 r13725"
   sodipodi:docname="300.svg">
  <defs
     id="defs3537" />
  <sodipodi:namedview
     id="base"
     pagecolor="#ffffff"
     bordercolor="#666666"
     borderopacity="1.0"
     inkscape:pageopacity="0.0"
     inkscape:pageshadow="2"
     inkscape:zoom="0.35"
     inkscape:cx="860.7189"
     inkscape:cy="-466.73969"
     inkscape:document-units="px"
     inkscape:current-layer="layer1"
     showgrid="false"
     inkscape:window-width="1600"
     inkscape:window-height="851"
     inkscape:window-x="0"
     inkscape:window-y="25"
     inkscape:window-maximized="1"
     fit-margin-top="0"
     fit-margin-left="0"
     fit-margin-right="0"
     fit-margin-bottom="0" />
  <metadata
     id="metadata3540">
    <rdf:RDF>
      <cc:Work
         rdf:about="">
        <dc:format>image/svg+xml</dc:format>
        <dc:type
           rdf:resource="http://purl.org/dc/dcmitype/StillImage" />
        <dc:title></dc:title>
      </cc:Work>
    </rdf:RDF>
  </metadata>
  <g
     inkscape:label="Layer 1"
     inkscape:groupmode="layer"
     id="layer1"
     transform="translate(485.7189,195.18372)">
    <path
       style="fill:#000000"
       d="m -312.61219,64.280178 c -1.99646,-2.43642 -1.96843,-2.29013 -1.97046,-10.28263 l -0.002,-7.275 -0.76796,0 c -0.51296,0 -1.30986,-0.51251 -2.4,-1.54352 -2.41516,-2.28416 -2.1765,-2.98788 1.15011,-3.39136 l 1.73215,-0.21008 -0.0821,-4.9697 -0.0822,-4.9697 -1.23887,-0.3655 c -1.66513,-0.49126 -2.55481,-1.1572 -3.10728,-2.32587 -0.38326,-0.81072 -0.6111,-0.96318 -1.35722,-0.90821 -0.49314,0.0363 -7.50647,0.36413 -15.58517,0.72843 l -14.68854,0.66238 -2.94456,-3.12843 c -1.61951,-1.72065 -3.01321,-3.39844 -3.09711,-3.72844 -0.0887,-0.34906 0.54793,-2.22098 1.52231,-4.47578 l 1.67487,-3.87578 -17.33922,-25.8924 c -9.53641,-14.24082 -22.33406,-33.35626 -28.43906,-42.47877 -6.105,-9.1225 -19.05377,-28.46433 -28.77504,-42.981825 -9.72127,-14.517503 -23.00727,-34.360453 -29.52444,-44.095453 -6.51717,-9.735 -15.43119,-23.0325 -19.80894,-29.55 -4.37775,-6.5175 -7.96675,-12.12 -7.97556,-12.45 -0.0106,-0.39817 0.17864,-0.6 0.56269,-0.6 0.72261,0 -4.53276,-7.72782 41.82361,61.5 10.31295,15.40119 20.70695,30.922428 44.19781,66.000008 6.18787,9.24 16.17688,24.1575 22.19781,33.15 6.02092,8.9925 14.08438,21.0348596 17.9188,26.7607996 l 6.97167,10.4108104 -1.69875,4.03803 c -1.15197,2.7383 -1.61627,4.18543 -1.44249,4.49596 0.14094,0.25185 1.32164,1.54947 2.62376,2.8836 l 2.3675,2.42568 2.58079,-0.17195 c 6.734,-0.44869 33.14017,-1.61073 33.37028,-1.46852 0.43609,0.26952 0.29074,1.24979 -0.21404,1.44349 -0.26099,0.10016 -1.13849,0.1821 -1.95,0.1821 -1.10129,0 -1.47546,0.11236 -1.47546,0.44308 0,0.66871 1.37346,1.43209 2.75344,1.53038 0.6751,0.0481 1.33918,0.19916 1.47573,0.33572 0.13656,0.13655 0.28711,3.1491 0.33456,6.69455 l 0.0863,6.44627 -1.725,0.09 c -1.18863,0.062 -1.725,0.21382 -1.725,0.48827 0,0.69026 0.90259,1.18419 2.19888,1.20331 l 1.25112,0.0185 0.18976,3 c 0.10437,1.65 0.20562,5.28774 0.225,8.08387 0.0345,4.97722 0.0518,5.10782 0.82604,6.225 0.73285,1.0575 1.3092,1.45845 1.3092,0.91077 0,-0.1267 -0.3375,-0.72704 -0.75,-1.33408 -0.94888,-1.3964 -0.942,-1.84099 0.0405,-2.61379 0.59899,-0.47116 1.22383,-0.62177 2.57963,-0.62177 1.61126,0 1.87497,0.0918 2.65184,0.92348 0.97361,1.04225 1.87902,1.06415 2.02387,0.0489 0.0928,-0.65052 0.2174,-0.71083 2.35835,-1.14174 0.35978,-0.0724 1.16978,-0.63769 1.8,-1.25617 l 1.14578,-1.12455 -2.29834,-0.0871 c -2.63535,-0.0999 -2.95576,-0.32944 -3.04234,-2.17938 l -0.0593,-1.26726 1.85658,-0.38551 c 1.87793,-0.38995 3.7904,-1.48762 3.59924,-2.0658 -0.0579,-0.17526 -1.17901,-0.35336 -2.52794,-0.40161 -1.43689,-0.0514 -2.54299,-0.23462 -2.71649,-0.45 -0.40106,-0.49787 -0.98191,-17.90948 -0.6201,-18.5883 0.16629,-0.312 0.62719,-0.525 1.13603,-0.525 1.13104,0 2.06454,-0.83513 2.17971,-1.95 0.0892,-0.86311 0.04,-0.90381 -1.19837,-0.99305 -0.81164,-0.0585 -1.35623,-0.26215 -1.46602,-0.54826 -0.44166,-1.15093 0.1696,-1.21136 16.06947,-1.58871 8.47666,-0.20117 15.52189,-0.25421 15.65606,-0.11787 0.13417,0.13634 0.28622,0.84271 0.33789,1.5697 l 0.0939,1.32182 4.5858,0.0282 c 5.26457,0.0324 5.15247,-0.0253 5.15961,2.65318 0.003,1.3011 0.11099,1.725 0.43758,1.725 0.8327,0 1.36701,-1.26098 1.36701,-3.22616 0,-1.36102 0.12004,-1.93873 0.42734,-2.05665 0.23504,-0.0902 1.85866,0.12574 3.60806,0.47986 4.17473,0.84506 4.35981,0.79535 3.16563,-0.8503 -2.26211,-3.11737 -4.20101,-6.02506 -4.20101,-6.30016 0,-0.16374 0.43875,-0.56609 0.975,-0.89413 0.86968,-0.53199 1.33636,-0.57881 4.32008,-0.4334 l 3.34508,0.16302 -0.28329,0.81265 -0.28329,0.81265 -2.98679,-0.14382 c -1.64274,-0.0791 -2.98679,-0.0678 -2.98679,0.0252 0,0.093 1.01042,1.62977 2.24538,3.41511 1.23496,1.78533 2.28915,3.3711 2.34263,3.52393 0.10123,0.28927 12.22179,-0.35396 13.18059,-0.69949 0.45574,-0.16424 0.46991,-0.27728 0.11692,-0.93263 -0.22092,-0.41016 -1.08454,-2.02825 -1.91914,-3.59575 -0.83461,-1.5675 -2.22891,-4.11607 -3.09844,-5.66349 l -1.58097,-2.8135 -12.04349,0.1785 c -8.50323,0.12602 -12.13947,0.0825 -12.37004,-0.14807 -0.64611,-0.64611 -0.0182,-1.12989 1.72198,-1.32677 1.35811,-0.15366 1.81159,-0.33741 2.06507,-0.83678 0.17864,-0.35194 0.66948,-1.06123 1.09077,-1.5762 l 0.76596,-0.9363104 -1.04925,-1.25588 c -2.1156,-2.5322 -2.23629,-6.3215 -0.20134,-6.3215 0.35776,0 1.45278,0.405 2.43337,0.9 0.98059,0.495 1.95549,0.89585 2.16644,0.89079 0.21096,-0.005 4.02856,-6.41675 8.48356,-14.2481896 4.91243,-8.63556 8.31553,-14.30952 8.64768,-14.41821 0.34868,-0.1141 1.1373,0.21226 2.17039,0.8982 0.89248,0.59257 1.75978,1.07741 1.92732,1.07741 0.16753,0 0.30461,-0.39263 0.30461,-0.8725 0,-0.58855 -0.43934,-1.41184 -1.35,-2.52977 -0.7425,-0.91149 -1.35,-1.9523 -1.35,-2.31289 0,-0.3606 0.41332,-1.12638 0.91849,-1.70174 0.50518,-0.57536 0.85939,-1.10522 0.78715,-1.17746 -0.0723,-0.0722 -0.6083,0.0961 -1.19123,0.37406 -1.84361,0.87916 -2.07068,0.55152 -1.9425,-2.80295 0.0615,-1.60971 0.29087,-3.33443 0.50968,-3.83271 0.36645,-0.8345 0.32715,-1.0238 -0.49828,-2.4 -0.49286,-0.82172 -2.21616,-3.78904 -3.82955,-6.59404 -1.61339,-2.805 -3.30258,-5.7075 -3.75376,-6.45 -0.45118,-0.7425 -2.14378,-3.645 -3.76134,-6.45 -4.54172,-7.8758 -9.08001,-15.69516 -10.37777,-17.88063 -0.6909,-1.16352 -1.10044,-2.17782 -0.9927,-2.4586 0.10491,-0.27339 1.29596,-0.84818 2.78261,-1.34287 2.08485,-0.69374 2.61786,-0.99143 2.69348,-1.50432 0.0716,-0.48571 -0.15325,-0.74284 -0.93545,-1.06967 -1.2742,-0.53239 -2.4455,-2.03789 -2.8924,-3.71766 -0.51595,-1.93928 -0.10059,-2.47625 1.91547,-2.47625 l 1.61079,0 0.11712,-9.525005 c 0.0644,-5.238753 0.015,-9.648043 -0.10978,-9.798433 -0.1248,-0.15039 -6.20586,-0.38997 -13.51347,-0.5324 -7.30761,-0.14244 -13.45531,-0.3189 -13.66156,-0.39216 -0.89023,-0.31616 -0.34052,-1.36878 1.275,-2.44142 0.9075,-0.60254 1.65,-1.19005 1.65,-1.30558 0,-0.28329 -2.12908,-0.90501 -3.09925,-0.90501 -1.4149,0 -1.51426,-0.89569 -0.34396,-3.10099 1.68723,-3.17939 1.33487,-3.82372 -1.0933,-1.99922 -1.10162,0.82773 -1.78393,1.14541 -2.20446,1.02636 -0.33497,-0.0948 -1.46614,-1.107 -2.51371,-2.24928 l -1.90468,-2.07685 -12.21298,0 c -9.41712,0 -12.33259,0.0875 -12.73547,0.38206 -0.30441,0.22258 -0.61058,0.9979 -0.73354,1.8575 l -0.21106,1.47544 -1.79879,0.53843 c -3.0554,0.91455 -3.35508,0.79911 -4.03247,-1.55343 l -0.38871,-1.35 -0.48881,0.73372 c -1.39741,2.09753 -0.6307,1.96073 -8.76893,1.56466 -4.02593,-0.19594 -10.62738,-0.49416 -14.66988,-0.66273 -4.0425,-0.16856 -7.64326,-0.36923 -8.00169,-0.44593 -0.43487,-0.0931 -0.7711,-0.51379 -1.01059,-1.26458 -0.6235,-1.95464 -1.8572,-3.59262 -3.54114,-4.70159 -0.89659,-0.59045 -1.74636,-1.07355 -1.88837,-1.07355 -0.35533,0 -0.32349,1.82599 0.0714,4.09341 0.37276,2.14054 0.49808,1.82414 -2.86512,7.23414 -0.94968,1.52764 -1.65877,2.95452 -1.57577,3.17084 0.13553,0.35319 6.52343,10.55307 9.1025,14.534423 l 1.02532,1.58281 1.26675,-0.73613 c 0.69671,-0.40488 2.21175,-1.2754 3.36675,-1.934493 1.155,-0.6591 2.06887,-1.33601 2.03082,-1.50423 -0.0381,-0.16823 -1.50927,-2.48268 -3.26938,-5.14323 -2.88662,-4.36339 -3.15475,-4.8828 -2.73649,-5.30106 0.41082,-0.41082 1.68998,-0.43421 11.21587,-0.20509 9.97973,0.24003 10.75957,0.29722 10.85505,0.79597 0.0566,0.29554 -0.58309,1.68116 -1.4215,3.07915 -0.8384,1.398 -1.52437,2.62176 -1.52437,2.71947 0,0.0977 0.35386,0.45602 0.78635,0.79622 1.5116,1.18902 1.95877,3.2458 1.18878,5.467803 -0.38095,1.09933 -0.51541,1.20756 -1.60265,1.29016 -0.97339,0.0739 -1.43569,-0.0998 -2.57077,-0.96625 l -1.38397,-1.056403 -1.39084,2.150023 c -1.8022,2.78591 -1.79526,2.76119 -1.16632,4.155935 0.44465,0.98605 0.48376,1.42453 0.22712,2.54606 l -0.31005,1.35488 1.01309,0.42329 c 1.20569,0.50377 1.54974,1.27854 1.77442,3.99587 0.21563,2.60789 -0.20028,3.47063 -1.7349,3.59882 -0.94546,0.079 -1.30526,-0.0913 -2.47944,-1.17366 -0.78328,-0.722 -1.47804,-1.14844 -1.61678,-0.99238 -0.63733,0.71693 -8.21015,13.4091 -8.24464,13.81816 -0.0263,0.31153 0.55094,0.68194 1.73185,1.11138 2.41755,0.87915 2.61575,1.28753 1.50202,3.09487 -1.1676,1.89476 -2.70901,2.47293 -5.19997,1.95044 -0.9091,-0.19068 -1.76342,-0.23107 -1.90446,-0.09 -0.14068,0.14068 -1.74579,2.94072 -3.56691,6.22231 -1.82112,3.28159 -4.4472,8.01156 -5.83573,10.51104 -1.38852,2.49949 -2.7213,4.62 -2.96172,4.71226 -0.24041,0.0923 -0.60977,-0.01 -0.8208,-0.22642 -0.21102,-0.21679 -2.20618,-3.46351 -4.43368,-7.21495 l -4.05,-6.82078 -2.95059,0.19318 c -3.12793,0.20481 -3.79941,0.013 -3.79941,-1.08509 0,-0.3156 -0.2156,-0.90286 -0.4791,-1.30502 -0.46822,-0.71459 -0.44029,-0.77191 1.22869,-2.52166 1.83923,-1.92823 2.00254,-2.878 0.3156,-1.83541 -1.27113,0.78559 -3.5953,1.12384 -4.21101,0.61285 -0.34216,-0.28397 -0.45418,-1.02346 -0.45418,-2.99834 0,-2.30145 0.0915,-2.7563 0.75,-3.72659 0.4125,-0.60785 0.75,-1.16625 0.75,-1.24089 0,-0.0746 -3.26347,-4.69239 -7.25215,-10.26168 -8.77436,-12.2514 -8.64785,-12.068 -8.64785,-12.53647 0,-0.36866 3.21395,-2.174715 14.4,-8.091958 3.0525,-1.61473 5.86744,-3.13057 6.25541,-3.36855 l 0.70541,-0.43268 -0.8096,-0.84504 c -0.73985,-0.77225 -0.98473,-0.84235 -2.84235,-0.81372 -2.17638,0.0335 -2.62401,-0.15515 -4.48529,-1.89062 l -1.02643,-0.95705 -4.67357,2.18607 c -2.57047,1.20233 -4.75449,2.22376 -4.85339,2.26983 -0.0989,0.0461 -0.74367,-0.33091 -1.43284,-0.83773 -1.2802,-0.94148 -3.47847,-1.75809 -4.73261,-1.75809 -0.69748,0 -0.69614,0.007 0.39449,2.21166 0.60189,1.21641 1.0155,2.41712 0.91914,2.66826 -0.26901,0.70102 -2.18785,2.05185 -2.65414,1.86846 -0.54932,-0.21603 -6.86427,-9.85156 -6.86427,-10.47369 0,-0.26647 0.6075,-1.78451 1.35,-3.37341 0.7425,-1.58891 1.35,-2.92096 1.35,-2.96011 0,-0.0392 -0.23779,-0.13337 -0.52842,-0.20937 -0.29063,-0.076 -1.06688,-0.9355 -1.725,-1.90999 l -1.19658,-1.77181 -2.72942,0.0857 c -3.64241,0.11431 -3.68772,0.0584 -3.01741,-3.72464 0.27812,-1.56969 0.42823,-2.97931 0.33355,-3.13249 -0.0947,-0.15319 -0.56172,-0.27853 -1.03787,-0.27853 -0.7561,0 -0.99134,0.23734 -1.8573,1.87386 -0.54535,1.03062 -1.22322,1.91713 -1.50636,1.97003 -0.38336,0.0716 -2.35591,-2.67262 -7.725,-10.74719 -3.96561,-5.96386 -7.21019,-10.96877 -7.21019,-11.12202 0,-0.15325 0.3375,-0.5721 0.75,-0.93076 0.69402,-0.60344 0.75,-0.84962 0.75,-3.29802 0,-1.45524 -0.0714,-2.6459 -0.15857,-2.6459 -0.0872,0 -1.45465,0.81654 -3.03875,1.81454 -1.58411,0.99799 -3.08736,1.77424 -3.34057,1.725 -0.25321,-0.0492 -1.42274,-1.50704 -2.59895,-3.23954 -1.17621,-1.7325 -6.37504,-9.4275 -11.55296,-17.1 -5.17791,-7.6725 -10.80844,-16.00163 -12.51229,-18.50918 -1.70385,-2.50755 -3.09791,-4.68477 -3.09791,-4.83826 0,-0.47122 0.74915,-0.9312 1.13162,-0.69482 0.33913,0.2096 5.94924,8.45244 21.96838,32.27777 3.7125,5.52162 6.91026,10.04498 7.10613,10.0519 0.19586,0.007 1.54586,-0.7351 3,-1.64896 4.21935,-2.65167 5.03423,-2.11282 4.75274,3.14282 -0.12056,2.25102 -0.30123,3.27879 -0.64268,3.65609 -0.28139,0.31094 -0.37798,0.68537 -0.23699,0.91874 1.18526,1.96189 12.22127,18.41355 12.39492,18.47743 0.12488,0.0459 0.47265,-0.46108 0.77281,-1.12672 0.78215,-1.7345 1.04394,-1.87157 3.12477,-1.63615 2.85563,0.32307 2.91631,0.4184 2.32467,3.65223 -0.7075,3.86711 -0.76445,3.67711 1.10227,3.67711 1.59004,0 1.60175,-0.007 2.175,-1.27382 0.59244,-1.30935 1.4992,-1.80911 1.96082,-1.08069 0.14099,0.22248 0.25842,1.10291 0.26095,1.9565 0.004,1.18442 0.17166,1.75282 0.71002,2.4 0.38799,0.46641 0.88175,1.18263 1.09726,1.5916 0.38415,0.729 0.41318,0.69962 1.48003,-1.4979 1.06748,-2.19882 1.92772,-2.93873 2.29721,-1.97586 0.0997,0.25987 -0.89815,2.81008 -2.26712,5.79397 -1.34488,2.93138 -2.39019,5.53373 -2.3229,5.78299 0.0673,0.24927 1.30056,2.25799 2.74059,4.46383 1.69402,2.59489 2.72112,3.90776 2.90966,3.71922 0.18854,-0.18854 -0.142,-1.11433 -0.93638,-2.62266 -1.11166,-2.11078 -1.18796,-2.39159 -0.80674,-2.96922 0.24093,-0.36504 0.80975,-0.67714 1.32966,-0.72955 1.27127,-0.12816 4.45782,0.74545 6.11946,1.67766 l 1.39617,0.78328 4.51532,-2.15967 c 4.64877,-2.22351 5.92078,-2.55636 6.247,-1.63468 0.37897,1.07071 1.99884,2.26037 3.2734,2.40403 0.73915,0.0833 1.32766,0.004 1.45056,-0.19442 0.47866,-0.77449 1.54324,-0.26754 3.40419,1.62107 1.05987,1.07562 1.86167,2.12602 1.78177,2.33422 -0.0799,0.20821 -3.02961,1.90953 -6.55491,3.78073 -13.30705,7.063228 -14.96097,7.987658 -14.84351,8.296528 0.0663,0.17443 3.60184,5.16943 7.85667,11.1 6.92213,9.64836 8.64776,12.43285 7.70504,12.43285 -0.15964,0 -0.64746,0.33105 -1.08405,0.73567 -0.68981,0.6393 -0.79381,0.97338 -0.79381,2.55 0,1.69966 0.0442,1.81433 0.69857,1.81433 0.38421,0 1.34493,-0.42814 2.13494,-0.95142 1.68742,-1.1177 1.95771,-1.02708 3.11234,1.04352 l 0.80415,1.44209 -0.61304,0.50791 c -0.33716,0.27934 -1.1094,0.91799 -1.71608,1.41921 -0.98341,0.81246 -1.0765,1.00771 -0.85825,1.8 0.17405,0.63185 0.40991,0.86819 0.81609,0.81775 2.96099,-0.36769 4.07317,-0.43108 4.71904,-0.26898 0.59775,0.15003 1.5802,1.57146 4.71159,6.81688 2.21539,3.71103 4.07015,6.51354 4.21496,6.36873 0.14223,-0.14224 2.8051,-4.82783 5.91749,-10.41243 3.11238,-5.5846 5.84997,-10.26057 6.08354,-10.39103 0.23441,-0.13094 0.96225,-0.05 1.62466,0.18076 1.75009,0.60958 3.33514,0.54187 4.05,-0.17299 0.33,-0.33 0.6,-0.73123 0.6,-0.89162 0,-0.16039 -0.77625,-0.51419 -1.725,-0.78622 -1.97542,-0.56639 -2.475,-0.88944 -2.475,-1.60045 0,-0.49455 8.04863,-13.92616 9.49584,-15.84671 0.40408,-0.53625 0.92854,-0.975 1.16547,-0.975 0.23692,0 1.10934,0.675 1.93869,1.5 0.82935,0.825 1.64113,1.5 1.80396,1.5 0.16402,0 0.29604,-0.86005 0.29604,-1.92857 0,-2.20169 -0.42703,-2.87143 -1.83084,-2.87143 -1.17417,0 -1.35567,-0.58465 -0.8006,-2.57891 0.42199,-1.5161 0.41465,-1.69788 -0.10789,-2.67282 -0.30837,-0.57536 -0.56049,-1.28283 -0.56027,-1.57218 6e-4,-0.619125 3.4374,-6.354898 4.1352,-6.901098 0.68145,-0.53341 0.83112,-0.48984 2.08854,0.60789 2.15496,1.881293 2.08739,1.858403 2.5941,0.87854 0.35322,-0.68307 0.38796,-1.126 0.15458,-1.97123 -0.16556,-0.59961 -0.40103,-1.0902 -0.52325,-1.0902 -0.12223,0 -0.68497,-0.38631 -1.25053,-0.85846 l -1.0283,-0.85846 1.43922,-2.47695 c 0.79156,-1.36233 1.32689,-2.58417 1.18962,-2.71519 -0.30969,-0.29561 -17.19969,-0.52131 -17.19963,-0.22984 3e-5,0.1161 1.28255,2.17762 2.85005,4.58115 1.5675,2.40353 2.85,4.63144 2.85,4.95093 0,0.43458 -1.07664,1.187773 -4.275,2.990683 -2.35125,1.3254 -4.49219,2.41124 -4.75764,2.41298 -0.29676,0.002 -1.56068,-1.701 -3.28188,-4.421843 -1.53958,-2.43375 -4.05614,-6.40675 -5.59236,-8.8289 -1.53622,-2.42214 -2.79312,-4.62006 -2.79312,-4.88426 0,-0.2642 1.09729,-2.24666 2.43842,-4.40548 l 2.43842,-3.92512 -0.19911,-1.69062 c -0.58561,-4.97245 -0.58582,-5.12393 -0.008,-5.76246 0.65311,-0.72167 1.21641,-0.63206 3.30522,0.52579 2.06684,1.14568 4.41787,3.62164 4.86915,5.12788 0.45939,1.53333 -0.54971,1.3946 14.60587,2.00788 6.435,0.2604 12.32007,0.54774 13.07794,0.63855 l 1.37793,0.1651 1.17207,-1.81629 c 1.76764,-2.73924 2.44032,-2.71887 3.1152,0.0943 0.56144,2.34036 0.60552,2.38286 2.06386,1.99017 0.97911,-0.26364 1.24396,-0.47555 1.24752,-0.99814 0.002,-0.36489 0.1924,-1.20343 0.42205,-1.86343 l 0.41753,-1.2 13.44226,-0.0781 13.44227,-0.0781 1.99518,1.97989 1.99518,1.97989 1.22015,-0.62247 c 0.67108,-0.34236 1.30478,-0.7594 1.40821,-0.92676 0.34255,-0.55425 2.21614,-0.34079 2.88571,0.32877 0.7968,0.79681 0.60586,2.44198 -0.48375,4.16804 -0.40626,0.64354 -0.62353,1.24123 -0.48283,1.32818 0.1407,0.087 1.03185,0.36024 1.98034,0.60729 0.94849,0.24705 1.91098,0.60392 2.13885,0.79304 0.76631,0.63597 0.48296,1.70212 -0.6585,2.47776 -0.59005,0.40096 -0.9613,0.79611 -0.825,0.87812 0.13631,0.082 5.81417,0.24834 12.61748,0.36963 10.0672,0.17946 12.43486,0.29909 12.72001,0.64267 0.50441,0.60779 0.17922,21.527008 -0.34446,22.157998 -0.23336,0.28119 -0.9057,0.44422 -1.83193,0.44422 -1.59176,0 -1.6236,0.0281 -1.12578,0.99472 0.62957,1.22239 1.558,2.00528 2.37807,2.00528 1.21119,0 1.54459,0.6023 1.31045,2.36734 -0.11105,0.83721 -0.37179,1.66317 -0.57941,1.83548 -0.20762,0.17231 -1.30429,0.63144 -2.43705,1.02028 -1.13275,0.38884 -2.02535,0.85906 -1.98356,1.04492 0.0664,0.2954 12.6935,22.17869 20.18553,34.98244 3.63539,6.21282 3.49489,5.81873 2.56366,7.19098 -0.54041,0.79634 -0.77518,1.53846 -0.77518,2.45043 0,1.53569 0.2568,1.61282 2.21014,0.66382 0.7294,-0.35437 1.54301,-0.56111 1.80802,-0.45942 0.65433,0.25109 0.59587,1.39089 -0.11816,2.30373 -0.86471,1.10547 -0.74281,1.46011 0.71695,2.08583 1.5741,0.67474 1.90878,1.11701 1.30338,1.72241 -0.40088,0.40088 -0.60784,0.38113 -1.87363,-0.17879 -1.48581,-0.65725 -2.24669,-0.79149 -2.24669,-0.39638 0,0.12819 0.53734,0.94822 1.1941,1.82227 1.03896,1.38274 1.18974,1.78243 1.16059,3.07657 -0.0326,1.44702 -0.79664,2.96809 -1.49088,2.96809 -0.16095,0 -1.03127,-0.4725 -1.93405,-1.05 -0.90277,-0.5775 -1.74518,-1.05 -1.87201,-1.05 -0.2697,0 -15.79214,27.1259496 -16.09414,28.1249996 -0.28336,0.93739 -1.019,0.85609 -3.48352,-0.38503 -1.15772,-0.58301 -2.22029,-0.98873 -2.36128,-0.90159 -0.49521,0.30605 0.22084,2.23699 1.33273,3.5939 1.36974,1.67159 1.4067,2.48615 0.18034,3.9737204 l -0.94311,1.144 10.02216,0.079 c 7.52591,0.0593 10.09443,0.17137 10.31233,0.45 0.70961,0.90739 7.87674,14.31179 7.87674,14.73155 0,0.25761 -0.23625,0.59041 -0.525,0.73954 -0.28875,0.14914 -4.40231,0.51838 -9.14123,0.82053 -7.34064,0.46805 -8.9576,0.49202 -10.92206,0.16193 -1.2682,-0.21309 -2.48715,-0.45703 -2.70877,-0.54207 -0.29186,-0.112 -0.40294,0.14698 -0.40294,0.93942 0,1.29213 -0.96125,3.32126 -1.78126,3.76012 -0.87334,0.46739 -2.59221,0.37397 -3.03969,-0.16521 -0.21693,-0.26139 -0.4515,-1.26444 -0.52127,-2.229 l -0.12686,-1.75376 -4.30498,0.17443 c -4.99972,0.20252 -5.22592,0.11877 -5.22592,-1.93506 l 0,-1.34512 -2.625,0.17519 c -1.44375,0.0964 -5.865,0.24751 -9.825,0.33591 -3.96,0.0884 -8.63524,0.24011 -10.38942,0.33713 l -3.18942,0.1764 -0.15607,1.38463 c -0.17637,1.56477 -1.16279,2.65898 -2.66853,2.96013 l -0.88713,0.17742 0.20888,7.83345 c 0.11719,4.39518 0.33973,7.99803 0.50701,8.20844 0.18992,0.23888 1.0977,0.375 2.50086,0.375 1.91794,0 2.24552,0.08 2.53386,0.61876 0.71485,1.33571 0.45434,2.34649 -0.92695,3.59654 -0.71999,0.65158 -1.58448,1.18654 -1.92108,1.18879 -0.98488,0.007 -1.96201,0.34125 -1.96201,0.67197 0,0.19204 0.70995,0.2491 1.90542,0.15314 2.46145,-0.19758 2.89458,0.0537 2.89458,1.67958 0,1.54791 -0.76872,2.39181 -3.45,3.78742 -0.99,0.5153 -2.0025,1.18953 -2.25,1.49828 -0.26324,0.32839 -1.03926,0.6466 -1.86985,0.76673 -1.36221,0.19703 -1.44136,0.16756 -1.95,-0.72602 -0.47571,-0.83576 -0.67619,-0.93159 -1.95238,-0.93329 l -1.42222,-0.002 0.89722,1.45818 c 0.49348,0.80199 0.89723,1.59999 0.89723,1.77333 0,0.47982 -1.77394,1.86849 -2.38688,1.86849 -0.29746,0 -1.03583,-0.60407 -1.64081,-1.34237 z m -21.51341,-49.57954 -3.79111,-0.0955 -1.80239,-2.76629 c -0.99132,-1.52146 -4.67655,-7.2887904 -8.1894,-12.81629042 -8.34551,-13.13170958 -14.87623,-23.37562958 -16.42993,-25.77150958 -0.68534,-1.05683 -1.24607,-2.11895 -1.24607,-2.36027 0,-0.24132 1.09979,-2.48164 2.44398,-4.97849 1.34419,-2.49685 3.12668,-5.82223 3.96108,-7.38973 3.32695,-6.24995 3.24335,-6.13436 4.55614,-6.3 0.97807,-0.12341 1.1737,-0.25636 1.10361,-0.75 -0.45171,-3.18153 -0.41683,-4.29586 0.17645,-5.63708 0.40662,-0.91923 0.85128,-1.45181 1.31192,-1.57131 0.41417,-0.10745 0.90669,-0.62916 1.21422,-1.2862 0.28458,-0.60797 1.30348,-2.52291 2.26423,-4.25541 0.96076,-1.7325 3.81116,-6.8864 6.33422,-11.45312 2.52305,-4.56671 4.76618,-8.37173 4.98472,-8.45559 0.21854,-0.0839 1.34242,0.30044 2.49751,0.854 1.15509,0.55356 2.1793,0.92733 2.27604,0.83059 0.4031,-0.4031 0.10831,-1.06259 -1.02412,-2.29113 -0.66,-0.71602 -1.2,-1.58897 -1.2,-1.9399 0,-0.35093 1.56933,-3.44083 3.48739,-6.86645 1.91807,-3.42562 5.17458,-9.265905 7.23669,-12.978408 2.06211,-3.7125 3.99584,-7.0093 4.29718,-7.32623 0.50655,-0.53277 1.15019,-0.58674 8.53254,-0.7154 6.17124,-0.10756 8.1492,-0.0511 8.70913,0.24855 0.64025,0.34265 0.96725,0.27581 2.8133,-0.57509 1.73244,-0.79854 2.38615,-0.94737 3.83131,-0.87232 1.70782,0.0887 1.74427,0.10904 1.83334,1.0236 0.0633,0.6496 -0.1359,1.20262 -0.65552,1.82015 -1.31572,1.56365 -1.3082,2.30252 0.0431,4.23323 5.77562,8.252083 9.03203,13.376778 8.78883,13.831198 -0.16829,0.31445 -0.11448,0.76124 0.14901,1.23725 0.91105,1.64585 0.3818,3.67991 -1.73131,6.65391 -0.28877,0.40642 -0.25921,0.72343 0.14688,1.575 0.27963,0.58639 0.66126,1.06616 0.84807,1.06616 0.18682,0 0.98334,-0.4725 1.77005,-1.05 0.78671,-0.5775 1.62763,-1.05 1.8687,-1.05 0.79223,0 -0.0464,-1.30407 13.50466,21 3.45853,5.6925 6.63663,10.89 7.06245,11.55 0.42581,0.66 1.66921,2.685 2.76311,4.5 1.0939,1.815 3.14173,5.19 4.55073,7.5 1.409,2.31 2.71981,4.50063 2.91292,4.86806 0.30074,0.57222 0.18171,1.00496 -0.82978,3.01673 -1.59453,3.17137 -1.76611,3.29043 -3.49628,2.42634 l -1.38709,-0.69274 -2.25143,1.15899 c -2.08899,1.07537 -2.238,1.21539 -2.06527,1.9408 0.59669,2.50592 0.55094,3.18636 -0.28069,4.1747 -0.79071,0.9397 -0.80347,1.01542 -0.48212,2.86076 0.5322,3.05611 0.46643,3.37631 -1.01991,4.96532 -0.7425,0.7938 -1.35,1.57448 -1.35,1.73486 0,0.16037 0.35033,0.61887 0.7785,1.01889 1.15294,1.07709 1.62203,2.1757596 1.61708,3.7873896 -0.005,1.78819 -0.54476,2.90904 -1.46276,3.04031 -0.38619,0.0552 -1.47969,-0.24853 -2.43001,-0.675 -2.85719,-1.28223 -2.91202,-1.25322 -4.80281,2.54113 -0.9075,1.82113998 -1.949,3.50742998 -2.31445,3.74730998 -0.84096,0.55202002 -1.86927,0.54284002 -2.61789,-0.0234 -1.67995,-1.27065 -1.66486,0.57776002 0.0177,2.16924002 0.55805,0.52784 1.01463,1.05442 1.01463,1.17017 0,0.11576 -1.08,2.00867 -2.4,4.20647 -1.32,2.1978004 -2.4,4.0674704 -2.4,4.1548304 0,0.0874 0.43875,0.1609 0.975,0.16342 1.24847,0.006 1.81241,0.36986 1.67549,1.08136 -0.10349,0.53774 -0.61216,0.56795 -10.90452,0.64768 -5.93778,0.046 -11.06597,0.0149 -11.39597,-0.0691 -0.33,-0.084 -1.25059,-1.15718 -2.04577,-2.38481 l -1.44577,-2.2320604 -1.70423,0.1346504 c -0.93732,0.0741 -2.32676,0.18976 -3.08763,0.25712 -1.11182,0.0984 -1.60165,-0.0258 -2.49502,-0.6328904 -1.14663,-0.77915 -1.97157,-0.76678 -1.97157,0.0296 0,0.2502 0.41432,1.1282604 0.92071,1.9512604 0.58952,0.95808 0.88629,1.79605 0.825,2.3295 l -0.0957,0.83316 -9.75,0.0118 c -5.3625,0.006 -11.456,-0.0312 -13.5411,-0.0837 z m 21.6411,-1.42358 c 0,-0.08 -0.405,-0.8037 -0.9,-1.60818 -0.495,-0.80448 -0.9,-1.7038504 -0.9,-1.9986104 0,-0.56553 1.962,-3.14772 2.3917,-3.14772 0.13834,0 0.81969,0.47468 1.51411,1.05485 1.24104,1.03686 1.29653,1.05151 3.25338,0.85898 1.09495,-0.10772 2.05129,-0.24914 2.1252,-0.31424 0.0739,-0.0651 -0.25286,-0.83428 -0.72617,-1.70926 -0.90431,-1.67173 -0.87721,-2.71421 0.0659,-2.53441 0.28925,0.0551 1.84124,2.09219 3.44886,4.52677 l 2.92296,4.4265204 8.61275,-0.0796 8.61275,-0.0796 2.38521,-3.9856604 2.38521,-3.98566 -0.86167,-0.8994 c -0.74184,-0.7743 -0.8778,-1.1846 -0.97755,-2.94996002 -0.1629,-2.88295998 0.75135,-4.27447998 1.81277,-2.75908998 0.21967,0.31362 0.9013,0.86635 1.51473,1.22827998 l 1.11533,0.65806 0.4838,-0.85328 c 0.26609,-0.46930998 1.17836,-2.20328998 2.02728,-3.85328998 1.20484,-2.3418 1.69579,-3.02159 2.2377,-3.09839 0.57252,-0.0811 3.58863,0.71495 5.08078,1.34104 0.27051,0.11351 0.375,-0.25397 0.375,-1.31884 0,-1.36212 -0.10433,-1.57399 -1.35,-2.7415196 -0.7425,-0.69593 -1.35,-1.50488 -1.35,-1.79768 0,-0.2928 0.72763,-1.33642 1.61696,-2.31916 l 1.61696,-1.78679 -0.43136,-2.49776 c -0.3852,-2.23052 -0.38144,-2.56641 0.0351,-3.13933 1.41531,-1.94659 1.36146,-1.7211 0.84886,-3.55517 -0.35474,-1.26923 -0.39256,-1.81767 -0.14587,-2.11492 0.49898,-0.60123 5.59682,-3.22292 6.24558,-3.21194 0.31006,0.005 0.8258,0.20775 1.14609,0.45 0.92739,0.70145 1.19245,0.54285 2.06453,-1.23528 l 0.82186,-1.67574 -14.73382,-24.12627 -14.73381,-24.12627 -1.75154,1.22863 c -0.96334,0.67575 -1.99859,1.18291 -2.30055,1.12701 -0.32902,-0.0609 -1.01103,-0.98347 -1.70206,-2.30243 -1.15271,-2.20014 -1.15287,-2.201 -0.56342,-2.85 0.3243,-0.35705 0.95848,-1.21708 1.4093,-1.91116 0.70341,-1.08299 0.79414,-1.46592 0.63975,-2.7 -0.099,-0.79092 -0.21426,-1.84303 -0.25625,-2.33803 -0.05,-0.58957 -1.8161,-3.46855 -5.12036,-8.346895 -5.59909,-8.266373 -5.50983,-8.025193 -3.89467,-10.522863 l 0.75644,-1.16975 -1.04334,0.16931 c -0.90481,0.14683 -3.13577,1.26512 -4.78849,2.40026 -0.42446,0.29154 -0.66302,0.2104 -1.36836,-0.46535 l -0.85428,-0.81845 -7.47842,0.22687 -7.47843,0.22686 -3.85456,6.9 c -2.12,3.795003 -5.3277,9.541178 -7.12821,12.769268 -1.80051,3.2281 -3.27365,6.06437 -3.27365,6.30284 0,0.23846 0.25353,0.59191 0.56341,0.78542 0.30987,0.19352 0.85265,0.94937 1.20618,1.67966 0.57482,1.18741 0.60247,1.45081 0.26159,2.49121 -0.5041,1.53856 -1.08905,1.60304 -3.58573,0.39522 -1.2606,-0.60984 -2.14903,-0.88179 -2.31041,-0.70723 -0.14421,0.15599 -3.14734,5.51552 -6.67362,11.91006 -3.76554,6.82841 -6.62808,11.69609 -6.93642,11.79522 -0.28875,0.0928 -0.525,0.36217 -0.525,0.59856 0,0.23638 -0.14189,0.42978 -0.31531,0.42978 -0.72328,0 -1.17275,2.0113 -0.98719,4.41751 0.22459,2.91249 -0.0676,3.60882 -1.56893,3.73943 l -1.06964,0.0931 -4.47947,8.33426 c -2.4637,4.58385 -4.47946,8.45951 -4.47946,8.61259 0,0.21627 26.08632,41.3761 26.6208,42.00315 0.23179,0.27194 24.6792,0.72218 24.6792,0.45451 z"
       id="path3524"
       inkscape:connector-curvature="0" />
  </g>
</svg>
