<?xml version="1.0" encoding="UTF-8" standalone="no"?>
<!-- Created with Inkscape (http://www.inkscape.org/) -->

<svg
   xmlns:dc="http://purl.org/dc/elements/1.1/"
   xmlns:cc="http://creativecommons.org/ns#"
   xmlns:rdf="http://www.w3.org/1999/02/22-rdf-syntax-ns#"
   xmlns:svg="http://www.w3.org/2000/svg"
   xmlns="http://www.w3.org/2000/svg"
   xmlns:sodipodi="http://sodipodi.sourceforge.net/DTD/sodipodi-0.dtd"
   xmlns:inkscape="http://www.inkscape.org/namespaces/inkscape"
   width="85.375023mm"
   height="70.2174mm"
   viewBox="0 0 302.50992 248.80181"
   id="svg3659"
   version="1.1"
   inkscape:version="0.91 r13725"
   sodipodi:docname="400.svg">
  <defs
     id="defs3661" />
  <sodipodi:namedview
     id="base"
     pagecolor="#ffffff"
     bordercolor="#666666"
     borderopacity="1.0"
     inkscape:pageopacity="0.0"
     inkscape:pageshadow="2"
     inkscape:zoom="0.35"
     inkscape:cx="923.39782"
     inkscape:cy="-361.31338"
     inkscape:document-units="px"
     inkscape:current-layer="layer1"
     showgrid="false"
     inkscape:window-width="1600"
     inkscape:window-height="851"
     inkscape:window-x="0"
     inkscape:window-y="25"
     inkscape:window-maximized="1"
     fit-margin-top="0"
     fit-margin-left="0"
     fit-margin-right="0"
     fit-margin-bottom="0" />
  <metadata
     id="metadata3664">
    <rdf:RDF>
      <cc:Work
         rdf:about="">
        <dc:format>image/svg+xml</dc:format>
        <dc:type
           rdf:resource="http://purl.org/dc/dcmitype/StillImage" />
        <dc:title></dc:title>
      </cc:Work>
    </rdf:RDF>
  </metadata>
  <g
     inkscape:label="Layer 1"
     inkscape:groupmode="layer"
     id="layer1"
     transform="translate(548.39782,77.752988)">
    <path
       style="fill:#000000"
       d="m -425.92426,170.86037 c -0.11,-0.11 -0.2,-0.44063 -0.2,-0.73472 0,-0.2941 2.42965,-5.30035 5.39923,-11.125 6.3526,-12.46027 6.41376,-12.54028 9.58581,-12.54028 1.76309,0 2.14291,-0.0917 2.40441,-0.58028 0.52621,-0.98324 0.36574,-1.22765 -1.30964,-1.99466 -0.89111,-0.40797 -1.77413,-0.92723 -1.96228,-1.15393 -0.2683,-0.32329 0.27914,-1.5022 2.53851,-5.46666 1.58433,-2.77996 3.12762,-5.306 3.42955,-5.61342 0.53552,-0.54525 1.14451,-0.54348 24.8553,0.0724 13.36849,0.34724 24.64244,0.75913 25.05324,0.91532 1.62067,0.61618 3.02092,3.2155 3.53253,6.55752 l 0.37715,2.46372 1.27632,0 c 1.73909,0 2.14494,0.60301 3.40124,5.05355 0.56725,2.00954 1.12213,3.55082 1.23306,3.42508 0.30152,-0.34181 1.18607,-5.16066 1.1858,-6.46006 -2.5e-4,-1.22962 0.13395,-1.33155 2.63974,-2.00496 0.99902,-0.26848 1.2542,-0.46135 1.13139,-0.85514 -0.53783,-1.72445 -1.96785,-7.49931 -1.96945,-7.95323 -0.002,-0.58665 4.58022,-8.38737 5.42047,-9.22762 0.43885,-0.43886 1.5245,-0.53437 7.96785,-0.70104 4.10287,-0.10612 8.34981,-0.26834 9.43763,-0.36048 2.61015,-0.22108 3.09518,0.19619 2.90425,2.49855 -0.0733,0.88355 -0.2636,1.73684 -0.42296,1.8962 -0.15935,0.15935 -3.38785,0.42574 -7.17444,0.59197 -6.50971,0.28578 -10.47365,0.6239 -10.7441,0.91644 -0.0665,0.0719 -0.69177,1.27176 -1.38955,2.66633 l -1.26869,2.5356 0.69244,2.20794 c 0.38085,1.21436 0.79476,2.27116 0.91982,2.34845 0.23013,0.14223 0.65345,-1.20529 1.01843,-3.24189 0.10984,-0.61287 0.35433,-1.23723 0.54332,-1.38745 0.18899,-0.15022 11.94818,-0.55957 26.13152,-0.90965 l 25.78792,-0.63651 0.61209,-0.75227 c 0.59346,-0.72939 1.92216,-1.16603 4.73709,-1.5567 0.61875,-0.0859 1.125,-0.22191 1.125,-0.3023 0,-0.0804 -0.27,-0.48942 -0.6,-0.90895 -0.33,-0.41952 -0.6,-1.00477 -0.6,-1.30054 0,-0.52214 1.30764,-1.78132 1.84986,-1.78132 0.47436,0 0.65631,0.96108 0.29235,1.54391 -0.30168,0.48306 -0.13551,0.84751 1.15266,2.52819 1.62936,2.12586 1.80267,2.76564 0.95652,3.5314 -0.84606,0.76568 -1.41771,0.60163 -2.45139,-0.7035 -1.01463,-1.28107 -1.63536,-1.46469 -2.56767,-0.75954 -0.32028,0.24225 -1.01199,0.44475 -1.53711,0.45 -0.67065,0.007 -1.00884,0.17985 -1.13643,0.58183 -0.0999,0.31475 -0.41274,0.67177 -0.69522,0.79337 -0.28245,0.1216 -12.01113,0.50532 -26.06371,0.85271 -14.05257,0.3474 -25.64371,0.72527 -25.75808,0.83972 -0.11438,0.11445 -0.39857,1.12695 -0.63155,2.25 -0.45303,2.18383 -0.9389,2.79191 -2.23083,2.79191 -1.07102,0 -1.23672,-0.25755 -2.36348,-3.67336 l -0.9643,-2.92336 1.6681,-3.10986 c 0.91746,-1.71042 1.8396,-3.24755 2.0492,-3.41585 0.49464,-0.39717 5.96697,-0.91542 12.30608,-1.16543 l 5.025,-0.19818 0,-0.73333 0,-0.73333 -8.475,0.21417 c -4.66125,0.11779 -8.68676,0.32379 -8.94557,0.45777 -0.25881,0.13398 -1.50249,1.98276 -2.76373,4.10839 l -2.29316,3.86478 1.03873,4.00821 c 0.5713,2.20452 1.03873,4.23019 1.03873,4.5015 0,0.66813 -1.24859,1.79788 -1.987,1.79788 -1.3159,0 -1.64194,0.64901 -2.41918,4.81556 -0.77891,4.17547 -1.01733,4.78444 -1.87322,4.78444 -1.17572,0 -1.67458,-0.86387 -2.88742,-5.00015 l -1.21682,-4.14985 -1.38428,-0.0905 c -0.76135,-0.0498 -1.53472,-0.27174 -1.7186,-0.49329 -0.18387,-0.22156 -0.5848,-1.69619 -0.89095,-3.27697 -0.62122,-3.2076 -1.74754,-5.50163 -2.80843,-5.72005 -0.36526,-0.0752 -9.6416,-0.34628 -20.6141,-0.60241 -10.9725,-0.25612 -21.65399,-0.54472 -23.73664,-0.64132 l -3.78665,-0.17564 -2.58835,4.53454 c -1.4236,2.494 -2.58836,4.64866 -2.58836,4.78813 0,0.13947 0.65413,0.53499 1.45363,0.87892 2.04966,0.88174 2.34859,1.31296 1.86705,2.6933 -0.80981,2.3213 -0.99862,2.45525 -3.46087,2.45525 -1.89021,0 -2.33774,0.10191 -2.96413,0.675 -0.40578,0.37125 -3.13271,5.4 -6.05986,11.175 -2.92714,5.775 -5.4542,10.66875 -5.61568,10.875 -0.32749,0.41828 -0.62104,0.4741 -0.92014,0.175 z m -17.87938,-4.12515 c -0.30511,-0.36764 1.25667,-3.58699 8.97157,-18.4934 5.13754,-9.92655 9.28225,-18.10701 9.21047,-18.17879 -0.0718,-0.0718 -5.97184,0.112 -13.11124,0.40841 l -12.9807,0.53893 -0.5232,1.91242 c -0.28776,1.05183 -0.68077,2.00981 -0.87336,2.12884 -0.42099,0.26018 -11.0396,0.69023 -11.4088,0.46204 -0.14223,-0.0879 -0.56065,-1.0696 -0.92982,-2.18156 -0.84489,-2.54489 -2.15781,-3.97174 -3.65458,-3.97174 -0.94823,0 -4.14055,0.50423 -4.28687,0.67712 -0.0339,0.0401 0.0722,0.98582 0.23575,2.10162 0.35602,2.42844 0.22354,2.65575 -1.8589,3.18947 -1.42505,0.36522 -1.56434,0.48944 -2.33813,2.08508 l -0.8228,1.69671 -15.24168,0.24789 c -10.92077,0.17761 -15.35369,0.15493 -15.6368,-0.08 -0.21732,-0.18036 -0.62946,-1.87816 -0.91588,-3.77289 -0.28642,-1.89477 -0.55966,-3.445 -0.6072,-3.445 -0.0475,0 -1.03202,0.7306 -2.18773,1.62355 -3.0856,2.38405 -3.10013,2.38925 -5.00373,1.78919 -0.89748,-0.2829 -1.71817,-0.72776 -1.82375,-0.98856 -0.10558,-0.2608 -0.56306,-4.28974 -1.01661,-8.95319 -0.45356,-4.66346 -0.91728,-8.57166 -1.03051,-8.68488 -0.11322,-0.11322 -6.08786,-0.50337 -13.27698,-0.86698 -7.8433,-0.39671 -13.19739,-0.78739 -13.38681,-0.97681 -0.47956,-0.47957 0.95777,-7.22241 1.69718,-7.96182 0.55902,-0.55902 1.04334,-0.57084 15.73671,-0.3841 l 15.15995,0.19268 1.25763,1.23427 1.25763,1.23427 2.26786,-0.21252 c 2.19216,-0.20542 2.27423,-0.24153 2.4588,-1.08189 0.28175,-1.28277 0.92136,-1.76381 2.33835,-1.75862 1.6642,0.006 2.09378,0.32814 2.46524,1.8481 0.34834,1.42533 0.52187,1.4998 4.34258,1.86349 l 1.95425,0.18603 1.0152,-1.7261 c 1.71349,-2.91337 1.4354,-2.77611 5.62443,-2.77611 l 3.70514,0 1.39189,1.93484 c 2.08869,2.90344 2.25652,2.94436 10.55124,2.57203 3.74198,-0.16796 19.2911,-0.5802 34.55359,-0.91609 15.2625,-0.33589 27.98637,-0.63997 28.27526,-0.67574 0.42923,-0.0532 0.13894,-0.73249 -1.58779,-3.71583 -2.03193,-3.51063 -2.15773,-3.65834 -3.27676,-3.8474 -1.36931,-0.23135 -1.3795,-0.25194 -2.12621,-4.299198 -0.64043,-3.47118 1.39761,0.44917 -20.49056,-39.41551 -4.23167,-7.70709 -7.69394,-14.28564 -7.69394,-14.61899 0,-0.33335 2.29519,-5.49561 5.10043,-11.47168 2.80523,-5.97607 4.99898,-10.961915 4.875,-11.079655 -0.75305,-0.71516 -25.1242,-15.27382 -25.39437,-15.1699 -0.18208,0.07 -3.0648,4.50771 -6.40605,9.86151 -7.204,11.543195 -7.16293,11.419265 -4.41186,13.314005 1.23154,0.84819 1.64027,1.30533 1.575,1.76153 -0.0795,0.5554 -0.35404,0.63157 -2.78814,0.77338 -2.56541,0.14946 -3.46288,0.41509 -5.25,1.55384 -0.69726,0.4443 -0.91581,0.42921 -3.10802,-0.21463 -2.7659,-0.81234 -3.18105,-1.11473 -2.66495,-1.94115 0.65934,-1.05578 0.1969,-4.10991 -0.903,-5.96374 -0.53572,-0.90291 -1.13121,-1.69404 -1.32331,-1.75807 -0.19211,-0.064 -0.77235,0.49849 -1.28942,1.25002 -0.94987,1.38059 -1.96542,1.79567 -2.29459,0.93785 -0.0908,-0.2365 1.1021,-2.488535 2.66164,-5.024995 2.58223,-4.19978 10.65441,-17.50354 10.92829,-18.01091 0.0637,-0.11798 -0.62222,-0.70450998 -1.52423,-1.30339998 -0.90201,-0.5989 -1.71437,-1.28268002 -1.80525,-1.51951002 -0.0909,-0.23682 0.17549,-1.3358 0.59192,-2.44217 0.41644,-1.10636 0.7175,-2.34991 0.66904,-2.763434 -0.11048,-0.94264 -0.97792,-1.14497 -1.78342,-0.416 -0.55187,0.499434 -0.6658,0.505864 -1.40268,0.0792 -0.44111,-0.25543 -10.62536,-6.10423 -22.63166,-12.997342 l -21.82964,-12.53293 -1.94851,0.780045 c -1.07169,0.429024 -2.1991,0.780045 -2.50536,0.780045 -0.60234,0 -3.55051,-1.12575 -4.16185,-1.58919 -0.6613,-0.501318 -0.41633,-1.146036 1.66637,-4.385568 l 2.04137,-3.175242 -0.94667,-0.938985 c -1.01759,-1.009341 -1.33607,-2.044227 -1.33607,-4.3416 0,-1.213824 0.12213,-1.535604 0.73531,-1.937379 1.00443,-0.658128 1.92426,-0.302064 2.44611,0.946872 0.23465,0.5616 0.55401,1.021092 0.70971,1.021092 0.15568,0 1.38795,-1.35 2.73836,-3 1.47609,-1.803558 2.67325,-3 3.0018,-3 0.64608,0 3.59338,1.12041 4.0046,1.522338 0.15723,0.153687 0.38312,1.297452 0.50197,2.541699 0.34562,3.618273 -0.005,3.351039 18.77044,14.310963 l 16.31716,9.525 2.02993,0 c 1.32042,0 2.23348,-0.153951 2.61227,-0.44046 0.32029,-0.24225 0.93451,-0.44475 1.36493,-0.45 0.85372,-0.01041 8.86096,3.378993 9.53087,4.034334 0.28384,0.277671 0.46154,1.494093 0.56684,3.880179 0.0844,1.911639 0.3033,3.665181 0.48654,3.89676 0.18324,0.231579 7.34955,4.575759 15.92513,9.653753 l 15.59197,9.23269 2.29466,0.0192 c 2.21151,0.0185 2.32758,-0.0161 3.20339,-0.95363 1.02654,-1.09892 1.68274,-1.19449 3.20782,-0.46723 1.29403,0.61708 1.33591,1.15663 0.24531,3.16043 -0.79281,1.45664 -0.79938,1.50851 -0.24266,1.9156 0.31471,0.23012 0.64766,0.41507 0.73987,0.411 0.0922,-0.004 7.45473,-12.32283 16.36114,-27.375006 8.90641,-15.052173 17.55911,-29.66259 19.22823,-32.46759 1.66912,-2.805 6.10994,-10.2975 9.86849,-16.65 3.75855,-6.3525 6.98132,-11.643528 7.16171,-11.757839 0.346,-0.219268 1.09809,0.251909 1.09809,0.687946 0,0.141152 -3.62459,6.368372 -8.05465,13.838266 -4.43006,7.469865 -8.97256,15.134097 -10.09445,17.031597 -1.12188,1.8975 -3.52719,5.9475 -5.34513,9 -1.81794,3.0525 -4.34222,7.305 -5.60951,9.45 -20.11609,34.048366 -23.60631,39.870026 -23.97714,39.993626 -0.48191,0.16065 -3.55111,-1.43368 -3.74808,-1.94698 -0.089,-0.23205 0.24104,-1.13589 0.73353,-2.00853 0.49248,-0.87264 0.89543,-1.67696 0.89543,-1.78737 0,-0.44733 -0.91661,-0.1567 -1.65032,0.52328 -0.93841,0.86969 -3.06779,1.23031 -5.48295,0.92856 -1.39485,-0.17428 -2.48649,-0.68794 -6.35056,-2.98822 -2.5664,-1.52778 -8.37866,-4.97996998 -12.91616,-7.67155 -4.5375,-2.69158 -9.49837,-5.638214 -11.02415,-6.548059 -4.12117,-2.457522 -4.09711,-2.420469 -4.27585,-6.585705 l -0.15,-3.495492 -4.0084,-1.768248 -4.00841,-1.768251 -1.13244,0.636471 c -0.83606,0.469893 -1.65049,0.636468 -3.11184,0.636468 l -1.97939,0 -13.72976,-7.992573 c -20.78565,-12.100073 -19.77672,-11.472152 -21.30214,-13.257668 -1.25934,-1.47408 -1.38624,-1.772112 -1.55952,-3.662478 -0.10374,-1.131801 -0.2515,-2.10462 -0.32836,-2.161818 -0.36968,-0.275115 -1.866,-0.825483 -2.2443,-0.825483 -0.23449,0 -1.4531,1.276566 -2.70803,2.836812 -1.25493,1.560246 -2.55795,2.92449 -2.8956,3.031656 -0.72377,0.229719 -2.00982,-0.622191 -2.56239,-1.697388 -0.36552,-0.711246 -0.37063,-0.707652 -0.375,0.263556 -0.006,1.427319 0.75386,3.026331 1.59006,3.344256 1.35043,0.513432 1.23493,1.454949 -0.4994,4.071108 -0.87506,1.32 -1.83283,2.771811 -2.12837,3.226245 l -0.53735,0.826248 1.41729,0.626931 1.41728,0.626931 2.25172,-0.945192 2.25173,-0.945192 3.64131,2.081622 c 2.00272,1.144893 8.97381,5.14734 15.49131,8.894328 6.5175,3.746988 14.91168,8.567613 18.65373,10.712502 l 6.80373,3.899799 1.09033,-0.394272 c 0.97154,-0.351312 1.20915,-0.329748 2.18067,0.197892 1.59264,0.86497 1.78193,1.95124 0.81987,4.704884 -0.64326,1.84114 -0.69683,2.23182 -0.34087,2.48586 0.23228,0.16578 1.04563,0.73739002 1.80744,1.27023002 0.7618,0.53286 1.3851,1.15049 1.3851,1.37252998 0,0.22204 -2.565,4.62886 -5.7,9.79293 -3.135,5.16407 -5.7,9.49325 -5.7,9.62038 0,0.12714 0.17877,0.29976 0.39727,0.38361 0.50856,0.19515 2.41694,3.389775 2.90083,4.855995 0.20384,0.61764 0.31018,1.85181 0.23631,2.7426 l -0.13431,1.61962 1.49063,0.44267 c 1.46169,0.43408 1.52708,0.42527 3.36784,-0.45324 1.04347,-0.498 2.39113,-0.90124 3.03432,-0.90792 l 1.15711,-0.012 -0.825,-0.44757 c -0.77818,-0.42217 -0.825,-0.56614 -0.825,-2.53682 l 0,-2.08926 6.525,-10.494885 c 3.58875,-5.77218 6.70955,-10.56704 6.93511,-10.65522 0.4483,-0.17527 27.27868,15.96663 27.73103,16.68375 0.20103,0.3187 -1.20166,3.594935 -5.04831,11.791205 -5.17716,11.03129 -5.31378,11.37196 -4.86675,12.13635 0.25296,0.43256 6.49421,11.78897 13.86943,25.23647 12.82822,23.39014 13.42824,24.55404 13.84209,26.85 0.69153,3.83646 0.65901,3.75 1.41077,3.75 0.37782,0 0.91013,0.16875 1.18291,0.375 0.47263,0.357358 5.61871,9.093588 5.61871,9.538598 0,0.802 -1.98924,0.9005 -32.72238,1.6202 -17.56018,0.41123 -33.83807,0.83501 -36.17309,0.94173 -4.19602,0.1918 -4.26247,0.1848 -5.70483,-0.60023 -0.91533,-0.49818 -1.82771,-1.33408 -2.44747,-2.24228 l -0.98812,-1.44801 -2.27731,-0.1925 c -3.94808,-0.33374 -3.89773,-0.34555 -4.61496,1.08249 -0.3522,0.70125 -0.98328,1.73207 -1.40241,2.2907 l -0.76204,1.0157 -2.43743,-0.18736 c -5.51174,-0.42366 -5.52594,-0.42997 -6.0049,-2.66904 -0.13103,-0.61255 -0.35592,-0.825 -0.87328,-0.825 -0.54957,0 -0.77058,0.24626 -1.04597,1.16545 -0.41824,1.39596 -0.773,1.52486 -4.21225,1.53046 -2.50448,0.004 -2.52241,-0.001 -3.76868,-1.15017 l -1.25222,-1.15426 -14.49264,-0.21942 c -7.97096,-0.12068 -14.59862,-0.10751 -14.72814,0.0292 -0.28068,0.29639 -1.29717,5.19338 -1.11569,5.37486 0.13251,0.1325 21.8869,1.31888 24.24148,1.322 2.4524,0.003 2.35803,-0.26915 3.31451,9.56809 0.46878,4.82125 0.92486,8.88329 1.01352,9.02674 0.0887,0.14346 0.56853,0.3503 1.06638,0.45964 0.79969,0.17564 1.26086,-0.0704 3.9565,-2.11063 2.98542,-2.25957 3.06182,-2.29647 3.53774,-1.70873 0.29676,0.36648 0.68233,1.97787 0.98882,4.13248 0.27632,1.94246 0.5367,3.55818 0.57863,3.59047 0.14896,0.11472 28.73592,-0.36616 28.84126,-0.48516 0.0589,-0.0666 0.38389,-0.7551 0.7221,-1.53001 0.55011,-1.26042 0.76766,-1.45406 2.0639,-1.83705 l 1.44898,-0.42813 -0.0914,-2.23756 c -0.0693,-1.69653 0.0161,-2.32686 0.35355,-2.60687 0.24475,-0.20313 1.69039,-0.55645 3.21253,-0.78516 2.28464,-0.34328 2.93044,-0.34778 3.70114,-0.0258 1.27293,0.53186 2.69032,2.21833 3.33903,3.97292 0.29619,0.80109 0.6384,1.59153 0.76049,1.75654 0.13974,0.18885 1.9032,0.24402 4.75997,0.14889 4.98853,-0.16611 4.93445,-0.14389 5.27623,-2.16691 0.40527,-2.39879 -0.49133,-2.23034 15.2885,-2.8723 7.755,-0.31549 14.26875,-0.51105 14.475,-0.43456 0.20625,0.0765 0.375,0.39645 0.375,0.71103 0,0.48709 -4.24277,8.81315 -16.94194,33.24708 -1.32443,2.54829 -2.55655,4.67903 -2.73803,4.735 -0.18149,0.056 -0.49622,-0.0986 -0.69941,-0.34338 z m 108.09378,-56.30411 c -0.18424,-0.23141 -0.96582,-1.59664 -1.73685,-3.03386 l -1.40187,-2.61311 0.65352,-1.28689 c 1.91554,-3.772038 35.8204,-65.867918 36.20683,-66.311878 0.34485,-0.39619 0.92113,-0.525 2.34878,-0.525 2.05927,0 2.71223,0.40293 3.4193,2.10996 0.53094,1.2818 1.08468,1.30355 2.01684,0.0792 1.92723,-2.53126 1.88952,-2.51234 4.64301,-2.32761 1.36731,0.0917 8.61024,0.42668 16.09533,0.74433 8.68131,0.36841 13.75428,0.69786 14.00967,0.90981 0.2202,0.18275 0.56496,0.82772 0.76614,1.43327 l 0.36582,1.101 0.42705,-1.05 c 0.84108,-2.06785 0.92499,-2.1 5.48178,-2.1 3.29337,0 4.19148,0.09 4.49025,0.45 0.28827,0.34733 0.29256,0.5475 0.0189,0.87736 -0.28737,0.34625 -1.08402,0.39491 -4.19814,0.25641 l -3.84348,-0.17093 -0.50502,1.52049 c -0.5826,1.75407 -1.06089,2.25217 -2.03064,2.1147 -0.501,-0.071 -0.89325,-0.53191 -1.42383,-1.67303 -0.64821,-1.39414 -0.83769,-1.5756 -1.65,-1.58021 -0.50472,-0.003 -6.79017,-0.27052 -13.96767,-0.59479 -17.83584,-0.80579 -15.88026,-0.91607 -17.28891,0.975 -1.74444,2.34189 -3.36078,2.36818 -4.61109,0.075 -0.74794,-1.37178 -0.75404,-1.37532 -2.21939,-1.28779 l -1.46939,0.0878 -17.98595,33 -17.98594,32.999998 1.15533,2.25 1.15534,2.25 2.4,0 c 6.11108,0 37.812,-0.47435 42.90516,-0.64199 5.19432,-0.17099 5.74398,-0.14103 6.13866,0.33456 0.97956,1.18028 0.20253,1.25139 -15.96055,1.46049 -8.4608,0.10946 -20.04091,0.28663 -25.73358,0.39372 -8.69017,0.16347 -10.40403,0.12721 -10.68529,-0.22604 z m -55.70552,-2.1154 c -2.34048,-4.22926 -34.06986,-62.595578 -34.67155,-63.778448 l -0.64759,-1.2731 2.74077,-5.1769 c 1.50743,-2.84729 3.31434,-6.25689 4.01537,-7.57689 0.70102,-1.32 3.39954,-6.45 5.99671,-11.399995 2.59718,-4.95 4.91462,-9.2025 5.14988,-9.45 0.34754,-0.36562 1.7311,-0.47813 7.37854,-0.6 l 6.95079,-0.15 1.04713,-1.76609 1.04712,-1.76609 -0.65802,-1.14334 c -0.55199,-0.95911 -0.65803,-1.6064 -0.65803,-4.01680998 l 0,-2.87346002 1.37715,-1.37715 c 1.35862,-1.35863 1.39732,-1.37448 2.87624,-1.1783 1.68976,0.22416 1.78451,-0.24232 0.11292,-0.55591 -1.16147,-0.21789 -2.26631,-1.392724 -2.26631,-2.409874 0,-0.36085 0.40124,-1.186396 0.89165,-1.83454 1.09888,-1.452309 1.11555,-1.918035 0.12896,-3.601518 l -0.77938,-1.329918 2.18128,-3.973503 c 1.1997,-2.185428 5.17289,-9.373503 8.82931,-15.973503 3.65641,-6.6 8.9233,-16.1175 11.70419,-21.15 10.88758,-19.702966 10.85386,-19.645146 11.51485,-19.745865 1.06731,-0.162633 0.75843,0.846759 -1.51101,4.937851 -1.17708,2.121908 -3.52103,6.355514 -5.20878,9.408014 -1.68775,3.0525 -7.92688,14.325 -13.86474,25.05 -5.93785,10.725 -11.02444,19.942752 -11.30352,20.483898 -0.49536,0.96051 -0.48821,1.018068 0.30079,2.421669 0.92439,1.64445 0.85276,2.479806 -0.33351,3.889617 -0.87791,1.043338 -0.96295,1.810268 -0.22509,2.029958 0.48166,0.14341 2.59621,1.06992 3.675,1.610244 0.2475,0.12396 0.49122,0.7065 0.54159,1.29452 0.11661,1.36115 -0.41282,1.55888 -3.41951,1.27713 -2.13597,-0.20015 -2.22847,-0.18105 -2.96343,0.61199 -0.66854,0.72136 -0.75865,1.08062 -0.75865,3.02463002 0,1.84158998 0.13459,2.44708998 0.81467,3.66517998 l 0.81467,1.45915 -1.36662,2.35032 c -0.75165,1.29267 -1.557,2.45207 -1.78968,2.57645 -0.23267,0.12437 -3.51892,0.33393 -7.30277,0.46569 l -6.87973,0.23956 -7.45939,14.099995 c -4.10266,7.755 -7.93715,15.045 -8.52107,16.2 l -1.06169,2.1 17.7083,32.55 17.7083,32.549998 6.3925,0.0728 c 3.51588,0.0401 11.98965,-0.0274 18.83061,-0.15 l 12.43809,-0.22282 0.55869,-2.80322 c 0.30728,-1.54176 0.51514,-2.84492 0.46191,-2.8959 -0.0532,-0.051 -1.2319,0.10428 -2.61926,0.34503 -2.18376,0.37895 -2.5799,0.38029 -2.95017,0.01 -0.37028,-0.37028 -0.36098,-0.6243 0.0692,-1.89182 0.27333,-0.80526 0.84125,-1.915618 1.26207,-2.467458 0.6445,-0.84519 0.73687,-1.20941 0.58595,-2.31052 -0.27578,-2.01198 -1.2841,-4.60046 -2.02613,-5.20132 -1.14357,-0.926 -0.57659,-1.43214 1.79431,-1.60178 2.76589,-0.1979 5.57396,-1.47767 5.32566,-2.42716 -0.0898,-0.34356 -0.0333,-0.78134 0.12563,-0.97285 0.19334,-0.23296 0.10286,-0.58563 -0.27338,-1.06561 -0.3093,-0.39457 -0.87017,-1.43443 -1.24639,-2.31079 l -0.68402,-1.59339 0.59995,-0.80661 c 1.01779,-1.36841 1.66548,-1.20251 3.22677,0.82651 l 1.39805,1.81687 2.12205,0 c 3.07254,0 4.73615,-1.12319 4.74747,-3.20528 0.007,-1.21171 0.38479,-1.64507 1.34245,-1.53826 0.809,0.0902 1.18227,-0.47507 10.53618,-15.95646 5.3336,-8.8275 9.7018,-16.26765 9.70712,-16.53367 0.005,-0.26602 -3.51943,-7.34192 -7.83276,-15.72422 -6.0504,-11.758035 -7.77421,-15.349265 -7.54394,-15.716325 0.20195,-0.32192 0.84624,-0.50487 1.99241,-0.56575 l 1.69395,-0.09 0,-2.77769 c 0,-1.97789 -0.12682,-2.94537 -0.44046,-3.36003 -0.57895,-0.76544 -0.57561,-1.60663 0.007,-1.83029 0.46989,-0.18032 3.39324,1.22182 3.80362,1.82434 0.12122,0.17799 0.22247,0.83383 0.225,1.45744 0.004,0.86972 0.29013,1.49505 1.23045,2.68465 1.04464,1.32157 1.20398,1.70831 1.07786,2.61617 -0.12495,0.89952 0.27963,1.91691 2.59914,6.53592 l 2.74714,5.470555 11.57414,0.004 11.57416,0.004 0.99639,-1.425 c 1.52583,-2.18215 1.50744,-2.175 5.59122,-2.175 4.18074,0 4.04184,-0.067 5.55222,2.68031 l 0.97599,1.77534 2.41794,0.17388 c 1.32987,0.0956 5.79294,0.30611 9.91794,0.4677 4.125,0.1616 9.08688,0.37828 11.02638,0.48153 l 3.52638,0.18771 0.78054,-1.70489 c 0.42927,-0.9377 0.97038,-1.77775 1.20243,-1.8668 0.65001,-0.24944 1.31427,0.4831 1.31427,1.44938 0,1.05355 0.76143,1.42739 3.52563,1.73106 2.15211,0.23643 2.8467,0.68102 2.15094,1.37679 -0.36819,0.36818 -0.83283,0.39937 -2.61552,0.17552 -1.19226,-0.14971 -2.66328,-0.52934 -3.26889,-0.84362 l -1.10112,-0.57143 -0.80388,0.89972 -0.80391,0.89971 -13.16664,-0.516 c -7.24164,-0.2838 -13.59858,-0.58382 -14.12655,-0.66672 -0.83142,-0.13055 -1.12539,-0.45046 -2.196,-2.38996 l -1.2361,-2.23924 -3.08085,0 -3.08085,0 -1.39782,1.8 -1.39782,1.8 -12.25382,0 c -11.29609,0 -12.28956,-0.041 -12.71112,-0.525 -0.25151,-0.28875 -1.76887,-3.12053 -3.37191,-6.292825 -2.48505,-4.91778 -2.88429,-5.90587 -2.70889,-6.70445 0.17163,-0.78141 0.0581,-1.09331 -0.68508,-1.88217 -0.48994,-0.52005 -1.03947,-1.21555 -1.22118,-1.54555 -0.26844,-0.4875 -0.33209,-0.23107 -0.33951,1.36766 -0.005,1.10559 -0.17651,2.19658 -0.39117,2.49015 -0.21421,0.29295 -0.99633,0.61468 -1.78032,0.73234 l -1.39826,0.20985 7.4847,14.549995 c 4.11659,8.0025 7.56625,14.85927 7.66592,15.23726 0.14204,0.53872 -1.81922,4.00784 -9.07381,16.05 -5.09026,8.44951 -9.7183,16.14194 -10.28454,17.09431 -0.57118,0.96068 -1.30824,1.8056 -1.65558,1.89786 -0.34567,0.0918 -0.89479,0.71849 -1.22606,1.39922 -0.90279,1.85512 -3.14033,2.90624 -6.20492,2.91486 l -2.30491,0.006 -1.13008,-1.425 c -1.67431,-2.11127 -1.6789,-2.11485 -1.18167,-0.92382 0.25285,0.60564 0.86739,1.70522 1.36565,2.4435 1.30158,1.92858 1.20202,2.55622 -0.62668,3.95081 -1.45618,1.1105 -4.00598,2.22352 -5.14239,2.24471 -0.68118,0.0127 -0.66186,0.52383 0.10558,2.79426 0.51204,1.51482 0.60805,2.38922 0.51068,4.65105 l -0.11991,2.785508 0.83932,-0.16051 c 0.46163,-0.0883 1.22282,-0.23401 1.69153,-0.32385 1.57017,-0.30095 1.68627,0.27877 0.90827,4.53545 -0.38152,2.08746 -0.8553,4.01644 -1.05284,4.28664 -0.32495,0.44444 -2.23068,0.50129 -20.00175,0.59659 l -19.64258,0.10535 -1.05442,-1.90535 z"
       id="path3648"
       inkscape:connector-curvature="0" />
  </g>
</svg>
