<?xml version="1.0" encoding="UTF-8" standalone="no"?>
<!-- Created with Inkscape (http://www.inkscape.org/) -->

<svg
   xmlns:dc="http://purl.org/dc/elements/1.1/"
   xmlns:cc="http://creativecommons.org/ns#"
   xmlns:rdf="http://www.w3.org/1999/02/22-rdf-syntax-ns#"
   xmlns:svg="http://www.w3.org/2000/svg"
   xmlns="http://www.w3.org/2000/svg"
   xmlns:sodipodi="http://sodipodi.sourceforge.net/DTD/sodipodi-0.dtd"
   xmlns:inkscape="http://www.inkscape.org/namespaces/inkscape"
   width="66.027275mm"
   height="69.069183mm"
   viewBox="0 0 233.95491 244.73333"
   id="svg3780"
   version="1.1"
   inkscape:version="0.91 r13725"
   sodipodi:docname="500.svg">
  <defs
     id="defs3782" />
  <sodipodi:namedview
     id="base"
     pagecolor="#ffffff"
     bordercolor="#666666"
     borderopacity="1.0"
     inkscape:pageopacity="0.0"
     inkscape:pageshadow="2"
     inkscape:zoom="0.35"
     inkscape:cx="889.12031"
     inkscape:cy="-123.34758"
     inkscape:document-units="px"
     inkscape:current-layer="layer1"
     showgrid="false"
     inkscape:window-width="1600"
     inkscape:window-height="851"
     inkscape:window-x="0"
     inkscape:window-y="25"
     inkscape:window-maximized="1"
     fit-margin-top="0"
     fit-margin-left="0"
     fit-margin-right="0"
     fit-margin-bottom="0" />
  <metadata
     id="metadata3785">
    <rdf:RDF>
      <cc:Work
         rdf:about="">
        <dc:format>image/svg+xml</dc:format>
        <dc:type
           rdf:resource="http://purl.org/dc/dcmitype/StillImage" />
        <dc:title></dc:title>
      </cc:Work>
    </rdf:RDF>
  </metadata>
  <g
     inkscape:label="Layer 1"
     inkscape:groupmode="layer"
     id="layer1"
     transform="translate(514.12031,-164.2813)">
    <path
       style="fill:#000000"
       d="m -443.59089,408.87905 c -0.20625,-0.0832 -0.375,-0.58562 -0.375,-1.11644 0,-0.731 0.35628,-1.36484 1.46874,-2.613 1.3816,-1.55012 1.44452,-1.6916 1.06063,-2.38488 -0.22446,-0.40535 -0.41289,-0.94744 -0.41874,-1.20463 -0.006,-0.2572 2.47778,-4.43436 5.51916,-9.28259 l 5.5298,-8.81495 -1.4798,-1.70815 c -0.81388,-0.93949 -1.47979,-1.85382 -1.47979,-2.03186 0,-0.5241 1.06552,-0.94327 2.45528,-0.96591 0.7121,-0.0116 1.54422,-0.11926 1.84917,-0.23925 0.30494,-0.11999 2.95374,-3.9189 5.88621,-8.44201 4.06041,-6.26289 5.50968,-8.27143 6.07792,-8.42341 0.41039,-0.10975 3.06034,-0.37066 5.88879,-0.5798 4.52051,-0.33424 5.14263,-0.44279 5.14263,-0.89728 0,-0.45019 -0.26184,-0.50152 -2.025,-0.39695 -1.97706,0.11726 -62.59423,2.40766 -67.49868,2.55042 -2.67614,0.0779 -3.59136,-0.27847 -2.76346,-1.07605 0.35325,-0.34032 7.37972,-0.68692 36.61585,-1.80621 19.89828,-0.76179 36.38807,-1.30473 36.64396,-1.20653 0.51504,0.19764 0.96595,2.42784 0.65481,3.23867 -0.252,0.65671 -0.51287,0.70354 -6.85094,1.23004 -2.9554,0.2455 -5.48776,0.56067 -5.62747,0.70038 -0.13971,0.13971 -2.64943,3.95865 -5.57716,8.48654 l -5.32315,8.23253 -1.58142,0.0909 -1.58142,0.0909 1.05704,1.28998 c 0.58137,0.70949 1.05704,1.5261 1.05704,1.81469 0,0.28859 -2.43,4.39742 -5.4,9.13073 -2.97,4.7333 -5.4,8.8205 -5.4,9.08265 0,0.26216 0.2025,0.6447 0.45,0.85011 0.63335,0.52564 0.55994,1.19217 -0.225,2.04293 l -0.675,0.7316 0.75,-0.26227 c 0.4125,-0.14424 1.59375,-0.256 2.625,-0.24835 1.03125,0.008 1.87021,-0.0599 1.86437,-0.15 -0.006,-0.0901 -0.20356,-0.50141 -0.43937,-0.91391 -0.23581,-0.4125 -0.43352,-1.00831 -0.43937,-1.32402 -0.0119,-0.64115 5.77623,-8.51302 6.44951,-8.77138 0.23601,-0.0906 1.03663,0.0423 1.77915,0.29534 2.23168,0.76041 2.13587,-0.32109 -0.22148,-2.49994 l -1.4606,-1.35 7.08301,-10.35 c 3.89566,-5.6925 7.34037,-10.64624 7.6549,-11.00831 0.68257,-0.78572 0.48367,-0.74985 10.50488,-1.89441 4.3725,-0.4994 8.44762,-0.98349 9.05583,-1.07577 0.98217,-0.14901 1.34743,-0.49229 3.26622,-3.06964 1.18821,-1.59603 2.50459,-3.27312 2.92529,-3.72687 l 0.76491,-0.825 5.30714,0 c 3.9708,0 5.38812,0.0976 5.62871,0.38746 0.18676,0.22504 0.51623,4.08153 0.78592,9.19919 0.25539,4.84644 0.53683,8.8842 0.62542,8.97279 0.197,0.19701 38.23391,-1.05279 38.4443,-1.26318 0.0824,-0.0824 -1.62633,-3.19299 -3.79719,-6.91242 l -3.94701,-6.7626 -10.85477,-0.0856 c -8.94971,-0.0706 -11.01272,-0.16499 -11.75477,-0.53784 -1.16303,-0.58438 -1.29581,-1.64426 -0.37682,-3.00811 l 0.70056,-1.03967 12.32582,-0.0783 c 11.40602,-0.0724 12.37082,-0.0389 12.92877,0.45 0.33162,0.29056 2.72673,4.1733 5.32248,8.6283 2.59574,4.455 5.01739,8.505 5.38145,9 0.36405,0.495 0.73793,1.1025 0.83084,1.35 0.14427,0.38434 24.85054,15.2787 26.20759,15.79945 0.35791,0.13734 0.24707,-0.27758 -0.43521,-1.62917 l -0.91543,-1.81344 1.98489,-3.85342 c 2.29125,-4.44821 3.02124,-5.57797 3.50096,-5.41826 0.76618,0.25508 0.44242,1.3045 -1.59119,5.15765 l -2.13048,4.03667 1.53119,3.05124 c 1.34552,2.68128 1.47784,3.1046 1.09122,3.49121 -0.38661,0.38661 -0.94417,0.13969 -4.5983,-2.03644 -2.28709,-1.36202 -8.81584,-5.23716 -14.50834,-8.61141 -5.6925,-3.37426 -10.70408,-6.46761 -11.13684,-6.87412 l -0.78684,-0.7391 -18.11316,0.61386 c -9.96224,0.33762 -19.94148,0.69765 -22.1761,0.80008 -3.52998,0.16181 -4.11592,0.12239 -4.46686,-0.30046 -0.29354,-0.3537 -0.5197,-2.84182 -0.82763,-9.10551 -0.23304,-4.74036 -0.47997,-8.78758 -0.54872,-8.99383 -0.0925,-0.27748 -1.27987,-0.375 -4.56589,-0.375 l -4.44087,0 -2.4881,3.2712 c -1.36845,1.79916 -2.74375,3.50256 -3.05622,3.78534 -0.44399,0.40181 -2.68458,0.76706 -10.25544,1.6718 -5.32803,0.63671 -9.78139,1.16081 -9.89635,1.16466 -0.18946,0.006 -13.7397,19.55629 -14.00271,20.20275 -0.0615,0.15104 0.45761,0.76504 1.15347,1.36444 1.06279,0.91546 1.29009,1.31076 1.42079,2.47088 0.27327,2.42554 -0.6803,3.21813 -2.64773,2.20073 -0.49798,-0.25752 -1.15119,-0.42627 -1.45158,-0.375 -0.30039,0.0513 -1.69579,1.6449 -3.10089,3.54142 l -2.55473,3.44822 0.9251,1.66997 c 1.37534,2.48274 1.16815,2.71027 -2.26277,2.4849 -3.06257,-0.20117 -3.27874,-0.13944 -5.53049,1.57936 -1.36654,1.0431 -1.46675,1.08199 -2.11444,0.82065 z m 110.025,-33.66068 c 0,-0.14265 -2.14366,-3.8889 -4.76368,-8.325 l -4.76368,-8.06564 -4.46132,-0.18627 c -2.45373,-0.10245 -7.71854,-0.2037 -11.69959,-0.225 -6.18854,-0.0331 -7.29395,0.0284 -7.62228,0.42398 -0.22972,0.2768 -0.27462,0.57144 -0.11174,0.73331 0.14976,0.14882 5.22555,0.36645 11.27955,0.48361 6.05399,0.11717 11.13609,0.29343 11.29356,0.3917 0.30062,0.18761 8.18784,13.59588 8.53156,14.50367 0.13759,0.36336 0.52497,0.525 1.25821,0.525 0.58267,0 1.05941,-0.11671 1.05941,-0.25936 z m 38.29046,-4.56241 c -1.02742,-0.80817 -0.99676,-1.2177 0.18454,-2.46489 l 0.975,-1.02938 4.5,-0.20301 c 2.475,-0.11165 5.07294,-0.28074 5.7732,-0.37577 l 1.2732,-0.17277 -1.6482,-3.07274 c -0.90651,-1.69001 -1.6482,-3.22149 -1.6482,-3.40328 0,-0.18179 0.945,-1.09405 2.1,-2.02725 1.155,-0.9332 2.1,-1.81652 2.1,-1.96293 0,-0.54221 -2.16785,-0.24193 -3.64034,0.50423 -0.83622,0.42375 -1.70943,0.69791 -1.94047,0.60925 -0.23104,-0.0887 -0.64077,-0.624 -0.91051,-1.18965 -0.48637,-1.01993 -0.47998,-1.04974 0.77284,-3.60238 0.84451,-1.72071 1.19849,-2.77804 1.06785,-3.18965 -0.19031,-0.59961 -0.23692,-0.59195 -1.78391,0.29315 -2.15292,1.23177 -2.63662,1.17558 -3.79767,-0.44116 -0.53323,-0.7425 -1.06202,-1.35 -1.1751,-1.35 -0.11308,0 -1.45979,1.9575 -2.99269,4.35 l -2.78709,4.35 -1.38146,2.8e-4 c -2.10092,3e-4 -22.28786,-1.18891 -23.04425,-1.35769 -0.69719,-0.15557 -3.9872,-5.26971 -3.9872,-6.19789 0,-0.26355 0.26704,-1.06767 0.59341,-1.78694 0.32638,-0.71927 0.59638,-1.82707 0.6,-2.46179 l 0.007,-1.15402 -1.275,1.40176 c -0.82362,0.90551 -1.43499,1.33917 -1.72693,1.22496 -0.24857,-0.0972 -1.42959,-1.91501 -2.6245,-4.0395 l -2.17256,-3.86272 -6.5255,-0.20262 c -3.58905,-0.11144 -6.69427,-0.25715 -6.90052,-0.32381 -0.26337,-0.0851 -0.375,-0.92771 -0.375,-2.83061 l 0,-2.70941 -1.35964,0 c -0.74779,0 -1.79571,0.1822 -2.3287,0.4049 -0.93866,0.3922 -0.98505,0.49732 -1.47834,3.34987 -0.2801,1.61972 -0.68343,3.05545 -0.8963,3.1905 -0.51721,0.32814 -3.39635,0.30782 -4.87213,-0.0344 -0.6518,-0.15114 -1.39753,-0.55644 -1.65718,-0.90066 -0.3439,-0.45591 -0.56186,-0.53607 -0.80273,-0.2952 -0.18186,0.18186 -1.89586,0.40774 -3.80889,0.50196 -3.78446,0.18638 -4.66375,-0.0563 -4.08979,-1.12876 0.16154,-0.30183 0.2937,-0.82879 0.2937,-1.17104 0,-0.5496 -0.0714,-0.57818 -0.61114,-0.24472 -0.33613,0.20765 -0.68505,0.66849 -0.77538,1.02409 -0.0903,0.3556 -0.48271,0.94574 -0.87196,1.31141 l -0.70771,0.66486 -11.71001,-0.22237 c -9.40055,-0.17851 -11.77797,-0.30424 -12.05454,-0.63749 -0.27321,-0.3292 0.58177,-1.82739 4.13115,-7.23904 2.46162,-3.75316 7.10231,-10.83583 10.31263,-15.73927 3.21033,-4.90345 6.01426,-8.98624 6.23096,-9.07288 0.21671,-0.0866 0.75671,0.0269 1.2,0.25235 1.22531,0.6231 2.156,0.85834 2.156,0.54494 0,-0.15475 -0.53988,-0.8051 -1.19973,-1.44522 -0.89635,-0.86953 -1.19981,-1.40147 -1.2,-2.10355 -2e-4,-0.69612 -0.31133,-1.25076 -1.20027,-2.1397 -0.75681,-0.75681 -1.2,-1.47562 -1.2,-1.94628 0,-0.66441 -0.15149,-0.76335 -1.38092,-0.90193 -0.75951,-0.0856 -1.59484,-0.36957 -1.85629,-0.63102 -0.43383,-0.43383 -0.60809,-0.27288 -1.99408,1.84163 -1.73908,2.65321 -2.3333,2.89235 -4.99241,2.00914 -2.63963,-0.87675 -2.75096,-0.38474 -0.4399,1.94417 1.44113,1.45225 2.00287,2.22563 1.89809,2.61321 -0.0819,0.30277 -2.54694,4.02827 -5.47796,8.27889 -3.58639,5.20103 -5.53801,7.77414 -5.96783,7.8683 -0.35129,0.0769 -2.51345,0.28835 -4.80481,0.46978 -5.66516,0.44857 -5.57532,0.56157 -3.37152,-4.24046 0.9282,-2.02251 1.68763,-3.78862 1.68763,-3.92467 0,-0.13607 -0.61784,0.22422 -1.37298,0.80063 -1.3721,1.04735 -1.75571,1.15594 -3.72702,1.05509 -1.70467,-0.0872 -2.20934,-0.6179 -2.81751,-2.96273 -0.59582,-2.29719 -0.47813,-2.20325 -3.18249,-2.54039 -0.52521,-0.0655 -0.59024,-0.19025 -6.43882,-12.35395 -2.45941,-5.115 -5.78269,-12.01889 -7.38506,-15.34199 -4.25895,-8.83245 -4.13057,-7.31891 -1.0713,-12.62958 1.42735,-2.47777 2.59518,-4.58905 2.59518,-4.69173 0,-0.10268 -0.18496,-0.18669 -0.41101,-0.18669 -0.23214,0 -0.57829,0.59745 -0.79538,1.37281 -0.55163,1.97026 -1.25667,2.33536 -4.1826,2.16598 -3.27309,-0.18947 -3.79884,-0.72697 -4.21187,-4.30604 -0.19648,-1.7026 -0.6573,-2.54958 -7.30443,-13.42541 -3.90249,-6.38447 -7.09511,-11.81155 -7.09511,-12.06015 0,-0.47698 18.45346,-28.33907 19.02007,-28.71759 0.41955,-0.28027 11.92947,-0.26578 13.52993,0.017 0.98213,0.17356 1.30894,0.41536 1.8,1.33183 0.33,0.61588 0.735,1.07962 0.9,1.03055 0.165,-0.0491 0.59762,-0.70494 0.96138,-1.45749 l 0.66137,-1.36828 3.38863,-0.18697 c 1.86374,-0.10283 7.16862,-0.27526 11.78862,-0.38317 4.62,-0.10791 8.62267,-0.27875 8.89481,-0.37965 0.41485,-0.1538 0.16851,-0.75299 -1.52441,-3.70786 -1.11056,-1.93842 -2.09615,-3.60134 -2.19018,-3.69537 -0.094,-0.094 -1.83805,-0.0139 -3.87559,0.17797 -3.28734,0.30963 -3.86643,0.45144 -5.14104,1.25897 -0.79002,0.50051 -1.3822,0.96423 -1.31594,1.03049 0.0662,0.0662 1.71816,0.31866 3.6709,0.56089 3.66601,0.45478 4.23854,0.66908 3.9307,1.47129 -0.21897,0.57064 -1.65035,0.59291 -10.24751,0.15942 -5.04252,-0.25425 -6.07503,-0.38504 -6.48006,-0.82085 -0.26499,-0.28512 -4.00007,-6.9984 -8.30018,-14.9184 -4.30011,-7.92 -8.30264,-15.2775 -8.89452,-16.35 -0.59188,-1.0725 -1.77039,-3.24571 -2.61891,-4.82936 l -1.54278,-2.87936 -7.68264,-0.19621 c -7.81758,-0.19965 -40.54023,-0.31201 -40.65835,-0.1396 -1.19077,1.73803 -11.13381,13.44453 -11.41925,13.44453 -0.22496,0 -0.82437,-0.3495 -1.33203,-0.77667 l -0.92302,-0.77667 0.0106,1.00167 c 0.006,0.55092 0.19586,1.33627 0.42225,1.74523 0.3496,0.63153 0.34846,0.86569 -0.007,1.55407 -0.23052,0.44578 -4.06762,6.37534 -8.52689,13.1768 -4.45926,6.80146 -8.04225,12.4318 -7.96218,12.51187 0.16653,0.16653 8.1213,0.93271 9.87735,0.95135 l 1.16365,0.0124 -0.1929,-1.45414 c -0.1599,-1.20536 -0.0858,-1.59031 0.43313,-2.25 0.8102,-1.03002 2.59576,-1.07804 4.4939,-0.12086 1.13636,0.57303 1.40161,0.88476 1.75588,2.06354 l 0.4173,1.38854 4.77025,0.21618 c 5.46908,0.24785 5.32087,0.16769 6.02252,3.25714 0.21598,0.95101 0.52318,1.70582 0.68266,1.67737 0.15948,-0.0284 0.50211,-0.82678 0.76142,-1.77405 0.42303,-1.54544 0.97585,-2.29645 5.38303,-7.31302 l 4.91158,-5.59071 6.46696,-0.005 c 3.55683,-0.003 8.82947,-0.0874 11.71697,-0.18782 4.85448,-0.16891 5.29899,-0.14027 5.90028,0.38014 0.76631,0.66324 6.39972,10.65138 6.39972,11.34682 0,0.84982 -7.80359,14.8227 -8.3354,14.92512 -0.73587,0.14171 -8.28416,-0.51219 -8.67081,-0.75115 -0.1817,-0.1123 -1.38204,-1.99378 -2.66742,-4.18107 -3.62428,-6.16734 -4.32637,-7.45133 -4.32637,-7.91216 0,-0.23519 0.36918,-0.98548 0.8204,-1.66733 l 0.82041,-1.23971 7.50459,0.19666 c 8.26337,0.21656 8.25958,0.21558 8.25001,2.12797 -0.009,1.77865 -0.0488,1.79153 -6.56087,2.11766 l -5.99025,0.3 2.32702,3.45 2.32702,3.45 2.10517,0.0872 2.10517,0.0872 3.05343,-5.5783 c 1.67938,-3.06807 2.96205,-5.73982 2.85037,-5.93723 -0.11168,-0.1974 -1.15361,-1.89527 -2.31541,-3.77304 l -2.11235,-3.41413 -3.46735,0.18538 c -1.90705,0.10195 -5.82986,0.26021 -8.71736,0.35168 -8.14451,0.258 -7.1808,-0.0965 -10.65476,3.91927 -1.64739,1.9043 -2.99524,3.62437 -2.99524,3.82237 0,0.19801 2.14969,4.46168 4.7771,9.47483 l 4.7771,9.11483 -0.70378,0.56989 c -1.55142,1.25626 -1.7912,0.99521 -7.00124,-7.6225 -2.66429,-4.40688 -4.93023,-7.91688 -5.03543,-7.8 -0.1052,0.11688 -0.35339,0.71979 -0.55153,1.33981 -0.6343,1.98476 -2.47635,2.28246 -5.03683,0.81404 -1.4171,-0.8127 -2.13245,-1.63082 -3.25577,-3.72348 -0.36153,-0.67354 -1.01962,-0.97924 -1.01962,-0.47366 0,0.32288 1.39771,2.97711 10.6716,20.2653 2.69778,5.02914 3.65911,7.09063 3.53245,7.575 -0.13503,0.51635 -0.0452,0.66547 0.40096,0.66547 1.09086,0 1.29499,0.59875 1.29499,3.79844 l 0,3.07843 1.125,0.30022 c 0.61875,0.16512 1.99023,0.50086 3.04773,0.74609 1.05751,0.24523 2.03419,0.62159 2.17041,0.83635 0.13622,0.21476 0.24974,1.03172 0.25227,1.81547 l 0.005,1.425 1.05571,0 c 0.94024,0 1.03895,-0.0738 0.90243,-0.675 -0.71504,-3.14866 -0.7284,-3.36062 -0.24534,-3.89439 0.6028,-0.66609 1.68573,-0.68408 2.22547,-0.037 0.22645,0.2715 2.78671,4.55008 5.68946,9.50796 l 5.27773,9.01433 2.97227,-0.0767 c 2.62595,-0.0678 3.12589,0.005 4.29067,0.62451 1.54963,0.82418 2.42776,2.25682 2.44049,3.98155 0.008,1.10014 -0.15907,1.36088 -1.92655,3.00468 l -1.93543,1.8 1.24483,2.55 c 0.68466,1.4025 4.5216,9.22748 8.52654,17.38885 4.00495,8.16138 7.28172,15.0855 7.28172,15.38696 0,0.30145 -0.27,1.07734 -0.6,1.72419 -0.33,0.64685 -0.6,1.28479 -0.6,1.41763 0,0.13285 0.69971,0.49006 1.55492,0.7938 0.85521,0.30374 1.94309,0.94043 2.41752,1.41486 0.72419,0.72418 0.84776,1.06651 0.77008,2.13336 -0.0761,1.0446 -0.2636,1.38567 -1.05377,1.91639 l -0.96125,0.64564 1.90264,0.80863 c 1.64007,0.69704 1.92843,0.93754 2.08945,1.74265 0.2068,1.03402 0.37669,0.7133 -4.88751,9.22704 -1.68336,2.7225 -3.22299,5.11286 -3.42137,5.31191 -0.34853,0.34968 -6.21098,0.66954 -44.48607,2.4272 -6.11895,0.28099 -11.3502,0.46724 -11.625,0.41389 -0.75378,-0.14633 -0.61924,-1.2148 0.17536,-1.39262 0.37125,-0.0831 11.1375,-0.63077 23.925,-1.21709 12.7875,-0.58633 25.00186,-1.16218 27.14303,-1.27967 l 3.89303,-0.21362 3.54986,-5.7 c 1.95242,-3.135 3.74112,-6.05839 3.97489,-6.49642 l 0.42504,-0.79641 -2.61793,-1.04567 c -3.29663,-1.31676 -3.54563,-1.9073 -1.28687,-3.0519 1.28637,-0.65185 1.51895,-0.89977 1.51895,-1.61909 0,-0.69541 -0.20393,-0.93718 -1.125,-1.33369 -0.61875,-0.26637 -1.7057,-0.63144 -2.41545,-0.81128 -0.70975,-0.17985 -1.3718,-0.53898 -1.47123,-0.79809 -0.0994,-0.25911 0.24029,-1.325 0.75494,-2.36864 l 0.93571,-1.89753 -8.53949,-17.45277 c -4.69671,-9.59902 -8.53555,-17.73981 -8.53074,-18.09064 0.006,-0.40764 0.70627,-1.23343 1.94126,-2.28787 1.41805,-1.21074 1.93485,-1.85186 1.94126,-2.40825 0.012,-1.04399 -0.77738,-2.07478 -1.97083,-2.57343 -1.20708,-0.50435 -4.16192,-0.54694 -5.50334,-0.0793 -0.83538,0.29122 -1.04656,0.25951 -1.49833,-0.225 -0.28925,-0.31019 -2.78811,-4.44524 -5.55302,-9.18899 -2.76492,-4.74375 -5.08199,-8.625 -5.14905,-8.625 -0.0671,0 -0.0381,0.71338 0.0644,1.5853 0.15268,1.2991 0.0907,1.66468 -0.34349,2.025 -0.66141,0.54892 -3.55777,0.58952 -4.08996,0.0573 -0.2103,-0.21031 -0.4533,-1.08781 -0.54,-1.95 l -0.15805,-1.56757 -3.25169,-0.79169 c -1.78843,-0.43543 -3.39763,-0.93763 -3.57599,-1.11599 -0.2324,-0.2324 -0.21915,-0.64566 0.0468,-1.45831 0.20409,-0.62371 0.32829,-1.94401 0.27599,-2.93401 l -0.0951,-1.8 -1.14175,-0.0941 c -1.37971,-0.11372 -1.68821,-0.70095 -0.98958,-1.88364 0.411,-0.69577 0.4414,-0.99142 0.1585,-1.54156 -0.19252,-0.37438 -3.5878,-6.7248 -7.54506,-14.11204 -5.93251,-11.07452 -7.13043,-13.5092 -6.82685,-13.875 0.24785,-0.29864 0.93952,-0.44365 2.11614,-0.44365 l 1.74794,0 0.90024,1.88628 c 0.9827,2.05906 2.46909,3.21372 4.13699,3.21372 0.78524,0 0.93153,-0.16139 1.42757,-1.575 0.64023,-1.8245 1.25641,-2.64817 1.81943,-2.43211 0.21847,0.0838 2.10665,2.97723 4.19597,6.42977 2.08931,3.45253 3.86529,6.27734 3.94662,6.27734 0.0813,0 -0.25008,-0.70875 -0.73645,-1.575 -0.48637,-0.86625 -2.12896,-3.97559 -3.6502,-6.90964 -3.23984,-6.24877 -3.4178,-4.97448 1.46826,-10.5135 l 3.26902,-3.70588 4.6016,-0.1994 c 2.53088,-0.10968 7.30582,-0.28673 10.61097,-0.39346 l 6.00938,-0.19404 2.61562,4.16603 c 1.4386,2.29132 2.61563,4.46921 2.61563,4.83977 0,0.37055 -1.4684,3.34254 -3.26312,6.60443 l -3.26313,5.93069 -3.09012,0 -3.09012,0 -2.95673,-4.35 c -1.78463,-2.62558 -2.92304,-4.58785 -2.87176,-4.95 0.0736,-0.51931 0.38754,-0.62498 2.33498,-0.78579 1.2375,-0.10218 4.10625,-0.20343 6.375,-0.225 3.22941,-0.0307 4.125,-0.12654 4.125,-0.44143 0,-0.3179 -1.36796,-0.44376 -6.525,-0.60033 -5.92205,-0.17981 -6.55965,-0.1512 -6.9,0.30956 -0.20625,0.27922 -0.375,0.68098 -0.375,0.89281 0,0.21183 1.3306,2.64717 2.95688,5.41188 3.34674,5.68949 2.75431,5.25277 7.60889,5.60912 l 2.81477,0.20661 2.66122,-4.88871 c 1.46367,-2.6888 3.10393,-5.69872 3.64503,-6.68872 l 0.98382,-1.8 -2.77459,-4.95 -2.77459,-4.95 -11.37431,0 -11.3743,0 -3.85765,4.35 c -5.20801,5.87271 -5.29826,5.99941 -5.79733,8.13873 -0.50506,2.165 -0.83341,2.66127 -1.76077,2.66127 -1.12553,0 -2.14786,-1.226 -2.39462,-2.8717 -0.37772,-2.51905 -0.14321,-2.40926 -5.62257,-2.63237 -5.40596,-0.22012 -5.63988,-0.31121 -5.63988,-2.19635 0,-1.15436 -0.81638,-1.82636 -2.56309,-2.10982 l -1.12655,-0.18281 0.19391,1.47152 c 0.15478,1.17458 0.0739,1.66829 -0.40077,2.44653 -0.32707,0.53625 -0.69791,0.97439 -0.82409,0.97364 -1.30571,-0.008 -13.06457,-1.21586 -13.3099,-1.36748 -0.1793,-0.11082 -0.27002,-0.48942 -0.20158,-0.84133 0.0684,-0.3519 3.98256,-6.53931 8.69806,-13.74979 l 8.57365,-13.10997 -0.40665,-1.14003 c -0.48728,-1.36606 -0.53895,-2.77226 -0.14041,-3.82051 0.38296,-1.00726 1.46936,-1.01526 2.65271,-0.0195 0.49023,0.4125 0.9646,0.75 1.05415,0.75 0.0895,0 2.60612,-2.96922 5.59239,-6.59827 l 5.42956,-6.59827 24.2143,0.16739 c 13.31787,0.0921 24.50164,0.22474 24.85282,0.29483 0.49605,0.099 2.9973,4.46228 11.21042,19.55588 5.81454,10.68564 10.70749,19.59719 10.87322,19.80344 0.4885,0.60795 4.32347,0.49351 5.02649,-0.15 0.31545,-0.28875 1.69356,-1.16009 3.06245,-1.93631 2.33442,-1.3237 2.69375,-1.43235 5.78891,-1.75036 5.73882,-0.58963 5.15258,-0.91519 8.32442,4.62282 2.14053,3.73736 2.66078,4.86627 2.41938,5.25 -0.32626,0.51864 -0.50287,0.52909 -18.45969,1.09155 l -6.81589,0.2135 -0.77306,1.31912 c -1.51452,2.58433 -2.86726,2.72355 -4.04437,0.41623 l -0.60117,-1.17838 -6.3295,-0.0866 c -3.48122,-0.0476 -6.43082,-0.0191 -6.55466,0.0634 -0.37803,0.25183 -17.79666,26.49568 -17.93376,27.01998 -0.0725,0.27703 2.94528,5.50787 6.94509,12.03842 6.36658,10.39481 7.07321,11.67843 7.07321,12.84877 0,0.71511 0.15766,1.73621 0.35035,2.26909 0.37762,1.04431 1.07473,1.32373 3.30246,1.32373 1.06042,0 1.22113,-0.10369 1.6125,-1.04036 0.23908,-0.57221 0.43469,-1.31805 0.43469,-1.65743 0,-0.81715 1.19737,-1.25392 3.12788,-1.14095 1.14144,0.0668 1.54034,0.21423 1.61291,0.59613 0.053,0.27905 -1.19445,2.73283 -2.77219,5.45283 -1.57773,2.72 -2.86001,5.19168 -2.84952,5.49262 0.0105,0.30094 3.6339,8.03966 8.05201,17.19716 l 8.03293,16.65 1.43898,0.20599 c 0.79145,0.1133 1.56078,0.32779 1.70965,0.47666 0.14886,0.14886 0.57414,1.27116 0.94506,2.494 0.61476,2.02671 0.74959,2.23206 1.52459,2.32177 2.17551,0.25186 3.27568,-0.65385 3.47501,-2.86075 0.084,-0.92974 0.313,-1.74325 0.50894,-1.8078 0.52496,-0.17295 1.59375,1.01792 1.59375,1.7758 0,0.36061 0.30015,0.97516 0.667,1.36565 0.64458,0.68612 0.65102,0.75234 0.19142,1.96934 -0.26157,0.69264 -0.96946,2.31908 -1.57309,3.61432 l -1.0975,2.35497 3.53108,-0.21558 c 1.9421,-0.11857 3.6244,-0.27011 3.73844,-0.33677 0.33497,-0.19579 10.14265,-14.4886 10.14265,-14.78097 0,-0.14653 -0.77625,-0.97483 -1.725,-1.84067 -0.94875,-0.86584 -1.9024,-1.8258 -2.11922,-2.13325 -1.27026,-1.80125 1.88294,-2.97459 5.04,-1.87543 1.3249,0.46127 1.35516,0.45717 1.95,-0.26448 0.33232,-0.40316 1.3846,-1.97508 2.33839,-3.49314 1.95544,-3.11229 2.69434,-3.4654 2.86088,-1.36716 0.12348,1.55568 0.40594,1.7975 2.09959,1.7975 1.34323,0 1.409,0.0398 1.48762,0.9 0.16609,1.81713 0.4042,2.26549 1.60604,3.02418 1.10234,0.69587 1.20851,0.86674 1.0454,1.6823 -0.15534,0.77669 0.0132,1.12439 1.16738,2.40808 2.13041,2.36954 1.75075,4.08767 -0.82044,3.71285 -0.70435,-0.10267 -1.6052,-0.21835 -2.00189,-0.25705 -0.64149,-0.0626 -1.75822,1.50559 -10.09773,14.17964 -5.15707,7.8375 -9.28751,14.33472 -9.17876,14.43827 0.10876,0.10355 4.95649,0.26078 10.77274,0.34939 10.54524,0.16067 10.575,0.15937 10.575,-0.45972 0,-0.8456 2.23715,-2.92794 3.14562,-2.92794 0.9224,0 1.65438,1.04242 1.65438,2.356 0,1.01462 0.009,1.02107 1.125,0.83655 0.61875,-0.10227 1.63125,-0.18743 2.25,-0.18925 l 1.125,-0.003 0,-1.31327 c 0,-3.13656 2.34827,-2.3518 3.23166,1.07998 0.24132,0.93746 0.34104,0.99591 2.13969,1.25413 2.25335,0.3235 2.22176,0.35574 2.72518,-2.78117 0.44081,-2.74684 0.69102,-3.27344 1.74671,-3.67612 1.28949,-0.49187 5.22478,-0.84826 5.82421,-0.52745 0.44927,0.24044 0.53255,0.70558 0.53255,2.97445 l 0,2.68945 6.16972,0 c 3.44363,0 6.41177,0.12954 6.71752,0.29317 0.30128,0.16125 1.40277,1.84875 2.44775,3.75 1.04497,1.90126 1.98263,3.45683 2.08368,3.45683 0.10104,0 0.75984,-0.61467 1.46398,-1.36594 0.70415,-0.75127 1.49041,-1.32502 1.74725,-1.275 0.57058,0.11111 1.22061,1.81663 1.23523,3.24094 0.006,0.5775 -0.30905,1.79146 -0.69996,2.6977 -0.3909,0.90623 -0.67503,1.71623 -0.6314,1.8 1.24568,2.39184 2.75859,4.53356 3.27742,4.6396 0.35135,0.0718 4.68881,0.34387 9.63881,0.60457 4.95,0.2607 9.88262,0.55255 10.96138,0.64856 l 1.96138,0.17456 2.66012,-4.1575 c 1.46307,-2.28662 2.98398,-4.49499 3.37981,-4.90749 l 0.71968,-0.75 0.80882,0.92133 c 0.44484,0.50673 1.09722,1.31673 1.44972,1.8 l 0.64092,0.87867 1.79715,-0.975 c 0.98843,-0.53625 2.07901,-0.975 2.42352,-0.975 1.49475,0 1.66479,2.66406 0.34774,5.44806 -0.78929,1.66842 -1.13208,2.95194 -0.78838,2.95194 0.0615,0 0.75641,-0.28511 1.54417,-0.63358 0.99549,-0.44035 1.78839,-0.58581 2.59989,-0.47697 1.53765,0.20624 2.04408,0.67151 2.04408,1.87791 0,0.84645 -0.28893,1.24914 -1.94766,2.71449 l -1.94769,1.72059 1.7973,3.37521 c 1.48977,2.79768 1.90686,4.09986 1.39095,4.34253 -0.0237,0.0111 -2.91743,0.19688 -6.43075,0.41285 -3.51332,0.21597 -6.47227,0.47709 -6.57545,0.58027 -0.10318,0.10318 -0.014,0.51203 0.19823,0.90854 0.72627,1.35705 -0.24507,1.81783 -1.59447,0.75639 z"
       id="path3769"
       inkscape:connector-curvature="0" />
  </g>
</svg>
