<?xml version="1.0" encoding="UTF-8" standalone="no"?>
<!-- Created with Inkscape (http://www.inkscape.org/) -->

<svg
   xmlns:dc="http://purl.org/dc/elements/1.1/"
   xmlns:cc="http://creativecommons.org/ns#"
   xmlns:rdf="http://www.w3.org/1999/02/22-rdf-syntax-ns#"
   xmlns:svg="http://www.w3.org/2000/svg"
   xmlns="http://www.w3.org/2000/svg"
   xmlns:sodipodi="http://sodipodi.sourceforge.net/DTD/sodipodi-0.dtd"
   xmlns:inkscape="http://www.inkscape.org/namespaces/inkscape"
   width="82.168938mm"
   height="75.037628mm"
   viewBox="0 0 291.14978 265.88136"
   id="svg3885"
   version="1.1"
   inkscape:version="0.91 r13725"
   sodipodi:docname="600.svg">
  <defs
     id="defs3887" />
  <sodipodi:namedview
     id="base"
     pagecolor="#ffffff"
     bordercolor="#666666"
     borderopacity="1.0"
     inkscape:pageopacity="0.0"
     inkscape:pageshadow="2"
     inkscape:zoom="0.35"
     inkscape:cx="1200.5749"
     inkscape:cy="-633.26814"
     inkscape:document-units="px"
     inkscape:current-layer="layer1"
     showgrid="false"
     inkscape:window-width="1600"
     inkscape:window-height="851"
     inkscape:window-x="0"
     inkscape:window-y="25"
     inkscape:window-maximized="1"
     fit-margin-top="0"
     fit-margin-left="0"
     fit-margin-right="0"
     fit-margin-bottom="0" />
  <metadata
     id="metadata3890">
    <rdf:RDF>
      <cc:Work
         rdf:about="">
        <dc:format>image/svg+xml</dc:format>
        <dc:type
           rdf:resource="http://purl.org/dc/dcmitype/StillImage" />
        <dc:title></dc:title>
      </cc:Work>
    </rdf:RDF>
  </metadata>
  <g
     inkscape:label="Layer 1"
     inkscape:groupmode="layer"
     id="layer1"
     transform="translate(819.8606,417.72171)">
    <path
       style="fill:#000000"
       d="m -803.23574,-154.72122 c -2.7913,-1.68001 -6.81612,-4.04533 -8.94403,-5.25625 -4.00021,-2.27639 -7.68124,-5.17497 -7.68083,-6.04818 3e-4,-0.72297 1.61579,-4.02601 2.20926,-4.51718 0.38577,-0.31926 1.0605,-0.37118 2.86662,-0.22056 l 2.36209,0.197 0.29137,-0.83582 c 0.16025,-0.45969 3.88666,-6.89917 8.2809,-14.30995 4.39424,-7.41077 7.98953,-13.71118 7.98953,-14.00092 0,-0.28973 0.135,-0.61022 0.3,-0.7122 0.50697,-0.31332 0.33381,-1.67447 -0.35475,-2.78858 l -0.65475,-1.0594 0.69134,-1.97601 c 1.13082,-3.23215 1.22834,-3.32601 3.45554,-3.32601 2.58703,0 3.31315,-0.33046 4.09345,-1.86291 0.36044,-0.7079 11.61621,-19.91709 25.01282,-42.68709 13.3966,-22.77 24.73565,-42.05083 25.19788,-42.84628 l 0.84043,-1.44628 -1.05456,0.19783 c -1.44434,0.27096 -2.3274,-0.65386 -2.3274,-2.43747 0,-1.05734 0.17206,-1.43135 1.03138,-2.24188 l 1.03138,-0.97282 -0.58138,-1.1396 c -0.78565,-1.53999 -0.74643,-1.86331 0.46862,-3.8635 0.869,-1.43053 1.05,-2.01789 1.05,-3.40733 0,-1.94264 0.25421,-2.19725 3.05923,-3.06409 1.88429,-0.58231 2.52037,-0.3776 2.69776,0.86821 0.12621,0.88638 1.32026,0.98389 2.57393,0.2102 0.78465,-0.48425 0.94586,-0.74504 0.80571,-1.30344 -0.21815,-0.86919 0.16318,-1.19691 2.21989,-1.90779 l 1.60652,-0.55528 4.34898,-8.24524 4.34897,-8.24524 -0.57785,-1.05 c -0.89538,-1.62695 -3.0107,-5.38225 -6.08352,-10.8 -1.54415,-2.7225 -3.60181,-6.3675 -4.5726,-8.1 -0.97078,-1.7325 -2.0775,-3.4875 -2.45938,-3.9 -0.38188,-0.4125 -0.84406,-1.04159 -1.02707,-1.39797 -0.22673,-0.44152 -0.74022,-0.71548 -1.61166,-0.85984 -1.85907,-0.30798 -2.30169,-0.62894 -2.94862,-2.13816 -0.84987,-1.98268 -0.76964,-2.78468 0.31971,-3.19586 1.0517,-0.39697 1.13055,-0.80653 0.3,-1.55817 -0.33,-0.29865 -0.6,-0.84513 -0.6,-1.2144 0,-0.72646 0.51166,-1.0356 1.71404,-1.0356 0.71153,0 0.75436,-0.079 0.61323,-1.1312 -0.0842,-0.62754 -2.87765,-6.60501 -6.27397,-13.425 l -6.12226,-12.2938 -2.73759,0.10707 c -2.63564,0.10308 -2.75569,0.0795 -3.22349,-0.63451 -0.78355,-1.19584 -0.19423,-2.09364 2.82191,-4.29908 1.48947,-1.08912 2.70813,-2.17329 2.70813,-2.40927 0,-0.23599 0.35772,-0.56507 0.79494,-0.7313 0.65608,-0.24944 0.98359,-0.17478 1.875,0.42742 1.10551,0.74684 2.43006,1.26782 2.43006,0.95581 0,-0.0959 -0.16777,-0.44292 -0.37281,-0.77125 -0.49261,-0.78879 0.0293,-1.64489 1.00276,-1.64489 0.49628,0 0.93693,0.34365 1.44256,1.125 l 0.72801,1.125 3.38919,0 c 3.04375,0 3.42083,0.0591 3.69974,0.58028 0.8501,1.58843 -0.11586,3.63883 -1.92862,4.09381 -0.43497,0.10917 -0.75034,0.35356 -0.70084,0.54309 0.2691,1.03023 6.03789,11.91949 6.48758,12.24605 0.29293,0.21272 0.71769,0.8418 0.9439,1.39795 0.40824,1.00367 1.39811,2.13882 1.8651,2.13882 0.13388,0 0.24343,-0.73286 0.24343,-1.62857 0,-1.56096 0.48164,-2.57143 1.22568,-2.57143 0.33828,0 3.54222,3.35836 4.15639,4.35673 0.40638,0.66059 0.35734,0.78341 -0.825,2.0661 -1.74368,1.89167 -1.69211,2.30677 0.20443,1.64563 1.5982,-0.55713 1.9449,-1.1e-4 1.70583,2.74061 l -0.19894,2.28061 1.4408,-0.0198 1.44081,-0.0198 0.0898,1.71914 c 0.0751,1.43748 -0.0355,1.90355 -0.675,2.84464 -0.42064,0.61903 -0.75995,1.26291 -0.75401,1.43086 0.0192,0.54277 1.41326,2.03771 1.72219,1.84678 0.1647,-0.10179 1.62115,-2.44775 3.23657,-5.21324 1.61541,-2.7655 3.19231,-5.39943 3.50421,-5.85318 l 0.5671,-0.825 5.07183,0 5.07183,0 1.80774,2.68849 c 0.99426,1.47867 1.80774,2.91463 1.80774,3.19101 0,0.50651 -0.52538,1.5316 -7.54304,14.71769 -2.12133,3.98593 -3.85696,7.46555 -3.85696,7.73247 0,0.26691 0.46329,1.40526 1.02952,2.52966 l 1.02953,2.04437 5.64547,0.19729 c 3.10502,0.10852 7.44867,0.19768 9.65258,0.19815 3.70324,9e-4 3.98982,-0.039 3.77928,-0.52415 -0.12529,-0.28875 -0.28946,-0.96334 -0.36481,-1.49908 -0.113,-0.80343 0.032,-1.13191 0.82744,-1.875 1.07997,-1.00884 1.9386,-1.13128 2.9526,-0.42105 0.63113,0.44206 0.72985,0.43939 1.2528,-0.0339 0.52687,-0.47681 1.05464,-0.48684 7.3414,-0.13965 3.72555,0.20576 6.84512,0.30271 6.93238,0.21546 0.0872,-0.0873 0.23733,-0.92103 0.3335,-1.85284 0.28158,-2.72825 1.43698,-2.83983 2.81717,-0.27204 0.86807,1.61501 2.08246,1.9298 7.08353,1.83615 l 4.43761,-0.0831 0.165,-1.23608 c 0.22408,-1.67871 1.04042,-2.87666 1.87896,-2.7573 0.5961,0.0849 0.66409,0.29212 0.74418,2.26838 l 0.0881,2.175 6.12169,0 6.1217,0 1.32549,-1.875 c 9.22098,-13.04383 13.20203,-18.72923 13.30799,-19.00535 0.11516,-0.30011 -5.31871,-11.05378 -5.85907,-11.59514 -0.12379,-0.12402 -0.87551,0.187 -1.67048,0.69116 -1.73108,1.09782 -2.68396,1.07695 -2.81574,-0.0617 -0.0598,-0.51696 0.10752,-0.93761 0.47739,-1.2 1.35101,-0.95838 1.63603,-2.64172 0.56599,-3.34284 -0.38431,-0.25181 -1.35512,-1.76284 -2.15735,-3.35784 -1.72496,-3.42967 -2.39032,-4.05333 -4.32431,-4.05333 -2.33883,0 -2.75537,-0.98667 -1.06875,-2.53156 l 1.0508,-0.96249 -6.00727,-10.21157 c -3.94006,-6.69759 -5.94238,-10.38067 -5.8187,-10.70297 0.10372,-0.27028 0.49651,-0.49141 0.87286,-0.49141 0.5814,0 1.5639,1.50001 6.53359,9.975 7.03269,11.99307 6.61805,11.19938 6.4056,12.26165 -0.1173,0.5865 -0.0512,0.86335 0.20616,0.86335 0.84266,0 2.34206,1.80264 3.70547,4.45484 0.79304,1.54266 1.80339,3.06225 2.24524,3.37688 0.55012,0.39172 0.8686,0.95819 1.01032,1.79706 0.16859,0.99785 0.30992,1.19811 0.76211,1.07986 0.85101,-0.22255 1.27035,0.28512 3.04907,3.69136 0.90471,1.7325 2.43892,4.66381 3.40936,6.51402 1.57606,3.00486 1.72989,3.45327 1.44088,4.2 -0.39378,1.01743 -14.95274,21.67911 -15.65788,22.22122 -0.50918,0.39147 -0.36749,0.39189 -20.07731,-0.0595 -5.41721,-0.12405 -7.19865,-0.40349 -7.89108,-1.23783 -0.43579,-0.52508 -0.89001,-0.29898 -0.89001,0.44302 0,1.27392 -0.51658,1.33578 -7.66688,0.91804 l -6.74338,-0.39396 -0.68921,0.64747 c -0.85347,0.8018 -1.28272,0.80851 -2.54357,0.0398 -1.79309,-1.09322 -2.16424,0.0405 -0.50696,1.54861 1.05543,0.96042 1.39719,2.19299 0.675,2.43445 -0.20625,0.069 -5.505,0.0645 -11.775,-0.01 -8.86255,-0.10509 -11.50074,-0.22336 -11.85261,-0.53136 -0.24893,-0.21791 -1.11223,-1.73682 -1.91843,-3.37537 l -1.46583,-2.97918 4.05689,-7.61484 c 2.23129,-4.18815 4.90637,-9.23483 5.94462,-11.21483 l 1.88773,-3.6 -1.33448,-1.95 -1.33447,-1.95 -4.0362,0 -4.0362,0 -3.52793,5.99986 c -3.82504,6.50513 -4.20182,7.05014 -4.87394,7.05014 -0.59078,0 -4.05915,-4.41586 -4.05915,-5.16803 0,-0.32262 0.47477,-1.14125 1.05504,-1.81916 1.04037,-1.21544 1.21303,-1.96108 0.40746,-1.75967 -2.56786,0.64203 -3.05227,0.23887 -2.64713,-2.20314 0.42576,-2.56625 0.40471,-2.64901 -0.62162,-2.44375 -1.31618,0.26324 -2.09375,-0.61182 -2.09375,-2.35625 0,-1.17712 -0.0818,-1.35 -0.63848,-1.35 -1.13124,0 -3.75656,-1.72234 -4.17868,-2.74142 -0.21376,-0.51606 -0.693,-1.29999 -1.06498,-1.74206 -0.62561,-0.7435 -6.49048,-11.81905 -7.32346,-13.83004 -0.4563,-1.1016 -0.18007,-1.49211 1.67087,-2.36216 0.7341,-0.34506 1.33473,-0.7617 1.33473,-0.92585 0,-0.39488 -5.30591,-0.39341 -5.55,0.001 -0.29737,0.48115 -2.61511,0.34676 -4.44797,-0.2579 l -1.6911,-0.5579 -2.40547,1.7656 c -1.323,0.97108 -2.40546,1.82178 -2.40546,1.89044 0,0.0687 0.91125,0.0498 2.025,-0.042 1.86069,-0.15331 2.08971,-0.10643 2.82254,0.57769 0.77364,0.72222 12.11095,22.89726 13.01145,25.44956 0.64425,1.82599 0.5589,3.104 -0.27179,4.06973 -0.5891,0.68487 -0.66338,0.97043 -0.42806,1.64547 0.35978,1.03206 -0.10906,1.98511 -1.09873,2.23351 -0.63924,0.16044 -0.6847,0.26373 -0.39546,0.89855 0.22241,0.48814 0.67155,0.7796 1.40593,0.91236 1.38645,0.25064 2.72912,0.9312 2.72912,1.38331 0,0.19416 0.38632,0.76444 0.85849,1.2673 0.47218,0.50285 3.92626,6.36018 7.67575,13.01627 4.97882,8.8384 6.77231,12.27675 6.65059,12.75001 -0.26425,1.02742 -8.58985,16.78414 -9.21142,17.43317 -0.30821,0.32183 -1.12868,0.79508 -1.82326,1.05165 -1.01318,0.37427 -1.31284,0.65934 -1.5156,1.44182 -0.32983,1.27285 -2.27122,2.5244 -4.20403,2.7102 -1.29349,0.12434 -1.49942,0.0509 -2.32021,-0.82779 -0.78497,-0.84031 -1.00737,-0.92889 -1.73052,-0.6892 -0.7553,0.25033 -0.84326,0.43451 -0.97979,2.05159 -0.1091,1.29208 -0.38462,2.1224 -1.01032,3.0447 -0.85087,1.2542 -0.85499,1.28146 -0.375,2.48107 0.74922,1.8725 0.63638,2.85238 -0.41468,3.6008 -0.495,0.35247 -0.9,0.90424 -0.9,1.22615 0,0.49324 0.12974,0.54977 0.825,0.35944 0.45375,-0.12421 1.365,-0.22803 2.025,-0.23071 1.08344,-0.004 1.19921,0.068 1.19188,0.74512 -0.007,0.6234 -7.60496,13.85203 -17.40358,30.3 -9.87399,16.57449 -34.68377,59.0267 -34.82497,59.58929 -0.37113,1.47869 -2.89408,2.65193 -5.28513,2.45771 -1.17924,-0.0958 -1.20163,-0.0783 -1.781,1.3911 -0.58613,1.48653 -0.5861,1.48928 0.033,2.59085 1.13379,2.01732 0.81064,3.41643 -1.79488,7.77105 -7.88462,13.17761 -14.27505,24.11371 -14.85044,25.41391 -0.8224,1.85838 -1.54315,2.15505 -3.98926,1.64197 -0.89468,-0.18766 -1.74539,-0.26785 -1.89046,-0.17819 -0.14507,0.0897 -0.54581,0.71589 -0.89054,1.39162 l -0.62679,1.22859 1.15607,1.00494 c 0.63584,0.55272 2.10107,1.56422 3.25607,2.24777 1.155,0.68356 5.0494,2.98912 8.65421,5.12346 4.23468,2.50728 6.75399,3.82839 7.1187,3.73301 0.89099,-0.23299 13.45682,-7.52742 13.46751,-7.81784 0.005,-0.14341 -0.46292,-1.03857 -1.04042,-1.98924 -0.5775,-0.95067 -1.05,-1.88609 -1.05,-2.07871 0,-0.19262 1.22199,-2.93917 2.71553,-6.10343 2.54036,-5.38209 2.68066,-5.77874 2.175,-6.14903 -0.29729,-0.2177 -2.27961,-1.36753 -4.40515,-2.55518 -2.26188,-1.26382 -3.98678,-2.42744 -4.15915,-2.80576 -0.25103,-0.55095 0.87901,-2.70007 7.6517,-14.55215 4.37043,-7.64816 8.22247,-14.45289 8.56009,-15.12162 0.33762,-0.66874 0.96853,-1.37749 1.40203,-1.575 0.99273,-0.45232 2.70609,-0.46258 3.53092,-0.0211 0.51823,0.27734 0.70541,0.23698 1.04331,-0.225 0.74925,-1.02438 0.77038,-1.82278 0.0732,-2.76578 -0.55386,-0.74914 -0.64241,-1.18058 -0.52726,-2.56912 0.0795,-0.95924 0.34925,-1.90178 0.63431,-2.21677 0.38517,-0.42561 12.79831,-21.46486 16.63082,-28.18788 1.29062,-2.26401 1.16445,-2.23547 7.6191,-1.72344 1.57924,0.12528 1.70644,0.0866 1.87106,-0.56932 0.26096,-1.03975 2.37811,-2.81477 3.63957,-3.05142 1.60283,-0.30069 2.47362,0.2091 2.70213,1.58194 0.10426,0.62634 0.23582,1.29066 0.29236,1.47626 0.0565,0.1856 0.87665,0.43414 1.82246,0.55231 2.88088,0.35995 3.41337,0.81644 3.42389,2.93523 0.007,1.48509 1.24432,0.91449 1.66683,-0.7689 0.44905,-1.78917 0.29954,-1.77348 14.89669,-1.56354 7.30982,0.10514 13.57952,0.24993 13.93267,0.32176 0.36021,0.0733 1.06538,0.79023 1.60628,1.63314 1.00376,1.56422 1.50163,1.88335 1.50163,0.96253 0,-0.86246 0.62632,-1.26 1.98513,-1.26 1.91444,0 3.95352,0.97988 4.18335,2.01031 0.46693,2.09343 0.29598,1.97883 2.63805,1.76862 5.65584,-0.50762 4.978,-0.20734 7.60023,-3.36685 1.93851,-2.33568 2.47278,-2.80941 3.09324,-2.74271 0.6379,0.0686 0.79136,0.29477 1.02673,1.51339 0.1522,0.78801 0.4222,1.3886 0.6,1.33463 0.1778,-0.054 0.60688,-0.68208 0.95351,-1.39579 0.34663,-0.71371 0.81913,-1.40291 1.05,-1.53156 0.37879,-0.21107 5.34945,0.37265 6.62753,0.7783 0.29301,0.093 2.08966,3.01249 4.10686,6.67349 4.54868,8.25537 4.46105,8.06106 3.89184,8.63027 -0.24747,0.24747 -0.65898,0.36973 -0.91448,0.27169 -0.25549,-0.098 -2.11939,-3.20025 -4.14199,-6.89379 -2.0226,-3.69354 -3.87386,-6.7909 -4.11391,-6.88301 -0.24004,-0.0921 -1.33636,-0.24916 -2.43627,-0.349 l -1.99982,-0.18151 -0.56373,1.06595 c -0.57765,1.09228 -2.01851,1.99757 -3.17931,1.99757 -0.3588,0 -0.94589,-0.3374 -1.30466,-0.74978 l -0.6523,-0.74977 -1.8,1.97215 -1.8,1.97215 -3.85861,0.44373 c -2.12223,0.24405 -4.34192,0.40274 -4.93264,0.35263 -1.13084,-0.0959 -1.06987,0.002 -1.67433,-2.68026 -0.0978,-0.43404 -0.41559,-0.85747 -0.70614,-0.94096 -0.29055,-0.0835 -0.78583,-0.25725 -1.10061,-0.38611 -0.54456,-0.22293 -0.56247,-0.11614 -0.36912,2.20226 0.17943,2.15153 0.1411,2.46851 -0.32767,2.70972 -0.29198,0.15024 -0.69925,0.21278 -0.90504,0.13898 -0.20579,-0.0738 -1.32914,-1.52445 -2.49635,-3.22367 -1.91711,-2.79093 -2.22885,-3.10713 -3.22584,-3.27198 -0.60701,-0.10037 -6.52277,-0.18397 -13.14613,-0.18579 l -12.04247,-0.003 -0.17985,0.71657 c -0.0989,0.39412 -0.66581,1.14325 -1.25975,1.66474 -0.95858,0.84165 -1.25376,0.93808 -2.62767,0.85842 l -1.54779,-0.09 -0.0893,-1.70321 -0.0893,-1.70322 -1.50045,-0.32178 c -0.82524,-0.17699 -1.7638,-0.32179 -2.08568,-0.32179 -0.93356,0 -1.78523,-1.07339 -1.78523,-2.25 0,-1.22802 -0.44295,-1.34587 -1.60954,-0.42823 -0.46609,0.36663 -0.79046,0.92061 -0.79046,1.35 0,1.239 -1.03044,1.98522 -2.49098,1.80392 -0.69246,-0.0859 -2.42345,-0.23886 -3.84663,-0.3398 -2.58695,-0.18348 -2.58777,-0.1833 -3.17936,0.66529 -0.48324,0.69317 -9.65964,16.30465 -14.58856,24.81898 l -1.1984,2.07015 0.72696,0.57765 c 2.27272,1.80588 2.42517,2.10239 1.41011,2.74268 -0.36186,0.22825 -0.7835,0.10341 -1.70071,-0.50357 -1.56199,-1.03368 -1.83243,-1.01527 -1.83243,0.12475 0,0.6419 0.23841,1.11936 0.76625,1.53456 0.90206,0.70956 0.83434,1.44329 -0.3889,4.21377 -0.87037,1.97126 -1.5501,2.3229 -3.34513,1.73049 -0.61294,-0.20229 -1.40643,-0.32119 -1.76331,-0.26422 -0.50787,0.0811 -2.41113,3.19139 -8.75889,14.31385 -4.46051,7.81566 -8.10649,14.29566 -8.10217,14.4 0.004,0.10435 1.79307,1.18818 3.975,2.40849 4.55171,2.54571 5.01715,2.89328 5.01715,3.74661 0,0.3423 -1.23252,3.2153 -2.73894,6.38443 l -2.73893,5.76207 1.23893,1.96171 c 1.28666,2.03728 1.5021,2.8876 0.86394,3.40982 -0.65425,0.53538 -14.82295,8.69378 -15.43693,8.88865 -0.41813,0.13271 -2.05332,-0.69543 -5.66298,-2.86799 z m 82.1834,-226.60406 c 0.20495,-0.53409 -0.0613,-1.35 -0.44059,-1.35 -0.14734,0 -0.2679,0.405 -0.2679,0.9 0,0.94825 0.41592,1.21242 0.70849,0.45 z m 74.52155,136.425 c -0.25462,-0.28875 -3.25398,-5.1825 -6.66526,-10.875 -6.52142,-10.88251 -6.36209,-10.52352 -5.69172,-12.82402 0.18755,-0.64363 0.13683,-0.66586 -1.12496,-0.49291 -1.01708,0.13941 -1.4154,0.0678 -1.72973,-0.31093 -0.57704,-0.6953 -0.78939,-3.35459 -0.31364,-3.92784 0.49649,-0.59823 0.29827,-0.76076 -1.16772,-0.95738 -0.6669,-0.0894 -1.4053,-0.38185 -1.64089,-0.64978 -0.23559,-0.26793 -1.46529,-2.4086 -2.73266,-4.75706 -1.26737,-2.34845 -2.42319,-4.34339 -2.56849,-4.43319 -0.14531,-0.0898 -0.86429,-0.0122 -1.59774,0.17251 -2.81861,0.70974 -3.1533,-0.33735 -1.83557,-5.74271 0.14466,-0.59339 -0.15671,-1.36119 -1.29528,-3.3 -0.81609,-1.38968 -3.0791,-5.29419 -5.0289,-8.67669 -1.9498,-3.3825 -5.01817,-8.70184 -6.81859,-11.82076 -3.01458,-5.22221 -3.24569,-5.73239 -2.9219,-6.45 0.59246,-1.31304 5.69146,-10.14851 6.26682,-10.85905 l 0.54089,-0.66797 16.02265,0.30258 c 8.81246,0.16643 16.25144,0.40251 16.53107,0.52463 0.27963,0.12212 1.41717,1.77433 2.52788,3.67159 1.1107,1.89726 2.40067,3.92924 2.86658,4.51552 0.7247,0.91191 0.84712,1.33596 0.84712,2.93425 0,1.41404 -0.14588,2.05376 -0.6,2.63107 -0.77501,0.98526 -0.76333,1.05096 0.43577,2.45216 l 1.01325,1.18401 0.89585,-0.95901 c 0.75646,-0.8098 1.11052,-0.95902 2.27549,-0.95902 1.47859,0 2.5724,0.72915 2.58771,1.725 0.006,0.38344 0.24288,0.24189 0.87895,-0.525 l 0.87089,-1.05 3.54604,0.0677 c 16.97756,0.32401 19.92559,0.46012 20.48457,0.9458 0.30797,0.26758 3.21846,5.21152 6.46774,10.98652 3.24929,5.775 6.1006,10.65333 6.33625,10.84074 0.23565,0.1874 1.42229,0.43386 2.63699,0.54769 2.25804,0.21159 2.88559,0.56619 3.69523,2.08799 0.28494,0.53556 0.34022,0.51157 0.7798,-0.3385 l 0.47313,-0.91492 -6.13883,-9.779 c -3.37636,-5.37847 -6.13883,-10.06182 -6.13883,-10.40747 0,-0.5773 1.49266,-3.06119 2.04455,-3.40228 0.13023,-0.0805 2.75137,-0.29978 5.82474,-0.4873 6.25556,-0.3817 6.51914,-0.3313 7.3592,1.40706 0.59308,1.22729 1.04682,1.34778 1.28447,0.34107 0.3422,-1.4496 0.82342,-1.50015 12.43704,-1.30638 10.6467,0.17763 10.80912,0.18964 11.44293,0.84574 1.25826,1.30253 11.83767,18.90174 11.74638,19.54052 -0.0532,0.37206 -0.34818,0.66194 -0.72891,0.71625 -0.54519,0.0778 -1.49145,-1.29508 -6.4104,-9.3 -3.17394,-5.16518 -5.92362,-9.49041 -6.1104,-9.61164 -0.18678,-0.12122 -4.89585,-0.22247 -10.4646,-0.225 -9.92653,-0.004 -10.125,0.007 -10.125,0.59541 0,0.33 -0.27,0.87 -0.6,1.2 -1.22393,1.22393 -3.39806,0.43606 -4.21072,-1.52588 l -0.39194,-0.94622 -4.82367,0.21463 c -4.9936,0.2222 -5.62322,0.39578 -6.02479,1.66099 -0.11008,0.34685 1.76575,3.58755 5.54064,9.57203 3.13889,4.97621 5.9225,9.46424 6.18579,9.9734 0.46614,0.90142 0.44845,0.98585 -0.6733,3.2134 -1.11979,2.22367 -1.19758,2.30276 -2.78141,2.82792 -2.28116,0.75638 -3.60389,0.79222 -4.02841,0.10913 -0.29382,-0.47276 -0.13015,-0.74012 1.15781,-1.89132 1.37728,-1.23103 1.45664,-1.37307 0.97,-1.73613 -0.2915,-0.21748 -1.45585,-0.48664 -2.58744,-0.59815 -1.1316,-0.1115 -2.2731,-0.36497 -2.53668,-0.56327 -0.26358,-0.19829 -3.22795,-5.22053 -6.58749,-11.16053 l -6.10826,-10.8 -1.62506,-0.18981 c -0.89379,-0.1044 -5.83908,-0.27328 -10.98953,-0.37529 l -9.36446,-0.18548 -1.2696,1.80029 c -0.91802,1.30176 -1.4588,1.80029 -1.95283,1.80029 -0.84652,0 -1.59865,-1.33386 -1.59865,-2.8351 0,-0.72799 -0.13699,-1.0649 -0.43299,-1.0649 -0.60208,0 -1.36701,1.17886 -1.36701,2.10675 0,0.83033 -0.4868,1.49325 -1.09653,1.49325 -0.20709,0 -1.46259,-1.29171 -2.79,-2.87047 -2.69294,-3.20284 -3.02303,-4.21629 -1.66347,-5.10712 0.60224,-0.3946 0.75,-0.73876 0.75,-1.74691 0,-0.69052 -0.13933,-1.39483 -0.30962,-1.56512 -0.17029,-0.17029 -1.29283,-1.98604 -2.49453,-4.035 l -2.1849,-3.72538 -6.43047,-0.18284 c -3.53677,-0.10057 -10.478,-0.23557 -15.42496,-0.3 l -8.99447,-0.11716 -2.7875,4.8 c -1.56058,2.68729 -2.75141,5.06929 -2.70552,5.41183 0.0451,0.3365 3.83342,7.10659 8.41854,15.04463 l 8.33657,14.4328 -0.76157,1.12223 c -0.41887,0.61723 -0.76157,1.45829 -0.76157,1.86902 0,0.72078 0.0513,0.73999 1.47196,0.55153 1.10546,-0.14665 1.58333,-0.0839 1.91925,0.25202 0.246,0.24601 1.35708,2.17274 2.46906,4.28162 2.89005,5.481 2.79009,5.36726 4.92919,5.60928 1.34145,0.15176 1.88466,0.35298 2.11505,0.78347 0.36353,0.67925 0.11525,1.91871 -0.48394,2.416 -0.43581,0.36168 -0.59215,1.77828 -0.19557,1.77201 0.12375,-0.002 0.92707,-0.19048 1.78515,-0.41893 1.29114,-0.34375 1.65306,-0.34744 2.09896,-0.0214 0.58181,0.42543 0.60838,0.30116 -0.84374,3.94531 -0.37337,0.93699 -0.28485,1.10864 5.82775,11.30059 3.41378,5.69204 6.20688,10.6157 6.20688,10.94147 0,0.32577 -0.21354,0.67426 -0.47454,0.77441 -0.62399,0.23945 -0.56584,0.25765 -1.09542,-0.3429 z m -32.11037,-14.51399 c -0.28582,-0.15995 -0.51967,-0.52849 -0.51967,-0.81897 0,-0.52062 -1.6535,-2.44204 -2.10153,-2.44204 -0.12669,0 -0.31979,0.59646 -0.42911,1.32547 -0.10932,0.72901 -0.39861,1.49133 -0.64287,1.69404 -0.60317,0.50059 -32.70275,0.22838 -33.66287,-0.28546 -0.52333,-0.28008 -0.65085,-0.6653 -0.72438,-2.18817 -0.12218,-2.53056 -0.63085,-2.56626 -1.72785,-0.12127 l -0.8863,1.97539 -1.5265,0 c -1.38158,0 -1.57501,-0.0853 -2.03754,-0.8981 -0.42853,-0.75308 -0.69783,-0.89841 -1.66774,-0.9 -0.80428,-0.001 -1.43385,0.23131 -2.06637,0.76354 -0.98644,0.83003 -1.93779,0.86846 -2.42066,0.0978 -0.2355,-0.37586 0.38988,-1.96346 2.74436,-6.96691 1.67715,-3.56407 3.04936,-6.61876 3.04936,-6.78821 0,-0.19959 -1.93817,-0.30809 -5.5035,-0.30809 -4.86871,0 -5.55581,0.0606 -5.95692,0.525 -0.24938,0.28875 -1.90649,2.82 -3.68246,5.625 -3.77892,5.96851 -4.15321,6.42533 -4.88629,5.96368 -0.28646,-0.18039 -0.56119,-0.53271 -0.61052,-0.78291 -0.0493,-0.25021 0.87974,-2.05823 2.0646,-4.01784 1.18487,-1.95961 6.40798,-10.78543 11.60691,-19.61293 5.19894,-8.8275 9.71281,-16.42125 10.03083,-16.875 0.52024,-0.7423 0.7566,-0.825 2.35778,-0.825 1.80606,0 2.1409,-0.22666 1.32957,-0.9 -0.75233,-0.62438 -0.53098,-1.46311 1.54179,-5.8421 1.82371,-3.8528 2.18302,-4.39515 4.25778,-6.42673 l 2.26599,-2.21884 1.32349,0.70211 c 2.05925,1.09244 2.28154,1.62739 2.06241,4.96333 l -0.18707,2.84797 3.5178,2.26663 c 1.9348,1.24665 3.68656,2.48166 3.89281,2.74447 0.63017,0.80299 0.42535,1.52172 -0.58213,2.0427 -0.9071,0.46908 -0.92763,0.51654 -0.39266,0.90771 0.31046,0.22701 0.92871,0.41275 1.3739,0.41275 0.44518,0 1.08823,0.23625 1.42899,0.525 0.83937,0.71125 5.74489,9.07894 5.74601,9.80138 6e-4,0.31701 -0.22303,0.8238 -0.49671,1.12622 -0.76843,0.84911 -0.11826,2.0474 1.11089,2.0474 0.50939,0 1.17879,0.1352 1.48756,0.30046 0.74669,0.39961 4.49915,6.65444 4.49915,7.49946 0,0.36491 -0.3375,1.06456 -0.75,1.55479 -0.75786,0.90066 -0.98509,1.74529 -0.46953,1.74529 0.15426,0 0.6356,-0.13502 1.06964,-0.30004 0.50103,-0.19049 0.98242,-0.19662 1.31844,-0.0168 0.48039,0.2571 7.17938,11.14481 7.62602,12.39441 0.23037,0.6445 -2.25262,7.41317 -2.84001,7.74189 -0.22837,0.1278 -0.64907,0.10149 -0.93489,-0.0585 z m -4.98114,-3.45566 c 0.24386,-1.99784 0.39499,-2.20535 1.6062,-2.20535 0.69017,0 1.44131,0.32975 2.37555,1.04287 1.54367,1.17831 1.53933,1.18077 2.44447,-1.38468 l 0.42749,-1.21163 -3.2175,-5.3896 c -2.77077,-4.64131 -3.3013,-5.3649 -3.82112,-5.21161 -0.33199,0.0979 -1.04191,0.25784 -1.5776,0.35541 -0.90782,0.16536 -1.00709,0.0983 -1.46151,-0.98667 -0.67595,-1.61394 -0.6144,-2.34538 0.29799,-3.54159 0.43312,-0.56786 0.7827,-1.14272 0.77684,-1.27748 -0.006,-0.13476 -0.72816,-1.39252 -1.6051,-2.79502 -1.54542,-2.4716 -1.63245,-2.55282 -2.83081,-2.64183 -1.41717,-0.10526 -2.23933,-0.92396 -2.79697,-2.78519 -0.28864,-0.96341 -0.26272,-1.26874 0.16287,-1.91828 0.50036,-0.76364 0.47972,-0.81736 -1.80165,-4.6903 -1.2693,-2.1548 -2.45628,-3.95476 -2.63775,-3.99991 -4.66469,-1.16067 -6.20127,-3.09103 -3.56146,-4.47417 l 0.8034,-0.42094 -3.00872,-1.94619 c -1.65478,-1.0704 -3.28632,-2.09476 -3.62563,-2.27635 -0.894,-0.47845 -0.9614,-0.88382 -0.50741,-3.05161 0.54372,-2.59622 0.52301,-3.103 -0.16086,-3.937 l -0.58075,-0.70823 -1.69865,1.65 c -1.37783,1.33837 -2.03305,2.35084 -3.46925,5.36082 -0.97383,2.04095 -1.7706,3.80445 -1.7706,3.91888 0,0.11442 0.405,0.59606 0.9,1.0703 0.99027,0.94874 1.11175,1.54573 0.48808,2.39865 -0.33771,0.46185 -0.82137,0.56675 -2.68504,0.58234 -1.25022,0.0105 -2.40485,0.15401 -2.56586,0.31901 -0.32389,0.33194 -15.03718,25.29611 -15.03718,25.51373 0,0.075 2.70887,0.13627 6.01972,0.13627 6.18855,0 7.18028,0.16265 7.18028,1.17763 0,0.30608 -1.14733,2.96758 -2.54961,5.91444 -1.40229,2.94686 -2.54979,5.52668 -2.55,5.73293 -2.5e-4,0.23653 0.43549,0.375 1.18008,0.375 1.64917,0 2.68109,0.45983 3.01748,1.34462 0.4127,1.08548 0.82469,0.93318 1.24181,-0.45903 0.68099,-2.27294 3.05197,-3.59983 4.77996,-2.67504 0.48184,0.25788 0.58028,0.63957 0.58028,2.25 0,1.0667 0.0337,1.95898 0.075,1.98285 0.1189,0.0688 23.38955,0.41975 27.375,0.41284 l 3.6,-0.006 0.18853,-1.54465 z m 136.1387,-36.5828 c -0.22968,-0.27675 -2.13117,-3.62379 -4.22553,-7.43787 -2.09436,-3.81407 -4.05405,-7.33968 -4.35483,-7.83468 -1.61373,-2.65572 -2.81178,-5.148 -2.73444,-5.68832 0.14838,-1.03637 1.2801,-0.92812 2.14446,0.20514 0.41997,0.55061 0.88977,1.33458 1.04397,1.74214 l 0.28038,0.74104 0.30297,-0.75 c 0.16665,-0.4125 0.41835,-1.29 0.55938,-1.95 0.24564,-1.14961 0.48156,-1.34903 5.61771,-4.74842 5.80257,-3.84049 6.3741,-4.02675 7.08555,-2.30921 0.47442,1.14538 0.90183,0.89345 0.90774,-0.53508 0.003,-0.60901 0.10911,-1.27176 0.23685,-1.47279 0.12771,-0.20102 2.52189,-1.94636 5.32038,-3.87853 5.27043,-3.63887 6.58818,-4.20659 6.58818,-2.83833 0,0.59096 -0.91347,1.34862 -5.175,4.29231 l -5.175,3.57468 0,1.88619 c 0,2.11804 -0.50091,2.87918 -1.89486,2.87918 -0.60144,0 -0.98001,-0.28894 -1.53921,-1.17478 -0.40788,-0.64614 -0.84834,-1.23859 -0.97878,-1.31657 -0.13044,-0.078 -2.18706,1.15942 -4.57026,2.74978 l -4.33311,2.89157 -0.40392,1.64601 c -0.22215,0.9053 -0.60099,1.94681 -0.84189,2.31444 -0.24087,0.36764 -0.43797,0.79047 -0.43797,0.93962 0,0.14915 1.83213,3.59458 4.07139,7.65651 4.01163,7.27692 4.5267,8.6139 3.40101,8.82822 -0.26265,0.05 -0.66549,-0.1355 -0.89517,-0.41225 z m -46.71723,-25.68255 c -0.198,-0.198 -0.36,-1.08347 -0.36,-1.96771 0,-0.99541 -0.11426,-1.53709 -0.3,-1.42229 -0.165,0.10197 -0.3,0.64994 -0.3,1.2177 0,1.34563 -0.88932,2.26635 -2.01875,2.09003 -0.45719,-0.0714 -3.80125,-0.27867 -7.43125,-0.46066 -3.92741,-0.1969 -6.90371,-0.4799 -7.35,-0.69886 -0.51336,-0.25187 -2.58624,-3.42481 -6.56962,-10.05604 l -5.81962,-9.68808 0.46351,-0.97198 c 0.25493,-0.53459 2.97501,-5.11056 6.04462,-10.16881 3.06961,-5.05825 5.58111,-9.39828 5.58111,-9.64451 0,-0.63935 0.78957,-0.9774 2.85,-1.22021 0.99,-0.11666 2.12715,-0.41877 2.52701,-0.67134 0.69226,-0.43728 0.70073,-0.47845 0.17705,-0.86137 -0.30248,-0.22118 -0.92233,-0.73393 -1.37745,-1.13943 -0.49704,-0.44287 -1.28435,-0.77506 -1.97158,-0.83187 -1.60568,-0.13273 -1.91665,-1.08799 -1.21947,-3.74614 l 0.5149,-1.96316 -1.72523,-2.04946 c -1.72363,-2.04756 -1.72559,-2.04878 -2.10981,-1.31764 -0.43894,0.83526 -1.14093,0.91724 -2.60738,0.30452 -0.80493,-0.33632 -1.09142,-0.68252 -1.34544,-1.62588 -0.24721,-0.91808 -14.55986,-24.97706 -19.62823,-32.99425 -0.9445,-1.49402 -0.94137,-2.55879 0.008,-2.69414 0.54098,-0.0771 1.14002,0.72741 3.7973,5.1 14.03002,23.0865 17.34519,28.62576 17.49907,29.23886 0.22666,0.90308 0.71133,0.91175 0.71133,0.0127 0,-0.80597 0.51666,-1.41 1.20605,-1.41 0.61273,0 5.94933,6.16776 6.19969,7.16528 0.10222,0.40729 0.0187,1.15548 -0.18568,1.66263 -0.75706,1.87891 -0.75005,1.92286 0.32341,2.02589 0.72287,0.0694 1.10299,0.30731 1.36328,0.85334 0.19852,0.41643 0.98847,1.22643 1.75544,1.8 1.57366,1.17684 2.07295,1.90648 1.72549,2.52156 -0.52283,0.92552 -2.56325,2.23033 -3.77293,2.41272 -2.49441,0.3761 -2.9579,0.52193 -3.13629,0.98682 -0.0995,0.25941 -2.51712,4.297 -5.37239,8.97242 -2.85527,4.67541 -5.38368,8.87259 -5.61869,9.32706 -0.41743,0.80721 -0.30641,1.02721 4.80621,9.52429 2.87843,4.7839 5.33335,8.86553 5.45537,9.07029 0.15126,0.25382 1.88932,0.46861 5.46145,0.67492 2.88177,0.16645 5.94437,0.38522 6.80577,0.48617 1.51352,0.17737 1.57763,0.15467 1.90668,-0.67492 1.06199,-2.6775 1.13311,-2.77302 2.21601,-2.97618 0.75167,-0.14101 1.28343,-0.0556 1.81245,0.29099 0.64739,0.42419 0.74868,0.71283 0.74868,2.13364 l 0,1.64308 3.675,-0.0231 c 2.02125,-0.0127 6.105,-0.12188 9.075,-0.24262 l 5.4,-0.21952 4.65735,-1.99699 c 3.25395,-1.39524 4.86924,-1.94158 5.36052,-1.81311 l 0.70314,0.18389 -0.11049,-2.81928 -0.11052,-2.81928 0.77568,-0.0902 c 0.43164,-0.0502 0.94689,0.11615 1.16172,0.375 0.29448,0.35483 1.00359,0.46517 2.98932,0.46517 1.43181,0 2.73153,-0.11945 2.88828,-0.26546 0.15675,-0.146 2.04,-1.27366 4.185,-2.5059 2.145,-1.23225 6.27867,-3.61029 9.18591,-5.28454 2.90727,-1.67425 5.47902,-3.0441 5.715,-3.0441 0.70302,0 1.15293,0.63224 0.85119,1.1961 -0.14841,0.2773 -1.32336,1.11044 -2.61096,1.85144 -1.28763,0.74099 -5.24364,3.01648 -8.79114,5.05664 -3.5475,2.04016 -6.8316,4.02133 -7.29801,4.4026 -0.75936,0.62076 -1.15923,0.69323 -3.825,0.69323 l -2.97699,0 0,1.55858 c 0,2.05398 -1.01715,3.24141 -2.77656,3.24141 -0.75426,0 -2.6322,0.6279 -5.33214,1.78282 l -4.16778,1.78283 -8.63677,0.31655 c -10.8421,0.3974 -11.28884,0.39579 -11.72682,-0.0422 z"
       id="path3874"
       inkscape:connector-curvature="0" />
  </g>
</svg>
