<?xml version="1.0" encoding="UTF-8" standalone="no"?>
<!-- Created with Inkscape (http://www.inkscape.org/) -->

<svg
   xmlns:dc="http://purl.org/dc/elements/1.1/"
   xmlns:cc="http://creativecommons.org/ns#"
   xmlns:rdf="http://www.w3.org/1999/02/22-rdf-syntax-ns#"
   xmlns:svg="http://www.w3.org/2000/svg"
   xmlns="http://www.w3.org/2000/svg"
   xmlns:sodipodi="http://sodipodi.sourceforge.net/DTD/sodipodi-0.dtd"
   xmlns:inkscape="http://www.inkscape.org/namespaces/inkscape"
   width="77.618355mm"
   height="59.684555mm"
   viewBox="0 0 275.02567 211.48071"
   id="svg3992"
   version="1.1"
   inkscape:version="0.91 r13725"
   sodipodi:docname="700.svg">
  <defs
     id="defs3994" />
  <sodipodi:namedview
     id="base"
     pagecolor="#ffffff"
     bordercolor="#666666"
     borderopacity="1.0"
     inkscape:pageopacity="0.0"
     inkscape:pageshadow="2"
     inkscape:zoom="0.35"
     inkscape:cx="438.22712"
     inkscape:cy="-179.97394"
     inkscape:document-units="px"
     inkscape:current-layer="layer1"
     showgrid="false"
     inkscape:window-width="1600"
     inkscape:window-height="851"
     inkscape:window-x="0"
     inkscape:window-y="25"
     inkscape:window-maximized="1"
     fit-margin-top="0"
     fit-margin-left="0"
     fit-margin-right="0"
     fit-margin-bottom="0" />
  <metadata
     id="metadata3997">
    <rdf:RDF>
      <cc:Work
         rdf:about="">
        <dc:format>image/svg+xml</dc:format>
        <dc:type
           rdf:resource="http://purl.org/dc/dcmitype/StillImage" />
        <dc:title></dc:title>
      </cc:Work>
    </rdf:RDF>
  </metadata>
  <g
     inkscape:label="Layer 1"
     inkscape:groupmode="layer"
     id="layer1"
     transform="translate(57.512829,-140.90757)">
    <path
       style="fill:#000000"
       d="m 91.447541,351.2393 c -1.18874,-1.07562 -1.40749,-1.15355 -3.75,-1.33589 -1.36819,-0.10651 -3.08284,-0.19445 -3.81033,-0.19544 -1.17062,-10e-4 -1.46383,-0.15141 -2.55,-1.30296 l -1.22729,-1.30116 -31.05,0.51718 c -17.431296,0.29034 -31.171886,0.40361 -31.327906,0.25825 -0.38018,-0.35422 0.61428,-1.40241 2.00291,-2.11113 0.81271,-0.41479 1.125,-0.76777 1.125,-1.27158 0,-1.27854 -0.80063,-1.6161 -4.35,-1.83402 -4.04233,-0.2482 -4.17493,-0.28351 -4.60447,-1.22626 -0.54966,-1.20636 -0.41574,-1.74437 0.70447,-2.83012 1.02942,-0.99775 1.05,-1.06522 1.05,-3.44199 0,-2.26437 -0.0582,-2.48807 -0.88309,-3.39115 -1.04042,-1.13912 -1.05088,-1.141 -2.03505,-0.36686 -0.5475,0.43066 -1.2170303,0.6 -2.3723203,0.6 -2.03146,0 -2.1023,-0.4647 -0.3872,-2.5402 2.0260403,-2.45178 2.7746303,-3.91805 2.3783703,-4.65848 -0.18565,-0.34688 -2.9280103,-4.71138 -6.0941303,-9.69889 -3.16612,-4.98751 -10.34658,-16.32021 -15.9565797,-25.18378 l -10.2,-16.11559 -1.54407,-0.001 -1.54407,-10e-4 -2.46147,4.46338 -2.46146,4.46339 -3.19446,0.18173 c -4.90033,0.27877 -15.27167,0.36429 -15.50809,0.12787 -0.11578,-0.11577 -0.13911,-0.38506 -0.0519,-0.59843 0.0872,-0.21343 2.9436,-4.3705 6.34745,-9.238 l 6.18882,-8.85 -0.69628,-0.6 c -0.38295,-0.33 -1.21102,-1.01045 -1.84016,-1.51212 -0.95925,-0.7649 -1.16945,-1.13901 -1.30232,-2.31789 -0.15015,-1.33207 -0.11319,-1.42316 0.70476,-1.73714 0.68555,-0.26317 1.04845,-0.23398 1.76321,0.1418 0.495,0.26024 1.305,0.54586 1.8,0.6347 0.88953,0.15966 0.9557,0.0733 5.68485,-7.4239 2.63167,-4.172 8.26942,-13.08378 12.52834,-19.80395 l 7.7434897,-12.21848 -7.3147997,-11.63151 c -6.5757,-10.45731 -14.47149,-23.0172 -34.02635,-54.12703 -3.48984,-5.55199 -6.38349,-10.26897 -6.43032,-10.48218 -0.0468,-0.21322 0.11856,-0.43307 0.36756,-0.48856 0.29432,-0.0656 0.9895,0.76792 1.98684,2.38218 0.84377,1.36569 3.48566,5.58808 5.87087,9.38308 12.34794,19.64621 23.03483,36.65407 29.87803,47.55 4.19696,6.6825 8.37311,13.32781 9.28032,14.76735 l 1.6494997,2.61735 -0.58703,0.98265 c -0.32286,0.54045 -5.2828797,8.40764 -11.0222597,17.48264 -5.73937,9.07501 -11.26183,17.8218 -12.27211,19.43732 l -1.83689,2.93732 -1.34604,-0.19135 c -0.74033,-0.10525 -1.71237,-0.38079 -2.16011,-0.61232 -1.08005,-0.55851 -1.14385,-0.54157 -1.14385,0.30367 0,0.51627 0.56073,1.21692 1.95,2.43664 1.0725,0.9416 1.95,1.84875 1.95,2.01589 0,0.16714 -2.64089,4.07648 -5.86865,8.68743 -3.22775,4.61095 -5.93803,8.56435 -6.02283,8.78533 -0.12721,0.3315 1.17494,0.37662 7.44365,0.25792 4.17881,-0.0791 7.87195,-0.19839 8.20698,-0.26504 0.42339,-0.0842 1.3382,-1.42808 3,-4.40699 l 2.39085,-4.28581 2.31341,-0.0874 2.31339,-0.0874 0.80881,1.28741 c 0.44484,0.70807 7.87506,12.45185 16.5115997,26.09727 8.63653,13.64542 15.7027903,24.94395 15.7027903,25.10785 0,0.42375 -1.14478,2.34995 -2.3370403,3.93229 -0.98335,1.30508 -0.99535,1.35332 -0.36072,1.44971 0.37595,0.0571 0.9594103,-0.18487 1.3653803,-0.56626 0.64408,-0.60508 0.79545,-0.63012 1.65561,-0.27383 0.5207,0.21568 1.33599,0.92951 1.81175,1.58627 0.79295,1.09464 0.86502,1.40803 0.86502,3.76147 0,2.54295 -0.0103,2.57785 -1.08019,3.67356 -1.97229,2.0198 -0.91094,2.65949 4.42411,2.66647 1.90555,0.002 2.03519,0.0496 2.925,1.06305 1.25324,1.42735 1.23958,2.54443 -0.0439,3.59139 l -0.975,0.79532 6.3,-0.17081 c 3.465,-0.0939 17.091636,-0.32965 30.281406,-0.52379 l 23.98141,-0.35299 1.09046,1.26611 1.09046,1.26612 3.81323,0.18017 3.81323,0.18018 1.31094,1.15393 c 0.72101,0.63466 1.39308,1.15393 1.49349,1.15393 0.14057,0 2.28547,-1.34347 4.64438,-2.90903 0.0654,-0.0434 -0.4408,-1.53359 -1.125,-3.31144 -0.68421,-1.77785 -1.24401,-3.38091 -1.24401,-3.56235 0,-0.38864 1.82707,-4.22124 12.712759,-26.66718 2.52002,-5.1962 2.68184,-5.44529 4.28751,-6.6 2.75078,-1.9782 2.94332,-2.32541 3.34587,-6.03357 0.37163,-3.42345 0.66553,-4.01643 1.99064,-4.01643 0.80219,0 2.78762,1.04949 3.81964,2.01904 l 0.80642,0.75762 0.69358,-0.76041 c 0.42705,-0.4682 1.62839,-1.06339 3.12616,-1.54884 2.27687,-0.73796 3.71742,-1.70603 3.71742,-2.49815 0,-0.18814 0.43875,-0.40614 0.975,-0.48444 1.67996,-0.2453 68.04507,-2.30782 68.34255,-2.12398 0.41688,0.25764 0.34305,1.74159 -0.11799,2.37211 -0.37314,0.51029 -2.65881,0.63623 -33.52499,1.84718 -18.21851,0.71476 -33.36082,1.30413 -33.64957,1.30971 -0.517,0.01 -0.73883,-0.7236 -0.3,-0.9921 0.12375,-0.0757 15.075,-0.70889 33.225,-1.40705 18.15,-0.69817 33.126,-1.38444 33.27999,-1.52504 0.15402,-0.14061 0.19581,-0.33984 0.0929,-0.44273 -0.10287,-0.1029 -15.21387,0.30636 -33.57998,0.90948 l -33.39292,1.09657 -0.92355,1.02598 c -0.6945,0.77152 -1.58676,1.25155 -3.59767,1.93551 -1.47076,0.50025 -2.70076,0.90954 -2.73333,0.90954 -0.0326,0 -0.10113,0.50625 -0.15234,1.125 -0.1346,1.62631 -1.06931,1.68331 -2.29183,0.13974 -1.02759,-1.29743 -3.31187,-2.65918 -4.01079,-2.39098 -0.31125,0.11944 -0.5152,0.81303 -0.65422,2.22489 -0.50597,5.13869 -0.29417,4.65934 -2.99768,6.78408 l -2.43859,1.91654 -7.42738,15.42536 c -4.08506,8.48396 -7.426309,15.56072 -7.424999,15.72614 10e-4,0.16543 0.54238,1.71758 1.20238,3.44923 0.66,1.73165 1.2,3.30971 1.2,3.5068 0,0.43235 -5.36171,3.98472 -6,3.97526 -0.2475,-0.004 -1.01807,-0.52068 -1.71238,-1.14892 z M 31.169245,332.22403 c -0.68237,-1.02732 -1.32165,-2.02053 -1.42062,-2.20712 -0.099,-0.1866 0.20914,-0.82885 0.68467,-1.42724 0.97351,-1.22499 2.5313,-4.87144 2.26512,-5.30213 -0.50921,-0.82391 -3.03767,0.26206 -5.38334,2.31215 -0.82216,0.71856 -1.69966,1.30616 -1.95,1.30577 -0.28481,-3e-4 -3.30934,-4.96868 -8.08149,-13.275 -4.19449,-7.30086 -11.1807403,-19.46442 -15.5250003,-27.03014 -4.34426,-7.56572 -7.89866,-14.07472 -7.89866,-14.46445 0,-0.82489 0.95388,-1.44825 1.80351,-1.17859 0.31946,0.1014 0.84427,0.51925 1.16623,0.92857 l 0.5854,0.7442 0.0974,-0.68694 c 0.1383,-0.97509 1.75020003,-1.66342 4.56128,-1.9478 l 2.36385,-0.23914 0.50125,-1.28909 c 0.27568,-0.70899 1.02523,-1.75524 1.66564,-2.325 1.09851,-0.97729 1.28651,-1.03591 3.3224,-1.03591 1.1869103,0 2.5791203,-0.0842 3.0938203,-0.18716 l 0.93581,-0.18717 -0.66428,-1.18191 c -0.64942,-1.15549 -0.69466,-1.17834 -2.0233,-1.02215 -2.7576103,0.32418 -22.136,1.17061 -22.61267,0.9877 -0.703,-0.26977 -4.75598,-6.52127 -4.55961,-7.03297 0.0899,-0.23426 1.76094,-2.74351 3.71343,-5.57613 1.9525,-2.83261 4.0449597,-5.87411 4.6499097,-6.75887 0.60494,-0.88477 1.0999,-1.93249 1.0999,-2.32827 0,-0.39579 3.02961,-6.01905 6.73247003,-12.49612 3.70284997,-6.47707 6.80990997,-11.97832 6.90455997,-12.225 0.10172,-0.26505 -0.51758,-1.40485 -1.5141,-2.78667 -1.40941,-1.95436 -1.66302,-2.49552 -1.545,-3.29673 0.10128,-0.6875 -0.10185,-1.38956 -0.71836,-2.48281 -0.68676,-1.21786 -0.85954,-1.89384 -0.85954,-3.36286 0,-1.61863 0.0983,-1.92978 0.82193,-2.60074 0.45207,-0.41918 0.9413,-0.76214 1.08718,-0.76214 0.14588,0 1.07389,0.54 2.06225,1.2 0.98835,0.66 1.92218,1.2 2.07515,1.2 0.35752,0 -2.61213,-5.50521 -3.04802,-5.6505 -0.18041,-0.0601 -0.48597,0.30912 -0.67903,0.82058 -0.39963,1.05875 -0.31893,1.04661 -3.90206997,0.58709 l -2.67324003,-0.34283 -4.39707,-6.70409 c -2.4184,-3.68725 -5.9495797,-9.09745 -7.8470797,-12.02267 -1.8975,-2.92522 -5.43157,-8.36035 -7.85349,-12.07808 -2.42192,-3.71773 -6.33669,-9.7295 -8.6995,-13.3595 -2.36281,-3.63 -5.40605,-8.27302 -6.76275,-10.31783 -1.3567,-2.0448 -2.39521,-3.83355 -2.30779,-3.975 0.33264,-0.53822 0.94321,-0.21679 1.64849,0.86783 21.85095,33.604 36.7422697,56.24172 37.12849973,56.44259 0.27309,0.14203 1.39999,0.35234 2.50420997,0.46735 l 2.00767,0.2091 0.62343,-1.22202 c 1.02501,-2.0092 1.43102,-1.71159 4.00676,2.93703 2.3518703,4.2446 2.5236103,4.6701 2.0124503,4.98602 -0.27926,0.17259 -4.1312003,-1.53792 -5.1422003,-2.28347 -1.69861,-1.25262 -2.06891,2.11829 -0.54232,4.93684 0.66575,1.22917 0.87305,1.93474 0.74281,2.52827 -0.14751,0.67229 0.1233,1.24468 1.47654,3.12087 0.91146,1.26367 1.65719,2.42443 1.65719,2.57949 0,0.15505 -3.105,5.72872 -6.9,12.38593 -4.1318,7.24802 -6.9,12.41725 -6.9,12.88477 0,0.51901 -1.61017,3.11117 -4.8031997,7.73251 l -4.8032,6.95178 1.96155,3.00349 1.96156,3.0035 1.7166397,-0.15211 c 2.75686,-0.2443 18.5033,-1.03694 20.5994803,-1.03694 l 1.9157,0 0.92574,1.50451 c 1.61901,2.63122 1.29687,2.98424 -2.72974,2.99139 -1.26801,0.002 -2.6180103,0.12413 -3.0000003,0.27084 -1.1215,0.43072 -2.34168,1.74403 -2.53955,2.73337 -0.28998,1.4499 -1.25157,1.98415 -3.98092,2.21177 -3.82226,0.31876 -3.86151,0.37278 -2.41130997,3.31855 0.98606,2.00296 0.94239,2.86957 -0.14458,2.86957 -0.71858003,0 -1.80531003,-1.32491 -2.85879003,-3.48537 -0.33132,-0.67945 -0.82988,-1.42195 -1.10791,-1.65 -0.45045,-0.36946 -0.48721,-0.34354 -0.33744,0.23795 0.16667,0.64712 29.7471203,52.18492 30.2663703,52.73287 0.16743,0.17669 0.69897,-0.1302 1.39505,-0.80544 0.6185,-0.59998 1.97091,-1.45597 3.00536,-1.90218 1.53927,-0.66397 2.0568,-0.76042 2.85,-0.53112 0.91118,0.2634 0.96767,0.36017 0.94384,1.61673 -0.0302,1.59186 -1.04043,4.29535 -1.97803,5.29338 -0.65597,0.69825 -0.65934,0.73724 -0.1461,1.69025 0.28894,0.53654 0.82328,1.32659 1.18741,1.75568 l 0.66207,0.78015 24.238566,-0.38002 c 13.33121,-0.20901 24.28414,-0.43016 24.33983,-0.49145 0.10586,-0.11649 23.338849,-42.29971 26.941879,-48.91731 1.13968,-2.09323 2.23136,-3.93422 2.42594,-4.09108 0.19458,-0.15687 3.96503,-0.38328 8.37878,-0.50313 9.30879,-0.25279 9.29488,-0.25799 6.075,2.27241 -1.0725,0.84285 -1.95,1.76009 -1.95,2.03831 0,1.71119 2.46304,2.79978 5.71746,2.52694 1.83859,-0.15414 2.22385,-0.0959 2.95816,0.44697 0.81552,0.60294 1.31301,0.63152 14.61399,0.83966 l 13.76973,0.21548 2.6245,-2.85913 2.62449,-2.85913 3.52083,-0.21424 c 3.9191,-0.23848 4.79301,-0.53489 6.80905,-2.30947 0.98709,-0.86888 1.51641,-1.13906 1.95738,-0.99911 0.7038,0.22338 0.79992,1.23088 0.2013,2.10965 -0.44412,0.65195 -2.3707,5.86793 -2.22223,6.01641 0.0511,0.0511 9.24772,0.18925 20.43691,0.30702 16.34967,0.17209 20.37366,0.29134 20.49492,0.60738 0.083,0.21629 -1.07211,2.67757 -2.56692,5.4695 -1.49481,2.79194 -2.75649,5.24186 -2.80371,5.44428 -0.0517,0.2217 0.92427,0.71232 2.45487,1.23403 3.31929,1.13139 3.55161,1.36696 2.82177,2.86135 l -0.5625,1.15178 -2.862,0.16836 c -1.5741,0.0926 -3.00723,0.25812 -3.18477,0.36784 -0.58794,0.36336 -0.0574,1.65983 1.12806,2.75666 1.34166,1.24135 1.46262,1.83609 0.46575,2.29029 -0.54732,0.24938 -1.16163,0.17714 -2.775,-0.32631 -1.13961,-0.35563 -2.22684,-0.71176 -2.41608,-0.7914 -0.20019,-0.0842 -1.57416,2.05652 -3.28602,5.11988 -1.61811,2.89557 -3.11775,5.26468 -3.33255,5.26468 -0.21477,0 -2.58357,-2.76696 -5.26395,-6.14881 l -4.87344,-6.14881 -5.4,-0.002 c -18.34899,-0.006 -52.24543,-0.41886 -52.485,-0.63884 -0.18,-0.16528 -0.18,-0.35571 0,-0.51689 0.15675,-0.14036 13.35958,-0.19066 29.33961,-0.11178 l 29.05461,0.14342 4.63263,5.81178 c 2.54796,3.19647 4.73358,5.81178 4.85697,5.81178 0.12339,0 1.45293,-2.19375 2.95458,-4.875 1.59702,-2.85159 2.94072,-4.91718 3.23742,-4.97662 0.27894,-0.0559 1.13763,0.16309 1.90818,0.48662 0.77055,0.32353 1.806,0.67466 2.301,0.78029 l 0.9,0.19205 -0.8202,-0.6861 c -0.45108,-0.37736 -1.04526,-1.34673 -1.32039,-2.15415 -0.49413,-1.45016 -0.49194,-1.47474 0.17844,-2.01757 0.54147,-0.43847 1.20543,-0.54952 3.28539,-0.54952 2.55714,0 3.32676,-0.25107 3.32676,-1.08527 0,-0.20089 -1.2825,-0.79252 -2.85,-1.31473 -2.12358,-0.70748 -2.85,-1.08067 -2.85,-1.46417 0,-0.28308 1.21335,-2.7936 2.69634,-5.57893 1.48296,-2.78534 2.65053,-5.11002 2.59461,-5.16596 -0.0559,-0.0559 -9.13305,-0.18516 -20.17134,-0.28715 -11.8881,-0.10984 -20.21683,-0.30137 -20.43076,-0.46985 -0.27336,-0.21528 -0.0772,-1.08048 0.80703,-3.55918 0.64249,-1.80117 1.11773,-3.27481 1.05608,-3.27481 -0.0617,0 -0.81774,0.43875 -1.6802,0.975 -1.47007,0.91404 -1.7805,0.98438 -4.96529,1.125 l -3.39719,0.15 -2.92964,2.91376 -2.92964,2.91377 -14.18476,-0.18704 c -13.18556,-0.17387 -14.22957,-0.2259 -14.8209,-0.73877 -0.50979,-0.44214 -1.1484,-0.55303 -3.21524,-0.55831 -3.93148,-0.01 -6.3291,-1.42235 -6.3291,-3.72811 0,-0.78411 0.24551,-1.13716 1.38004,-1.98454 l 1.38004,-1.03076 -1.30504,-0.10224 c -0.71777,-0.0562 -3.73875,-0.009 -6.71328,0.10489 l -5.40823,0.20713 -2.67377,4.84511 c -1.47057,2.66481 -3.23564,5.85761 -3.92237,7.09511 -1.27376,2.29534 -4.47948,8.11274 -8.761789,15.9 -12.72157,23.1338 -13.60501,24.72026 -13.9798,25.1046 -0.3359,0.34445 -30.24186,1.00683 -44.618966,0.98826 l -5.52683,-0.007 -1.24068,-1.86786 z"
       id="path3979"
       inkscape:connector-curvature="0" />
  </g>
</svg>
