<?xml version="1.0" encoding="UTF-8" standalone="no"?>
<!-- Created with Inkscape (http://www.inkscape.org/) -->

<svg
   xmlns:dc="http://purl.org/dc/elements/1.1/"
   xmlns:cc="http://creativecommons.org/ns#"
   xmlns:rdf="http://www.w3.org/1999/02/22-rdf-syntax-ns#"
   xmlns:svg="http://www.w3.org/2000/svg"
   xmlns="http://www.w3.org/2000/svg"
   xmlns:sodipodi="http://sodipodi.sourceforge.net/DTD/sodipodi-0.dtd"
   xmlns:inkscape="http://www.inkscape.org/namespaces/inkscape"
   width="91.578316mm"
   height="70.815628mm"
   viewBox="0 0 324.4901 250.92152"
   id="svg4097"
   version="1.1"
   inkscape:version="0.91 r13725"
   sodipodi:docname="800.svg">
  <defs
     id="defs4099" />
  <sodipodi:namedview
     id="base"
     pagecolor="#ffffff"
     bordercolor="#666666"
     borderopacity="1.0"
     inkscape:pageopacity="0.0"
     inkscape:pageshadow="2"
     inkscape:zoom="0.35"
     inkscape:cx="162.24504"
     inkscape:cy="125.46076"
     inkscape:document-units="px"
     inkscape:current-layer="layer1"
     showgrid="false"
     inkscape:window-width="1600"
     inkscape:window-height="851"
     inkscape:window-x="0"
     inkscape:window-y="25"
     inkscape:window-maximized="1"
     fit-margin-top="0"
     fit-margin-left="0"
     fit-margin-right="0"
     fit-margin-bottom="0" />
  <metadata
     id="metadata4102">
    <rdf:RDF>
      <cc:Work
         rdf:about="">
        <dc:format>image/svg+xml</dc:format>
        <dc:type
           rdf:resource="http://purl.org/dc/dcmitype/StillImage" />
        <dc:title></dc:title>
      </cc:Work>
    </rdf:RDF>
  </metadata>
  <g
     inkscape:label="Layer 1"
     inkscape:groupmode="layer"
     id="layer1"
     transform="translate(-212.75496,-406.90144)">
    <path
       style="fill:#000000"
       d="m 303.19686,657.65399 c -0.10717,-0.17342 -4.20502,-0.2869 -10.35961,-0.2869 -12.24085,0 -11.38229,0.29528 -11.38229,-3.91467 l 0,-2.71466 -1.275,-0.57875 c -1.73363,-0.78692 -2.05772,-0.74625 -3.16615,0.39736 -0.92862,0.95809 -0.95885,1.07126 -0.95885,3.58945 0,3.19772 -0.17658,3.35975 -3.20781,2.94363 -1.1232,-0.15419 -3.55362,-0.37419 -5.40092,-0.4889 -3.6661,-0.22763 -4.12121,-0.43545 -5.07429,-2.31716 -0.26918,-0.53147 -1.12752,-2.0463 -1.90743,-3.3663 -0.7799,-1.32 -2.97512,-5.1 -4.87827,-8.4 -1.90314,-3.3 -6.37874,-11.02965 -9.94577,-17.17701 -3.56703,-6.14735 -6.48551,-11.33974 -6.48551,-11.53864 0,-0.1989 0.54893,-0.92096 1.21985,-1.60458 1.15628,-1.17817 1.22872,-1.36023 1.39009,-3.49387 0.10057,-1.32974 0.0508,-2.32475 -0.12158,-2.43129 -0.1605,-0.0992 -1.29229,0.35064 -2.51509,0.99963 -1.2228,0.64898 -2.5061,1.18353 -2.85177,1.18787 -0.80608,0.0101 -1.09355,-0.33677 -3.72255,-4.49211 -1.20051,-1.8975 -2.43389,-3.62641 -2.74085,-3.84201 -0.30696,-0.21561 -0.5581,-0.62801 -0.5581,-0.91644 0,-0.28844 0.94437,-1.86703 2.09861,-3.50799 1.15423,-1.64096 2.09923,-3.07961 2.1,-3.197 9e-4,-0.11739 0.50972,-0.35031 1.131,-0.51761 1.44514,-0.38913 3.79927,-1.87866 4.38599,-2.77514 0.24974,-0.3816 0.54479,-1.26215 0.65565,-1.95678 l 0.20159,-1.26296 -2.55327,0.18018 c -2.37143,0.16736 -2.57692,0.136 -2.88534,-0.4403 -0.18265,-0.34126 -0.26199,-0.79901 -0.17634,-1.01722 0.0857,-0.2182 1.89849,-1.81423 4.0285,-3.54673 2.13002,-1.7325 3.88195,-3.29264 3.89319,-3.46697 0.0112,-0.17433 -1.65983,-1.29926 -3.71347,-2.49984 -2.05364,-1.20058 -3.85853,-2.34045 -4.01088,-2.53304 -0.15235,-0.19258 -0.37014,-0.86663 -0.48397,-1.49789 -0.3266,-1.81107 0.0186,-2.00226 3.61547,-2.00226 3.08151,0 3.11327,-0.007 3.11327,-0.7161 0,-0.39385 -0.43875,-1.3726 -0.975,-2.175 l -0.975,-1.4589 -2.1,-0.15 -2.1,-0.15 -5.15998,-10.2 c -3.08105,-6.09049 -5.16603,-10.55687 -5.175,-11.08577 -0.0191,-1.12418 3.1071,-7.54792 3.87264,-7.95763 0.31509,-0.16863 1.45653,-0.3066 2.53652,-0.3066 l 1.96362,0 0.6061,-1.18805 c 0.33335,-0.65343 0.6061,-1.39952 0.6061,-1.65799 0,-0.25847 -2.98865,-5.8326 -6.64145,-12.38695 -3.65279,-6.55436 -8.37779,-15.03115 -10.5,-18.83732 -2.1222,-3.80617 -3.85855,-7.20582 -3.85855,-7.55478 0,-0.78857 1.10241,-1.20886 1.65439,-0.63074 0.21312,0.22321 3.76285,6.48083 7.8883,13.90583 4.12545,7.425 8.93032,16.065 10.67749,19.2 1.74718,3.135 3.17739,5.87282 3.17825,6.08404 0.003,0.66317 -1.52447,4.0905 -2.07669,4.66053 -0.37944,0.39169 -1.16267,0.59261 -2.78978,0.71567 l -2.26223,0.17109 -1.42149,2.88184 -1.42148,2.88184 4.83602,9.67749 4.83601,9.6775 1.67033,0 c 2.15304,0 2.59207,0.26028 3.93609,2.33355 0.93022,1.43494 1.13262,2.03841 1.23411,3.67952 0.0889,1.43829 0.009,2.05661 -0.3002,2.31297 -0.23606,0.19591 -1.66865,0.38819 -3.25536,0.43692 l -2.83376,0.087 4.2,2.5063 c 2.31,1.37847 4.29918,2.66097 4.42041,2.85 0.5443,0.84877 0.0399,1.53176 -3.07039,4.15767 l -3.29998,2.78603 1.57498,0.15 1.57498,0.15 -0.0172,2.4 c -0.0193,2.69411 -0.49655,3.93235 -2.01232,5.22076 -1.24748,1.06037 -3.56612,2.41787 -4.14044,2.42412 -0.44784,0.005 -3.58008,4.15246 -3.58008,4.74059 0,0.25959 3.97161,6.49069 4.50763,7.07207 0.1306,0.14165 1.45321,-0.39602 2.93914,-1.19482 2.66734,-1.4339 2.70962,-1.44517 3.32651,-0.8869 0.34366,0.31101 0.85248,1.28765 1.13072,2.17031 0.44629,1.41578 0.45934,1.84335 0.11086,3.62936 -0.44194,2.26496 -1.03132,3.62291 -1.68055,3.87204 -0.23887,0.0917 -0.43431,0.35965 -0.43431,0.59553 0,0.41866 5.27779,9.66504 18.98293,33.25694 2.76468,4.75909 3.90485,6.60974 4.17955,6.78394 0.15953,0.10116 1.52698,0.27355 3.03879,0.38308 1.5118,0.10952 3.38998,0.28039 4.17373,0.37971 l 1.425,0.18057 0,-1.71831 c 0,-2.15614 0.62173,-3.4908 2.24623,-4.82196 1.52315,-1.2481 2.75538,-1.34341 5.04816,-0.39047 2.46187,1.02322 2.66736,1.32829 2.73591,4.06165 0.0327,1.30389 0.14226,2.50468 0.24346,2.66843 0.11546,0.18682 3.57245,0.29319 9.28012,0.28554 l 9.09612,-0.0122 0.15,-3.39948 c 0.1678,-3.8029 0.41236,-4.25052 2.32224,-4.25052 1.09866,0 2.01718,0.40699 4.1173,1.82435 1.52071,1.02631 1.99269,1.77721 2.57748,4.10065 l 0.39641,1.575 6.01828,-3e-4 6.01829,-3e-4 0.83105,-1.4247 c 0.45709,-0.78358 2.55171,-4.25969 4.65473,-7.72469 5.59653,-9.22102 15.07957,-24.89761 17.83826,-29.48874 l 2.39672,-3.98873 -1.18697,-1.41127 c -1.70617,-2.02859 -1.88379,-2.48308 -1.88379,-4.82012 0,-3.40824 0.88567,-3.78937 4.21264,-1.81285 1.13715,0.67557 2.2213,1.17705 2.40922,1.11441 0.38673,-0.12891 1.77814,-3.37681 1.77814,-4.15062 0,-0.2783 -0.80832,-2.19579 -1.79627,-4.2611 -1.84692,-3.86098 -1.94032,-3.96479 -4.11924,-4.57808 -0.86185,-0.24258 -3.2396,-2.71377 -3.86277,-4.01455 -0.71721,-1.49709 -0.24262,-2.29012 1.71917,-2.87271 0.8624,-0.25611 1.80554,-0.46565 2.09585,-0.46565 0.74869,0 1.00435,-0.56469 0.36648,-0.80946 -1.1497,-0.44119 -6.88512,-3.7543 -7.43049,-4.29229 -0.43234,-0.42648 -0.50766,-0.71864 -0.3,-1.16368 0.1525,-0.32682 1.95853,-2.12205 4.01341,-3.98939 l 3.73614,-3.39518 -2.16286,-0.0882 c -1.91887,-0.0782 -2.21758,-0.17169 -2.64794,-0.8285 -1.03275,-1.57618 0.27803,-4.0917 2.88852,-5.54334 0.9075,-0.50465 2.02335,-1.14759 2.47968,-1.42876 0.59085,-0.36406 2.99589,-4.31089 8.35508,-13.71122 4.13898,-7.26 7.74813,-13.42302 8.02033,-13.69559 0.43873,-0.43934 1.92504,-0.51503 13.09491,-0.66687 6.93,-0.0942 19.51875,-0.17495 27.975,-0.17941 l 15.375,-0.008 0,-0.84656 c 0,-1.53228 0.87781,-3.52369 1.887,-4.2809 0.81854,-0.61415 1.36802,-0.73738 3.663,-0.82147 1.485,-0.0544 3.05875,0.0387 3.49721,0.20702 1.04042,0.39926 1.36677,1.75792 0.72182,3.00511 -0.25797,0.49885 -0.46903,1.16785 -0.46903,1.48666 0,0.55097 0.36003,0.5904 7.275,0.79681 16.4458,0.49091 18.19037,0.58985 18.65272,1.05793 0.29568,0.29934 0.50885,1.45872 0.65004,3.53541 0.20344,2.9923 0.23668,3.10376 1.05126,3.525 1.2592,0.65116 1.47098,0.54624 1.47098,-0.72876 0,-1.82048 1.29725,-4.32235 2.7343,-5.27334 l 1.22357,-0.80972 13.09606,-0.13568 c 7.20284,-0.0746 14.33864,-0.21122 15.85736,-0.30356 l 2.76126,-0.16789 0.61374,-1.04018 c 0.33753,-0.5721 0.61371,-1.09845 0.61371,-1.16968 0,-0.0712 -1.05378,-0.65933 -2.34174,-1.3069 -1.28793,-0.64757 -2.51559,-1.38691 -2.72811,-1.64298 -0.82059,-0.98872 0.65085,-5.06186 2.12112,-5.87153 0.78516,-0.4324 2.50935,-0.25831 7.75647,0.78317 0.6882,0.13659 0.89412,-0.0928 2.24316,-2.49878 0.81696,-1.45705 4.01973,-7.09986 7.11723,-12.53958 3.09753,-5.43972 5.63187,-9.99323 5.63187,-10.1189 0,-0.12568 -0.5454,-0.50675 -1.212,-0.84682 -2.24304,-1.14431 -2.20293,-1.46545 0.80223,-6.4215 2.89998,-4.78255 3.30213,-5.12096 5.07876,-4.27374 1.2576,0.59971 0.63549,1.47516 7.49448,-10.54666 2.94909,-5.16891 5.58513,-9.51743 5.85783,-9.66337 0.8112,-0.43415 1.62066,0.34886 1.29498,1.25264 -0.14646,0.40642 -2.95968,5.42763 -6.25161,11.15827 -4.46241,7.76824 -6.15258,10.46131 -6.64269,10.58432 -0.36153,0.0907 -1.08087,-0.054 -1.59849,-0.32169 -0.51762,-0.26767 -1.05891,-0.41386 -1.20288,-0.32488 -0.34134,0.21096 -3.92349,6.03989 -3.91113,6.36423 0.005,0.13667 0.61272,0.61456 1.35,1.06196 1.0251,0.62204 1.34052,0.99374 1.34052,1.57963 0,0.68332 -2.52225,5.26802 -12.79467,23.25691 -2.51676,4.40733 -2.70231,4.64882 -3.55533,4.62739 -0.86892,-0.0218 -3.4437,-0.46368 -6.06231,-1.04032 -0.69426,-0.15289 -1.45125,-0.20547 -1.68222,-0.11685 -0.43725,0.16779 -1.23495,2.37758 -0.99714,2.76233 0.0749,0.12112 1.23339,0.75521 2.57454,1.4091 3.05796,1.49093 3.21882,1.90298 1.78851,4.58143 -0.56175,1.05197 -1.17171,2.04088 -1.35546,2.19757 -0.19044,0.1624 -7.22094,0.43248 -16.35,0.62809 -13.30872,0.28516 -16.13294,0.41921 -16.7082,0.79304 -1.09841,0.71379 -1.85772,2.51875 -1.85772,4.41599 0,1.89152 -0.37771,2.84223 -1.12919,2.84223 -0.84462,0 -4.46937,-1.4901 -4.95737,-2.03793 -0.31798,-0.35696 -0.48754,-1.34519 -0.55979,-3.26244 -0.057,-1.51271 -0.20096,-2.84751 -0.31988,-2.96624 -0.24668,-0.24624 -10.27322,-0.68416 -19.56448,-0.85449 -5.69018,-0.10431 -6.32002,-0.16749 -6.6988,-0.67202 -0.41535,-0.55322 -0.37151,-2.42122 0.0923,-3.93188 0.20134,-0.65583 0.14707,-0.675 -1.91075,-0.675 -2.56631,0 -3.052,0.45888 -3.052,2.88352 0,1.07904 -0.17423,1.7652 -0.57342,2.25825 l -0.57343,0.70823 -28.00157,0.0972 c -20.94941,0.0727 -28.09096,0.18603 -28.35646,0.45 -0.63684,0.63317 -14.26416,24.6264 -14.5397,25.59963 -0.22506,0.79495 -0.66397,1.14816 -2.73674,2.20234 -2.60816,1.32648 -3.81868,2.24678 -3.81868,2.90315 0,0.30322 0.69848,0.39771 2.94,0.39771 3.01144,0 3.66,0.21806 3.66,1.2306 0,0.28083 -1.9575,2.29206 -4.35,4.4694 -2.3925,2.17734 -4.3455,4.04682 -4.34001,4.1544 0.005,0.10758 2.11345,1.33858 4.68434,2.73555 2.57089,1.39697 4.74788,2.73157 4.83775,2.96578 0.34721,0.9048 -0.46248,1.40229 -3.48084,2.13868 -1.67818,0.40942 -3.05124,0.84779 -3.05124,0.97413 0,0.55422 2.22234,2.63146 2.81527,2.63146 0.355,0 1.14312,0.33818 1.75139,0.75151 0.89009,0.60483 1.45685,1.48509 2.90386,4.51006 2.7494,5.74762 2.6653,5.24621 1.40271,8.36389 -0.59593,1.4715 -1.23273,2.85525 -1.4151,3.075 -0.58796,0.70843 -2.67979,0.46543 -4.30813,-0.50046 -0.825,-0.48937 -1.60125,-0.89207 -1.725,-0.89489 -0.12375,-0.003 -0.225,0.43804 -0.225,0.97966 0,0.75272 0.38882,1.45321 1.65,2.97263 0.9075,1.09332 1.65,2.21645 1.65,2.49585 0,0.2794 -0.83275,1.87797 -1.85055,3.55237 -2.12127,3.48976 -12.40876,20.49052 -19.68517,32.53107 -2.72109,4.50269 -5.16497,8.30268 -5.43085,8.44444 -0.77659,0.41403 -14.63779,0.53305 -15.04247,0.12917 -0.1872,-0.18684 -0.451,-1.19934 -0.58621,-2.25 -0.32779,-2.54706 -0.38987,-2.65845 -2.1097,-3.7853 -2.34992,-1.53968 -2.39505,-1.4955 -2.39505,2.34472 0,1.82585 -0.13125,3.56497 -0.29167,3.86471 -0.35258,0.6588 -1.12196,0.99803 -1.36643,0.60247 z m -22.40012,-35.59241 c -0.26756,-0.29947 -0.78129,-1.52065 -1.14161,-2.71374 -0.56069,-1.85658 -0.83265,-2.29981 -1.88674,-3.075 -1.86603,-1.37229 -2.01343,-1.26617 -2.01343,1.44948 0,2.43677 -0.38161,4.09678 -0.99596,4.3325 -0.19472,0.0747 -1.69569,0.0226 -3.33549,-0.11572 -2.24083,-0.18908 -3.10671,-0.38453 -3.48571,-0.78679 -0.71031,-0.75391 -10.12564,-16.07505 -10.65032,-17.33077 -0.62338,-1.49197 -0.57462,-1.67384 0.91748,-3.42188 1.2393,-1.45188 1.35,-1.71485 1.35,-3.20707 0,-0.89402 -0.11465,-1.6255 -0.25479,-1.6255 -0.14013,0 -1.16629,0.48371 -2.28034,1.07491 -2.60088,1.38022 -3.14138,1.25997 -4.17808,-0.92959 -0.43274,-0.91395 -0.78679,-1.79442 -0.78679,-1.9566 0,-0.16219 1.89073,-3.83701 4.20163,-8.16626 2.31089,-4.32926 4.07337,-7.91412 3.91663,-7.96638 -0.15675,-0.0522 -0.55361,0.0488 -0.88191,0.22446 -0.8594,0.45994 -2.31998,0.39298 -2.84331,-0.13036 -0.63436,-0.63436 -0.94593,-3.55688 -0.52793,-4.95204 0.18802,-0.62754 0.9551,-1.82307 1.70463,-2.65673 l 1.36278,-1.51574 -3.34982,-5.63156 c -1.84239,-3.09736 -3.46004,-5.9215 -3.59477,-6.27585 -0.17959,-0.47235 0.003,-1.11451 0.68276,-2.40628 1.56101,-2.96476 10.17227,-18.23464 10.53687,-18.68445 0.35253,-0.43491 16.81785,-0.38679 59.10349,0.17276 l 14.96106,0.19798 2.8631,4.37586 c 1.57472,2.40673 2.91935,4.65408 2.98808,4.99412 0.0687,0.34003 -0.0961,0.80172 -0.36632,1.02597 -0.41925,0.34794 -0.89787,0.29028 -3.26437,-0.39325 -1.5252,-0.44054 -2.93498,-0.80097 -3.13285,-0.80097 -0.23856,0 -0.35975,0.58964 -0.35975,1.75041 0,1.56277 0.0955,1.83551 0.89098,2.54428 0.49005,0.43663 1.15681,1.31493 1.48171,1.95178 0.50114,0.9823 0.53352,1.26751 0.21358,1.88071 -0.78789,1.51009 -8.3985,14.24464 -8.7831,14.69644 -0.58044,0.68187 -0.50163,1.11736 0.33766,1.86577 1.04805,0.93456 2.01465,4.87137 1.89781,7.72946 -0.11756,2.87564 -0.40956,3.06547 -3.23539,2.10342 -1.15934,-0.39469 -2.15723,-0.66242 -2.21752,-0.59495 -0.0603,0.0675 1.76894,3.49768 4.06499,7.62268 3.83385,6.88777 4.16067,7.59423 4.00371,8.65435 -0.26603,1.79684 -0.95209,3.19565 -1.56733,3.19565 -0.29893,0 -1.44908,-0.6075 -2.55588,-1.35 -1.10681,-0.7425 -2.14851,-1.35 -2.31489,-1.35 -0.16637,0 -0.5202,0.33226 -0.78628,0.73834 -0.45253,0.69065 -0.44206,0.8219 0.16212,2.03165 0.35525,0.71131 1.05309,1.75967 1.55076,2.32968 1.13477,1.2997 1.06594,1.68859 -0.95588,5.40033 -0.85383,1.5675 -2.22993,4.1325 -3.058,5.7 -3.78141,7.158 -4.5677,8.60327 -5.10042,9.375 -0.55901,0.80983 -0.62638,0.825 -3.66233,0.825 -3.84117,0 -3.87851,-0.0341 -4.02194,-3.66675 -0.11273,-2.85526 -0.29302,-3.16177 -1.65822,-2.81913 -1.04925,0.26335 -1.72365,1.51931 -1.9963,3.71779 -0.13753,1.109 -0.45038,2.15734 -0.72615,2.43327 -0.42837,0.42865 -2.00526,0.49577 -13.60996,0.57931 -12.36845,0.089 -13.15352,0.0631 -13.61195,-0.45 z m 25.89273,-3.55609 c 0.40209,-3.29411 2.37952,-5.2384 5.32768,-5.2384 1.97314,0 2.26269,0.45168 2.43549,3.79912 l 0.15232,2.95088 1.94735,0 1.94735,0 4.61048,-8.65011 4.61047,-8.65011 -0.9435,-1.31379 c -1.93992,-2.7013 -2.32895,-4.85147 -1.14715,-6.34034 0.37125,-0.46772 0.82447,-1.11933 1.00715,-1.44802 0.55284,-0.99469 1.29388,-0.86992 3.40649,0.57357 1.10987,0.75834 2.10647,1.3788 2.21465,1.3788 0.68659,0 -0.35382,-2.22757 -4.65137,-9.95882 -5.01582,-9.02341 -5.21064,-9.54527 -3.65096,-9.77988 0.32432,-0.0488 1.65745,0.32247 2.96251,0.825 3.22622,1.2423 3.25828,1.23606 3.04173,-0.59238 -0.0981,-0.82834 -0.41156,-2.24584 -0.69657,-3.15 -0.45929,-1.45703 -0.61011,-1.64392 -1.32668,-1.64392 -0.96155,0 -1.61062,-0.67556 -1.4049,-1.46224 0.0813,-0.31098 2.32476,-4.21878 4.98541,-8.68399 2.66065,-4.46521 4.83754,-8.32447 4.83754,-8.57615 0,-0.25168 -0.6075,-1.1416 -1.35,-1.97762 -1.25362,-1.41151 -1.35,-1.63834 -1.35,-3.17717 0,-2.18939 0.54629,-4.27298 1.21402,-4.63033 0.37741,-0.20199 1.13533,-0.1033 2.5409,0.33083 1.10169,0.34028 2.05078,0.57097 2.1091,0.51265 0.0583,-0.0583 -0.69009,-1.34549 -1.66313,-2.86037 l -1.76918,-2.75432 -7.14085,-0.0911 c -9.52771,-0.12151 -46.86043,-0.36881 -56.63392,-0.37515 l -7.79305,-0.005 -1.07531,1.95 c -0.59142,1.0725 -2.40392,4.3125 -4.02777,7.2 -1.62384,2.8875 -3.47534,6.21353 -4.11444,7.39117 l -1.16199,2.14116 3.60781,6.09171 c 1.98429,3.35043 3.60781,6.39396 3.60781,6.7634 0,0.40822 -0.3635,0.93054 -0.92668,1.33156 -2.0918,1.48949 -3.50823,4.77945 -2.26337,5.25714 0.22547,0.0865 1.38687,-0.2795 2.58089,-0.81339 2.25556,-1.00854 3.0363,-0.97282 3.25705,0.14902 0.0538,0.2736 -2.08104,4.56932 -4.74417,9.54606 -3.64001,6.80227 -4.79864,9.22158 -4.66717,9.74538 0.0962,0.38324 0.32051,0.69679 0.49849,0.69679 0.17799,0 1.428,-0.54725 2.7778,-1.2161 1.4897,-0.73817 2.65396,-1.13944 2.96251,-1.02103 0.67563,0.25926 0.90979,1.67808 0.7809,4.73164 -0.10236,2.42512 -0.14743,2.56283 -1.23125,3.76224 -0.61875,0.68474 -1.125,1.42049 -1.125,1.63501 0,0.21452 0.71565,1.53038 1.59034,2.92413 0.87468,1.39376 2.98387,4.82911 4.68709,7.63411 1.70321,2.805 3.42509,5.40375 3.82639,5.775 0.56597,0.52359 1.08685,0.675 2.32213,0.675 l 1.59249,0 0.19078,-1.39187 c 0.10493,-0.76553 0.19078,-2.03839 0.19078,-2.82857 0,-1.9795 0.55158,-2.48417 2.52909,-2.31402 1.17963,0.1015 1.87642,0.39492 3.10525,1.30766 1.35761,1.00839 1.65269,1.41294 2.06191,2.8268 0.87043,3.00731 -0.57451,2.7172 13.09112,2.62839 l 12.06263,-0.0784 0.18451,-1.5116 z M 256.92996,515.10094 c -0.37125,-0.17905 -0.675,-0.43991 -0.675,-0.57969 0,-0.13979 -0.32831,-0.25416 -0.72957,-0.25416 -0.45381,0 -0.95111,-0.31183 -1.31568,-0.825 -0.32236,-0.45375 -4.13184,-6.765 -8.46551,-14.025 -4.33368,-7.26 -10.07307,-16.86471 -12.7542,-21.34379 -2.68114,-4.47909 -4.9589,-8.40878 -5.06169,-8.73265 -0.2298,-0.72403 0.48675,-1.39013 1.2387,-1.15147 0.29746,0.0944 2.09103,2.77181 3.98573,5.94978 15.18216,25.46511 22.30956,37.33022 22.60532,37.63152 0.19117,0.19474 0.71725,0.28005 1.1719,0.19002 l 0.825,-0.16335 0,-3.20503 c 0,-2.0928 0.12493,-3.32996 0.36,-3.56503 0.63338,-0.63338 3.2406,-0.27726 4.66929,0.63779 0.65657,0.42052 1.5638,2.51991 1.80085,4.1673 l 0.22806,1.58491 17.8459,0.0829 c 9.81524,0.0456 18.14965,0.009 18.5209,-0.0807 0.598,-0.14494 0.675,-0.35117 0.675,-1.80788 0,-1.73653 -0.0446,-1.66284 2.21984,-3.66929 0.91907,-0.81437 1.33976,-0.975 2.55352,-0.975 0.85821,0 1.59161,0.1668 1.79129,0.40741 0.18597,0.22408 0.55587,1.33783 0.822,2.475 0.26614,1.13718 0.61251,2.58976 0.76971,3.22798 l 0.28582,1.16038 15.50391,-0.18804 c 8.52715,-0.10342 19.35141,-0.25346 24.05391,-0.33342 4.7025,-0.08 18.0675,-0.2296 29.7,-0.33253 l 21.15,-0.18716 2.80561,-1.67004 c 1.54308,-0.91852 2.86899,-1.83521 2.94646,-2.0371 0.0775,-0.20188 -0.32794,-1.08828 -0.90091,-1.96977 -1.54248,-2.37304 -31.54794,-50.16393 -33.10966,-52.73506 -0.92996,-1.53104 -0.9915,-1.80196 -0.9915,-4.365 0,-2.93415 0.21834,-3.45265 1.45389,-3.45265 0.45598,0 1.28042,-0.51122 2.17715,-1.35 0.79379,-0.7425 1.64843,-1.35 1.89919,-1.35 0.56127,0 1.49368,-1.3568 1.22792,-1.78681 -0.11441,-0.18515 -1.47008,-0.31322 -3.3153,-0.31322 -2.7368,0 -3.15858,-0.0688 -3.42049,-0.55821 -0.4101,-0.76629 0.33391,-6.83469 0.90401,-7.37341 0.30571,-0.28888 2.42779,-0.49623 7.62363,-0.74493 3.96,-0.18954 7.90209,-0.42208 8.76019,-0.51675 l 1.56019,-0.17213 5.77118,-10.84229 c 7.04135,-13.22853 6.99836,-13.15714 7.84908,-13.0361 0.39824,0.0567 0.69453,0.33979 0.74816,0.71492 0.0517,0.36161 -2.6435,5.75078 -6.4509,12.89885 l -6.53971,12.27775 -1.19909,0.20864 c -0.65951,0.11476 -4.5741,0.36449 -8.6991,0.55498 -4.125,0.19048 -7.60055,0.44066 -7.72345,0.55595 -0.12289,0.11529 -0.25789,1.08107 -0.3,2.14618 l -0.0765,1.93655 3.15,0.082 c 2.5256,0.0657 3.22433,0.18116 3.525,0.58234 0.97516,1.30117 -0.0389,3.85967 -1.99582,5.03569 -0.54914,0.33 -1.57831,1.17375 -2.28705,1.875 -0.70874,0.70125 -1.57065,1.275 -1.91537,1.275 -0.56388,0 -0.62676,0.17515 -0.62676,1.74587 0,1.71085 0.07,1.85678 3.48939,7.275 1.91917,3.04102 7.68136,12.21163 12.80487,20.37913 5.1235,8.1675 11.45263,18.25645 14.06471,22.41988 2.61208,4.16344 4.90381,7.90914 5.09273,8.32378 0.48067,1.05495 -0.0723,1.5843 -4.25038,4.06854 l -3.45132,2.05214 -12.6,0.16657 c -6.93,0.0916 -20.565,0.2353 -30.3,0.31928 -9.735,0.084 -24.7875,0.237 -33.45,0.34002 -15.16406,0.18035 -15.76847,0.16635 -16.24644,-0.37645 -0.27304,-0.31007 -0.76885,-1.82908 -1.1018,-3.37558 -0.33296,-1.54649 -0.73937,-2.9458 -0.90314,-3.10957 -0.19702,-0.19702 -0.71238,0.0354 -1.52319,0.68702 -1.19539,0.96064 -1.22543,1.03021 -1.22543,2.83807 0,3.10048 1.84869,2.84698 -20.72362,2.8417 -10.79451,-0.002 -19.80584,-0.11837 -20.02518,-0.25742 -0.21934,-0.13905 -0.50948,-1.11573 -0.64475,-2.17041 -0.39302,-3.06429 -0.96316,-4.15233 -2.18145,-4.16299 -0.46411,-0.004 -0.52553,0.33468 -0.52959,2.92041 -0.002,1.60875 -0.12813,3.12025 -0.27911,3.35889 -0.15098,0.23864 -0.92516,0.52435 -1.7204,0.63492 l -1.4459,0.20102 1.20825,0.0401 c 0.66454,0.0221 1.49526,-0.16095 1.84606,-0.40666 0.58847,-0.41218 0.62615,-0.40213 0.48701,0.12993 -0.0829,0.31717 -0.59657,0.7882 -1.1414,1.04674 -1.1315,0.53693 -0.993,0.52926 -1.87492,0.10392 z m 212.325,-1.61754 c -0.4125,-0.0516 -9.89558,-0.135 -21.0735,-0.18537 l -20.3235,-0.0916 -0.70799,-0.74469 c -0.3894,-0.40957 -2.16577,-3.03968 -3.9475,-5.84468 -1.78173,-2.805 -3.89381,-6.12497 -4.69351,-7.37771 -2.01373,-3.15453 -1.97501,-3.41451 0.80589,-5.41161 0.73706,-0.52928 1.34011,-1.07448 1.34011,-1.21151 0,-0.13702 -1.02816,-0.24914 -2.28481,-0.24914 -2.14119,0 -2.37522,-0.0664 -3.72324,-1.05591 -1.20236,-0.88261 -1.98716,-1.98665 -4.782,-6.72721 -1.83897,-3.11923 -3.53851,-5.8331 -3.77676,-6.03083 -0.23826,-0.19774 -0.43319,-0.59724 -0.43319,-0.88779 0,-0.29056 -0.27,-0.59889 -0.6,-0.68518 -0.542,-0.14174 -0.6,-0.40921 -0.6,-2.76709 0,-2.36822 -0.0487,-2.59015 -0.525,-2.39405 -1.09232,0.44969 -1.43898,0.46556 -1.90952,0.0874 -0.26648,-0.21415 -3.01768,-4.7078 -6.11377,-9.98589 -5.21615,-8.89226 -5.60608,-9.65794 -5.31334,-10.43349 0.17376,-0.46034 2.27279,-4.37691 4.6645,-8.70348 18.46853,-33.40925 17.40378,-31.56088 18.23631,-31.65774 1.03414,-0.12031 1.29717,0.60606 0.66456,1.83523 -0.41708,0.81039 -3.73324,6.827 -19.64458,35.64177 -0.96754,1.75217 -1.75916,3.29028 -1.75916,3.41801 0,0.30353 9.57151,16.673 10.0573,17.20029 0.30762,0.33391 0.70134,0.16462 2.26751,-0.975 1.04238,-0.75849 2.18971,-1.37907 2.54961,-1.37907 0.87138,0 2.22558,1.79998 2.22558,2.95821 0,0.8966 -1.13018,2.14179 -1.94396,2.14179 -0.7688,0 -1.3006,1.08072 -1.40244,2.85 -0.0966,1.6779 -0.0575,1.80654 0.57549,1.8964 0.5282,0.075 1.44192,1.38207 4.1124,5.88286 1.9841,3.34397 3.88625,6.18415 4.50635,6.7286 l 1.07304,0.94214 3.82956,0 c 4.02265,0 4.54956,0.15683 4.54956,1.35412 0,0.45685 -0.7967,1.20828 -2.85,2.68806 -1.5675,1.12967 -2.85,2.12071 -2.85,2.20231 0,0.0816 2.02997,3.3456 4.51105,7.25335 l 4.51104,7.105 11.91396,0.19817 c 6.55267,0.10899 18.28954,0.19835 26.08193,0.19858 l 14.16799,3e-4 2.97911,-4.01759 c 1.63851,-2.20967 3.14091,-4.31989 3.33864,-4.68938 0.21834,-0.40798 0.31371,-1.48266 0.24285,-2.73669 -0.10452,-1.84982 -0.21714,-2.16537 -1.08126,-3.02949 -0.53052,-0.53052 -1.47099,-1.10667 -2.08995,-1.28033 -0.97677,-0.27406 -1.12536,-0.4333 -1.12536,-1.20613 0,-0.81623 0.096,-0.89828 1.15254,-0.98514 0.63387,-0.0521 1.55838,0.0467 2.05446,0.21966 0.49605,0.17293 1.73241,0.3956 2.74746,0.49483 1.82856,0.17875 1.85031,0.1718 2.36289,-0.75566 2.95014,-5.33776 8.73465,-16.75267 9.07134,-17.90093 0.52374,-1.78639 0.35355,-4.02188 -0.34557,-4.53815 -0.2793,-0.20625 -0.81072,-0.375 -1.18092,-0.375 -0.37023,0 -1.0284,-0.13507 -1.46259,-0.30015 -0.62991,-0.23948 -0.77025,-0.46683 -0.69453,-1.125 0.0923,-0.80254 0.14361,-0.82382 1.89492,-0.78693 0.99,0.0208 2.53095,0.0884 3.42435,0.15 l 1.62435,0.11208 5.96505,-8.39613 c 3.28077,-4.61787 6.16812,-8.50978 6.41634,-8.6487 0.55239,-0.30913 1.31991,0.26123 1.31991,0.98085 0,0.55937 -11.66964,17.23558 -12.65829,18.08898 -0.3345,0.28875 -0.89796,0.525 -1.25211,0.525 -0.58284,0 -0.63333,0.13332 -0.53214,1.40543 0.17916,2.25281 -0.53604,4.46198 -2.89581,8.94457 -1.21605,2.31 -3.43746,6.53608 -4.93647,9.39129 -1.49904,2.85521 -2.99091,5.33333 -3.3153,5.50695 -0.32442,0.17361 -1.07808,0.23732 -1.67487,0.14157 l -1.08501,-0.17408 0.0928,3.60452 0.0928,3.60453 -3.04149,4.11261 c -1.67283,2.26193 -3.44682,4.55136 -3.94221,5.08761 l -0.90072,0.975 -5.60062,-0.045 c -3.08035,-0.0246 -5.93813,-0.087 -6.35063,-0.13863 z m -61.8,-43.91631 c 0,-0.165 -0.0595,-0.3 -0.13229,-0.3 -0.0728,0 -0.21573,0.135 -0.31771,0.3 -0.10198,0.165 -0.0424,0.3 0.13229,0.3 0.17474,0 0.31771,-0.135 0.31771,-0.3 z m -33.6,-19.8 c 0,-0.165 0.25556,-0.3 0.5679,-0.3 0.31235,0 0.65145,-0.2177 0.75355,-0.48379 0.15035,-0.39179 0.27054,-0.41333 0.6321,-0.11326 0.83836,0.69577 0.5228,1.19705 -0.75355,1.19705 -0.66,0 -1.2,-0.135 -1.2,-0.3 z"
       id="path4086"
       inkscape:connector-curvature="0" />
  </g>
</svg>
