<?xml version="1.0" encoding="UTF-8" standalone="no"?>
<!-- Created with Inkscape (http://www.inkscape.org/) -->

<svg
   xmlns:dc="http://purl.org/dc/elements/1.1/"
   xmlns:cc="http://creativecommons.org/ns#"
   xmlns:rdf="http://www.w3.org/1999/02/22-rdf-syntax-ns#"
   xmlns:svg="http://www.w3.org/2000/svg"
   xmlns="http://www.w3.org/2000/svg"
   xmlns:sodipodi="http://sodipodi.sourceforge.net/DTD/sodipodi-0.dtd"
   xmlns:inkscape="http://www.inkscape.org/namespaces/inkscape"
   width="97.804993mm"
   height="45.017841mm"
   viewBox="0 0 346.55312 159.51204"
   id="svg4224"
   version="1.1"
   inkscape:version="0.91 r13725"
   sodipodi:docname="900.svg">
  <defs
     id="defs4226" />
  <sodipodi:namedview
     id="base"
     pagecolor="#ffffff"
     bordercolor="#666666"
     borderopacity="1.0"
     inkscape:pageopacity="0.0"
     inkscape:pageshadow="2"
     inkscape:zoom="0.35"
     inkscape:cx="173.27656"
     inkscape:cy="79.756021"
     inkscape:document-units="px"
     inkscape:current-layer="layer1"
     showgrid="false"
     inkscape:window-width="1600"
     inkscape:window-height="851"
     inkscape:window-x="0"
     inkscape:window-y="25"
     inkscape:window-maximized="1"
     fit-margin-top="0"
     fit-margin-left="0"
     fit-margin-right="0"
     fit-margin-bottom="0" />
  <metadata
     id="metadata4229">
    <rdf:RDF>
      <cc:Work
         rdf:about="">
        <dc:format>image/svg+xml</dc:format>
        <dc:type
           rdf:resource="http://purl.org/dc/dcmitype/StillImage" />
        <dc:title></dc:title>
      </cc:Work>
    </rdf:RDF>
  </metadata>
  <g
     inkscape:label="Layer 1"
     inkscape:groupmode="layer"
     id="layer1"
     transform="translate(-201.72344,-452.60618)">
    <path
       style="fill:#000000"
       d="m 508.15428,610.97589 c -1.0725,-0.64291 -2.10543,-1.17158 -2.29536,-1.17481 -0.18996,-0.003 -0.62415,0.46663 -0.96489,1.04413 -0.34578,0.58606 -0.85983,1.05 -1.16337,1.05 -0.55323,0 -2.77638,-1.94918 -2.77638,-2.43422 0,-0.14618 -0.64125,-0.26785 -1.425,-0.27037 -0.78375,-0.002 -1.61337,-0.12387 -1.84356,-0.26964 -0.40347,-0.25547 -0.3579,-1.24102 0.11367,-2.45915 0.24498,-0.63279 -1.81782,-1.9638 -5.30199,-3.4211 -3.05925,-1.27957 -3.43827,-1.61759 -2.91678,-2.60134 0.89145,-1.68167 12.07065,-19.93826 12.45096,-20.33347 0.37077,-0.3853 0.48312,-0.37887 0.91434,0.0524 0.45552,0.45551 0.45552,0.58191 0,1.72035 -0.76983,1.92398 -0.68802,2.11658 0.89895,2.11658 1.10718,0 1.53588,-0.15676 2.10342,-0.76913 0.43935,-0.47407 0.9129,-0.70813 1.23441,-0.61011 0.41682,0.12709 0.92877,-0.62192 2.54868,-3.72878 l 2.02707,-3.8878 -0.60207,-0.60209 c -0.36951,-0.36948 -0.6021,-1.00089 -0.6021,-1.63438 0,-1.31785 -0.46437,-1.59972 -1.31655,-0.79914 -0.85773,0.8058 -1.12653,0.79358 -1.95558,-0.0889 l -0.67674,-0.72034 8.73762,-16.90466 c 4.8057,-9.29757 8.68449,-17.10717 8.61951,-17.35467 -0.10782,-0.41066 -7.21257,-11.31849 -24.42543,-37.5 -6.04611,-9.19639 -6.40215,-9.81594 -6.27015,-10.91128 0.0929,-0.7712 0.45876,-1.49022 1.08903,-2.14048 0.64131,-0.66165 0.9165,-1.20929 0.84867,-1.68872 -0.1554,-1.09847 -1.14426,-1.02131 -2.72841,0.21289 -0.77448,0.6034 -1.59873,1.02396 -1.83162,0.93458 -0.23292,-0.0894 -2.22315,-2.67001 -4.4227,-5.73475 l -3.9992,-5.57229 -12.19749,0 c -9.39436,0 -12.268,-0.0862 -12.50431,-0.375 -0.16875,-0.20625 -0.46403,-2.57812 -0.65619,-5.27082 -0.28091,-3.93637 -0.27429,-4.98629 0.0338,-5.35748 0.33258,-0.40073 1.16119,-0.43318 6.27883,-0.24586 l 5.89569,0.2158 1.66389,-2.55263 1.66389,-2.55263 3.10173,-0.20871 c 4.67996,-0.31491 10.8552,-0.0912 11.46415,0.41523 0.27636,0.22985 6.79845,9.74735 14.49357,21.15 7.69515,11.40266 17.70633,26.23102 22.2471,32.95193 l 8.25594,12.21983 1.09608,-0.17527 c 0.87525,-0.13996 1.4283,0.0122 2.74476,0.75517 0.90675,0.51174 1.79793,0.93044 1.98039,0.93044 0.18246,0 0.37404,-0.43875 0.42573,-0.975 0.0816,-0.84665 0.2166,-0.98695 1.02519,-1.06574 1.05999,-0.10329 3.11883,0.96638 3.11883,1.62037 0,0.27752 0.34434,0.42037 1.01328,0.42037 1.37283,0 1.809,0.6029 1.59033,2.19826 l -0.17679,1.2899 1.64664,0.80759 c 0.90567,0.44418 1.72815,1.01995 1.82775,1.27949 0.10458,0.27254 -0.18888,1.00056 -0.69465,1.72332 -0.48165,0.68829 -1.46232,2.09178 -2.17929,3.11885 l -1.30356,1.86742 1.99833,3.06169 c 2.30718,3.53493 2.26725,3.85549 -0.50895,4.08571 -1.47318,0.12218 -1.67346,0.0628 -2.24712,-0.6665 l -0.62976,-0.80062 -0.0931,1.29244 -0.0931,1.29245 -2.25,-0.10403 -2.25,-0.10403 1.01469,1.05926 c 1.17789,1.22964 1.10934,1.68662 -0.39939,2.66187 -1.46145,0.94468 -1.55829,1.48862 -0.47595,2.67363 0.99669,1.09122 1.21482,2.48239 0.43611,2.78121 -0.261,0.10016 -1.0452,0.1821 -1.74267,0.1821 -0.69747,0 -1.48311,0.16875 -1.74588,0.375 -0.26277,0.20625 -3.03333,5.1 -6.15678,10.875 -13.86906,25.64263 -12.84105,23.62983 -12.24771,23.98071 2.24628,1.32835 2.41758,1.52161 2.41758,2.7272 0,1.6434 -1.0368,2.15773 -3.52128,1.74684 -0.9597,-0.15872 -1.80738,-0.2261 -1.88373,-0.14974 -0.0764,0.0764 0.60666,0.82648 1.51785,1.66692 l 1.65669,1.52807 -0.32775,1.95 c -0.49002,2.91556 -0.70749,3.3008 -1.86036,3.29541 -0.53979,-0.002 -1.17747,-0.12862 -1.41711,-0.28021 -0.8256,-0.52229 -0.92811,0.0318 -0.17205,0.93031 1.19373,1.41867 0.83511,2.35449 -0.90225,2.35449 -1.38426,0 -1.46481,0.30984 -0.28842,1.10922 1.26291,0.85817 1.33413,1.60954 0.28314,2.98746 -0.97974,1.28453 -1.58571,1.25209 -4.03473,-0.216 z m 2.92023,-1.09133 c 0.0592,-0.17773 -0.37467,-0.62127 -0.96423,-0.98564 -2.35608,-1.45615 -2.38467,-2.08142 -0.13218,-2.89141 1.59042,-0.57191 1.71948,-0.73692 1.02618,-1.3123 -0.49023,-0.40686 -0.62247,-1.8 -0.17088,-1.8 0.15354,0 0.32229,-0.30375 0.375,-0.675 0.13014,-0.91624 1.23672,-1.03308 2.24826,-0.23739 0.9873,0.7766 1.20666,0.57284 1.46034,-1.35654 l 0.19971,-1.51893 -1.53123,-1.16771 c -1.81878,-1.38704 -2.03367,-2.40564 -0.72471,-3.43526 0.71229,-0.56029 1.04511,-0.61086 2.85,-0.43301 2.31633,0.22825 2.74434,-0.17528 0.97158,-0.91599 -1.02786,-0.42946 -2.19711,-1.52179 -2.21808,-2.07214 -0.0249,-0.65539 19.02303,-35.34911 19.70034,-35.88188 0.4128,-0.32471 1.21854,-0.67818 1.79058,-0.78549 l 1.04001,-0.19511 -0.80787,-0.84325 c -1.0257,-1.07059 -0.82962,-2.08744 0.67632,-3.50772 l 1.06833,-1.00759 -0.63522,-0.5918 c -0.88653,-0.82595 -1.13646,-2.00979 -0.54843,-2.59783 0.33186,-0.33184 1.05552,-0.47342 2.43891,-0.47714 l 1.96704,-0.005 0,-0.9742 c 0,-0.85583 0.13368,-1.01832 1.10022,-1.3373 1.05726,-0.34894 1.13043,-0.32633 1.875,0.57943 0.76863,0.93505 1.72749,1.29813 1.43835,0.54464 -0.0828,-0.21587 -0.83976,-1.44819 -1.6821,-2.73849 -0.84231,-1.2903 -1.53147,-2.44484 -1.53147,-2.56564 0,-0.22607 0.68325,-1.27705 2.78385,-4.28221 0.66465,-0.95086 1.11378,-1.82354 0.99804,-1.93928 -0.11574,-0.11574 -0.84528,-0.5552 -1.62117,-0.97658 -1.20873,-0.65646 -1.40745,-0.89423 -1.38783,-1.66073 0.0126,-0.49201 0.0801,-1.09387 0.15,-1.33745 0.0794,-0.27675 -0.11739,-0.48037 -0.5247,-0.54283 -0.48966,-0.0751 -0.67623,0.0724 -0.75,0.59288 -0.0727,0.51284 -0.29304,0.69284 -0.84819,0.69284 -0.69822,0 -0.75,-0.10176 -0.75,-1.47358 0,-1.68138 -0.6522,-2.28919 -0.80463,-0.74989 -0.16548,1.67085 -0.78798,1.72626 -3.50619,0.31209 -1.93437,-1.00636 -2.54772,-1.20164 -3.00519,-0.95681 -1.30656,0.69924 -2.13351,-0.0819 -5.63172,-5.31949 -1.84125,-2.75709 -11.87067,-17.63513 -22.28757,-33.06263 l -18.93984,-28.05 -1.26243,-0.20902 c -0.69434,-0.11496 -3.6077,-0.12781 -6.47413,-0.0286 l -5.2117,0.18046 -1.61507,2.50356 c -0.9842,1.52564 -1.81945,2.50925 -2.1383,2.51813 -2.57683,0.0718 -9.42553,-0.0663 -10.19823,-0.20558 l -0.975,-0.17576 0.0351,2.20839 c 0.0193,1.21461 0.12054,3.08588 0.225,4.15838 l 0.18994,1.95 12.1222,0.0161 c 11.65453,0.0155 12.13865,0.0387 12.54844,0.6 0.23443,0.32112 1.9087,2.67636 3.72058,5.23386 1.81191,2.5575 3.41898,4.77585 3.57126,4.92967 0.17058,0.17232 0.78723,-0.0868 1.60623,-0.675 0.73116,-0.52507 1.64481,-0.94982 2.03034,-0.94389 1.08021,0.0166 2.34612,1.22696 2.5413,2.42973 0.14922,0.91949 0.0153,1.23191 -1.05978,2.47418 -0.67683,0.78199 -1.23057,1.585 -1.23057,1.78446 0,0.19946 1.19169,2.1825 2.64819,4.40675 1.4565,2.22425 8.3586,12.7516 15.33801,23.3941 6.97938,10.6425 12.82515,19.6445 12.9906,20.00446 0.25617,0.55737 -0.92442,3.02622 -7.95789,16.64158 l -8.2587,15.98712 0.79488,0.49047 c 1.19322,0.73624 1.89237,1.63938 2.12034,2.73909 0.23958,1.15543 -0.20286,1.94634 10.77528,-19.26271 5.02542,-9.70875 6.72978,-12.75001 7.14534,-12.75001 0.98454,0 0.76863,0.99001 -0.89796,4.11722 -1.54923,2.90702 -10.08348,19.35463 -17.34606,33.43011 -3.07326,5.95624 -3.77406,6.97168 -4.50132,6.52222 -0.16233,-0.10032 -0.5985,0.10261 -0.9693,0.45095 -0.85737,0.80545 -3.39486,1.01354 -4.69296,0.38485 -0.49794,-0.24115 -0.95313,-0.38601 -1.01157,-0.3219 -0.0915,0.1004 -3.52959,5.72759 -8.19987,13.42096 -0.73602,1.21243 -1.22319,2.31219 -1.08261,2.44393 0.14058,0.13173 0.9981,0.54665 1.9056,0.92203 1.95408,0.8083 5.52156,2.85314 6.01503,3.44777 0.25305,0.30488 0.26181,0.6667 0.0321,1.3256 -0.29625,0.84986 -0.26955,0.90627 0.42903,0.90627 0.40971,0 1.08579,-0.22334 1.5024,-0.4963 0.67155,-0.44002 0.8082,-0.44553 1.20513,-0.0486 0.3702,0.3702 0.38385,0.58788 0.0788,1.25738 -0.31287,0.68665 -0.291,0.88756 0.14388,1.32244 0.48372,0.48372 0.55599,0.45757 1.27494,-0.46108 0.98736,-1.26162 1.596,-1.22866 4.16868,0.22576 2.09418,1.18392 2.56629,1.30147 2.77023,0.68973 z M 201.8462,515.13547 c -0.31223,-0.37621 -0.0861,-0.87316 1.34836,-2.96341 0.94793,-1.38126 2.41809,-3.43736 3.26702,-4.56912 l 1.54353,-2.05774 3.10578,-0.0858 c 3.46824,-0.0959 3.94277,0.0903 3.94451,1.54757 l 0.001,0.93827 0.59447,-0.975 c 0.32697,-0.53625 0.77196,-0.975 0.98889,-0.975 0.56287,0 1.11441,0.62727 1.11441,1.26742 0,0.31159 0.33152,0.67348 0.76953,0.84 1.12979,0.42955 1.23748,0.38253 1.43972,-0.62871 0.14891,-0.74452 0.3144,-0.90282 0.8625,-0.825 0.52397,0.0744 0.69994,0.32221 0.77361,1.0895 0.1163,1.21126 0.68438,1.12369 1.01614,-0.15663 0.13149,-0.50744 0.43754,-0.99877 0.68011,-1.09185 0.41374,-0.15877 0.63085,-0.003 1.59522,1.14486 0.21275,0.25322 0.64374,0.46041 0.95775,0.46041 0.4572,0 0.58929,-0.25396 0.66317,-1.275 l 0.0923,-1.27504 63.75,-0.082 c 35.0625,-0.0451 64.0386,-0.0126 64.39133,0.0723 0.39888,0.096 0.82326,0.60896 1.12257,1.357 0.55769,1.39379 1.00602,1.49599 1.9861,0.45274 0.38752,-0.4125 0.9544,-0.75 1.25972,-0.75 0.3161,0 0.67791,0.32294 0.84028,0.75 0.43526,1.14482 1.4379,0.99984 1.55599,-0.225 0.13245,-1.37371 1.22235,-1.52384 1.87669,-0.2585 0.25703,0.49704 0.46732,1.11291 0.46732,1.3686 0,0.79403 0.61523,0.51075 0.94495,-0.4351 0.3935,-1.1288 1.35177,-1.2107 1.75505,-0.15 0.20024,0.52667 0.51069,0.75 1.04257,0.75 0.69247,0 0.75743,-0.11063 0.75743,-1.29 0,-0.7095 0.162,-1.452 0.36,-1.65 0.37018,-0.37018 4.00548,-0.50791 4.85021,-0.18376 0.2526,0.0969 1.77149,1.98693 3.37532,4.2 1.60383,2.21307 2.99444,4.02023 3.09026,4.01591 0.0958,-0.004 2.04205,-2.65703 4.32496,-5.8949 l 4.15076,-5.88704 -1.22576,-1.12045 c -0.67416,-0.61628 -1.22575,-1.26582 -1.22575,-1.44346 0,-0.45142 1.22607,-1.54634 1.73157,-1.54634 0.23014,0 0.3691,-0.10125 0.3088,-0.225 -0.0603,-0.12375 -0.29546,-0.5957 -0.5226,-1.04878 -0.36609,-0.73028 -0.35121,-0.89203 0.13113,-1.425 0.64918,-0.71734 2.30823,-0.80534 2.8511,-0.15122 0.48475,0.58408 1.17075,0.5753 1.39838,-0.0179 0.10789,-0.28114 -0.14348,-0.80509 -0.62975,-1.31264 -1.04488,-1.09062 -1.01388,-2.99604 0.0564,-3.46559 0.45174,-0.19819 0.675,-0.55491 0.675,-1.0785 0,-0.4303 0.26398,-1.02127 0.58662,-1.31325 0.58718,-0.53139 1.19851,-0.52975 3.46338,0.009 0.86996,0.20705 0.85244,0.16951 -0.525,-1.12456 -0.97033,-0.91161 -1.425,-1.58047 -1.425,-2.0963 0,-0.81937 0.82272,-1.75053 1.54666,-1.75053 0.32566,0 0.41413,-0.24049 0.32125,-0.87332 -0.17361,-1.18284 0.70887,-1.63607 2.84122,-1.45924 l 1.62308,0.1346 3.17054,-4.67602 c 3.73331,-5.50601 3.74254,-5.52411 2.6813,-5.25776 -1.31373,0.32973 -1.78376,-0.32277 -1.56616,-2.17416 0.15493,-1.31821 0.11237,-1.54851 -0.25979,-1.4057 -0.72771,0.27925 -2.31967,-1.53051 -2.20476,-2.50641 0.0924,-0.78434 0.0232,-0.83089 -1.55334,-1.04645 -1.49851,-0.20489 -1.78772,-0.37554 -3.15,-1.8587 -1.2719,-1.38476 -1.55882,-1.568 -1.88683,-1.20497 -0.44772,0.49552 -1.65548,0.56039 -2.45608,0.13193 -0.3044,-0.16292 -0.84654,-0.77042 -1.20474,-1.35 -0.5952,-0.96273 -0.7727,-1.05353 -2.0601,-1.05353 -2.01435,0 -2.74228,-0.60177 -2.74228,-2.26701 0,-1.20596 -0.0684,-1.33299 -0.7179,-1.33299 -0.75565,0 -1.0821,0.4941 -1.0821,1.6378 0,0.37881 -0.21797,0.86964 -0.48439,1.09074 -0.41526,0.34464 -0.56509,0.30233 -1.05,-0.29651 -0.31108,-0.38417 -0.56561,-0.8764 -0.56561,-1.09384 0,-0.56543 -0.85021,-1.33819 -1.47232,-1.33819 -0.42696,0 -0.52445,0.24684 -0.50357,1.275 0.0256,1.26212 0.0145,1.27594 -1.09911,1.36811 -0.61875,0.0512 -1.125,0.23705 -1.125,0.41297 0,0.17592 -2.24102,4.15027 -4.98005,8.83188 -3.7531,6.4149 -5.12047,8.51204 -5.55,8.51204 -0.36014,0 -0.56995,-0.21003 -0.56995,-0.57054 0,-0.3138 2.04574,-4.06005 4.5461,-8.325 2.50036,-4.26495 4.61159,-8.00213 4.69163,-8.30484 0.13771,-0.52085 -0.062,-0.53892 -3.7211,-0.33675 -2.12665,0.1175 -3.87652,0.23017 -3.8886,0.25038 -0.0121,0.0202 -2.01925,3.39099 -4.46036,7.49061 -4.2023,7.05736 -4.4804,7.4466 -5.22803,7.31743 -0.4343,-0.075 -1.0562,-0.2491 -1.38199,-0.3868 -0.57243,-0.24195 -0.57134,-0.22366 0.0324,0.54383 0.53946,0.68581 0.59146,1.00457 0.38104,2.33571 -0.33499,2.11894 -0.6293,2.38597 -2.62976,2.38597 l -1.6852,0 0.82194,0.76214 c 0.88456,0.82021 1.01678,1.32301 0.48718,1.85261 -0.1841,0.1841 -0.49367,0.64985 -0.68792,1.035 -0.36632,0.72632 -1.53706,0.91084 -2.65233,0.41804 -0.69243,-0.30596 -0.70292,0.48844 -0.0217,1.64169 0.47353,0.80163 0.47066,0.95992 -0.0486,2.67488 -0.30354,1.00255 -0.75317,1.98995 -0.99917,2.19423 -0.3428,0.28467 -4.98639,0.39267 -19.88229,0.46242 -22.87326,0.10711 -21.10155,0.43704 -18.4974,-3.44465 1.44994,-2.16125 1.66288,-2.35371 2.69913,-2.43947 1.09206,-0.0904 1.43756,-0.42831 0.825,-0.80689 -0.65362,-0.40396 -0.19662,-1.45121 2.24619,-5.14739 1.40041,-2.11894 2.54791,-4.00449 2.55,-4.19011 0.002,-0.18563 -0.39385,-0.41703 -0.87988,-0.51424 -0.48602,-0.0972 -1.02416,-0.43923 -1.19586,-0.76005 -0.2608,-0.4873 -0.13831,-0.73598 0.74412,-1.51076 0.86554,-0.75993 1.31536,-0.92745 2.49035,-0.92745 l 1.43402,0 3.20689,-4.92896 c 1.76378,-2.71093 3.28822,-5.14093 3.38764,-5.4 0.15811,-0.41202 -0.27299,-0.47104 -3.44079,-0.47104 -3.34824,0 -3.64647,0.0466 -3.95188,0.61725 -1.04379,1.95034 -18.77003,29.02574 -19.30115,29.48095 -0.6136,0.5259 -1.93297,0.54103 -32.43015,0.3719 l -31.79053,-0.1763 -1.05947,-1.01143 c -0.58271,-0.55629 -1.36322,-1.16714 -1.73447,-1.35745 -0.65198,-0.33423 -0.675,-0.2993 -0.675,1.02394 0,0.83302 -0.14698,1.41624 -0.375,1.48802 -0.20625,0.0649 -4.34042,0.17902 -9.18704,0.25354 -8.31965,0.12793 -8.8435,0.10404 -9.375,-0.42746 -0.31605,-0.31605 -0.56296,-0.98402 -0.56296,-1.52296 0,-0.76705 -0.0754,-0.88499 -0.375,-0.58678 -0.20625,0.20528 -0.52146,0.80603 -0.70047,1.335 -0.30785,0.90974 -0.41523,0.96658 -1.98439,1.05054 -0.91241,0.0488 -2.31845,-0.0218 -3.12454,-0.15695 -1.17701,-0.19733 -1.4656,-0.36249 -1.4656,-0.83876 0,-0.54136 0.21671,-0.59486 2.48624,-0.61379 l 2.48625,-0.0207 0.51375,-1.02926 c 0.28836,-0.57769 0.96981,-1.25687 1.55324,-1.54804 1.4326,-0.71498 2.2242,-0.20082 2.35277,1.52815 l 0.0923,1.24062 8.06631,0 8.06631,0 0.0914,-1.425 c 0.0878,-1.3689 0.13013,-1.42872 1.07432,-1.5196 1.04622,-0.10068 2.73391,0.75784 3.81712,1.94176 l 0.6,0.65579 31.2746,0.12259 c 28.22778,0.11065 31.31513,0.0764 31.69065,-0.35147 0.22883,-0.26074 4.42721,-6.68407 9.32974,-14.27407 4.90253,-7.59 9.24737,-14.24205 9.65521,-14.78233 l 0.74152,-0.98233 4.82184,0.0823 c 3.96564,0.0677 4.87381,0.16483 5.11453,0.54696 0.22641,0.35942 -1.38807,3.04208 -7.12978,11.84708 -4.08235,6.26035 -7.4891,11.55611 -7.57055,11.76837 -0.0815,0.21226 0.20523,0.71338 0.63707,1.1136 0.43184,0.40022 0.78517,0.86146 0.78517,1.02498 0,0.57618 -1.34747,1.23139 -2.54175,1.23593 -1.45187,0.006 -1.58494,0.0922 -2.64032,1.72041 l -0.82644,1.275 9.67925,-6e-4 c 5.3236,-3e-4 13.62911,-0.0896 18.45671,-0.19839 l 8.77746,-0.19783 0.33988,-1.13443 c 0.2778,-0.92719 0.25284,-1.31786 -0.13661,-2.13855 -0.35029,-0.7382 -0.42038,-1.39823 -0.26465,-2.49219 0.17763,-1.24774 0.32322,-1.50391 0.9015,-1.5862 0.37931,-0.054 1.02317,0.12038 1.43079,0.38747 1.35541,0.8881 1.80867,-0.0715 0.57418,-1.2156 -0.90658,-0.84019 -0.9462,-1.42753 -0.15,-2.22373 0.45166,-0.45166 1,-0.6 2.2179,-0.6 1.19857,0 1.6651,-0.12299 1.8,-0.47454 0.35687,-0.92997 0.16807,-1.28356 -0.8679,-1.62546 -1.36999,-0.45214 -1.41716,-1.41571 -0.11639,-2.37741 0.98059,-0.72499 1.72233,-0.85516 2.96639,-0.52061 0.71239,0.19158 0.97386,-0.17448 5.21427,-7.30014 l 4.46428,-7.50182 5.38709,0 5.3871,0 -0.19892,-1.17738 c -0.16982,-1.00518 -0.10619,-1.227 0.43506,-1.51667 0.68961,-0.36907 3.20575,-0.13351 3.82323,0.35793 0.241,0.1918 0.58944,0.12897 1.04176,-0.18784 0.88207,-0.61783 3.05875,-0.62056 3.6747,-0.005 0.28664,0.28663 0.47143,0.9922 0.47143,1.8 l 0,1.32857 1.36072,0 c 1.41186,0 1.5208,0.0739 3.31451,2.25 l 0.74187,0.9 -0.0836,-1.35 c -0.0733,-1.1845 -0.004,-1.36128 0.5619,-1.44199 0.5009,-0.0714 1.08985,0.47712 2.62982,2.44929 l 1.98438,2.54128 2.69363,0.3681 c 1.48149,0.20246 2.84442,0.54981 3.02873,0.77189 0.44369,0.53461 0.11342,1.32957 -0.63353,1.5249 -0.32916,0.0861 -0.59848,0.34996 -0.59848,0.58641 0,0.34794 0.34223,0.39119 1.79477,0.22686 1.52492,-0.17253 1.82397,-0.12697 1.98897,0.30301 0.12527,0.32645 -0.0858,0.79835 -0.59477,1.32957 -0.43394,0.45293 -0.78897,1.12244 -0.78897,1.48781 0,0.57708 0.10831,0.63592 0.825,0.44817 1.47229,-0.38571 2.30097,-0.28303 2.41758,0.29954 0.0927,0.46332 -6.93538,11.38736 -8.22346,12.782 -0.26946,0.29175 -0.93659,0.4049 -2.10793,0.35751 -1.49514,-0.0605 -1.66596,-0.0118 -1.33941,0.38165 0.20585,0.24803 0.33016,0.76215 0.27625,1.14249 -0.0795,0.56086 -0.31058,0.7091 -1.22303,0.78462 -0.61875,0.0512 -1.125,0.16457 -1.125,0.25191 0,0.26833 1.31144,1.30969 2.025,1.60797 0.79937,0.33414 0.89055,1.35576 0.20799,2.33025 -0.5212,0.74412 -2.38503,0.92761 -3.47841,0.34245 -0.84411,-0.45175 -0.99356,-0.16668 -0.39306,0.74978 0.6635,1.01263 0.1701,1.67453 -1.24825,1.67453 -1.31846,0 -1.30727,0.53606 0.0367,1.75907 0.5775,0.52551 1.05,1.05587 1.05,1.17856 0,0.1227 -0.34237,0.72692 -0.76082,1.34273 -0.63319,0.93183 -0.93555,1.11964 -1.80254,1.11964 -0.942,0 -1.00823,0.0536 -0.69184,0.56026 0.50881,0.81473 0.11106,1.53628 -0.86039,1.56082 -0.45892,0.0116 -1.08499,0.11964 -1.39126,0.2401 -0.49017,0.19279 -0.42396,0.32038 0.55297,1.06552 0.81089,0.61849 1.07496,1.01846 0.98038,1.4849 -0.23176,1.14332 -9.52479,13.98839 -10.12011,13.98839 -0.35238,0 -1.71072,-1.58071 -3.86694,-4.5 l -3.32377,-4.5 -1.3578,0 c -1.33421,0 -1.3578,0.0171 -1.3578,0.98325 0,0.54079 -0.2208,1.29848 -0.49067,1.68377 -0.43889,0.62661 -0.66786,0.68584 -2.16991,0.56128 -1.03892,-0.0862 -2.0493,0.0154 -2.6497,0.26622 -1.27082,0.53098 -2.32607,0.51414 -2.78972,-0.0445 -0.20541,-0.2475 -0.83831,-0.45 -1.40646,-0.45 -0.56814,0 -1.27741,-0.13082 -1.57616,-0.2907 -0.39318,-0.21042 -0.88749,-0.12434 -1.79,0.3117 -0.68575,0.33132 -1.39274,0.51221 -1.57109,0.40198 -0.17836,-0.11022 -0.58317,-0.78567 -0.89958,-1.50098 l -0.57531,-1.30057 -6.9657,-0.0857 c -3.83113,-0.0471 -32.1689,-0.12529 -62.97282,-0.17366 l -56.00712,-0.0879 -0.0929,1.25739 c -0.12354,1.67241 -0.67216,2.00101 -2.549,1.52675 -1.33783,-0.33805 -1.55236,-0.30948 -2.92075,0.38897 -1.35335,0.69077 -1.53437,0.71614 -2.16445,0.3033 -0.37816,-0.24779 -0.92857,-0.45644 -1.22313,-0.46369 -0.29455,-0.007 -1.07555,-0.20951 -1.73555,-0.4494 -1.1606,-0.42183 -1.2217,-0.41154 -1.86061,0.31317 -1.26716,1.43732 -2.48939,0.7102 -2.48939,-1.48096 0,-0.95921 -0.0852,-1.07303 -0.825,-1.10173 -1.30735,-0.0507 -3.7604,0.015 -3.82119,0.10242 -2.77696,3.99211 -5.69128,7.93267 -5.99067,8.10022 -0.22549,0.12619 -0.55765,0.027 -0.77122,-0.23036 z m 188.10206,-18.89752 c -0.20871,-0.25149 -0.45758,-0.37915 -0.55304,-0.28369 -0.0955,0.0955 0.025,0.29916 0.26775,0.45266 0.63509,0.40164 0.71807,0.35249 0.28529,-0.16897 z M 322.90428,470.2952 c 0.10198,-0.165 -0.10052,-0.3 -0.45,-0.3 -0.34948,0 -0.55198,0.135 -0.45,0.3 0.10198,0.165 0.30448,0.3 0.45,0.3 0.14552,0 0.34802,-0.135 0.45,-0.3 z"
       id="path4213"
       inkscape:connector-curvature="0" />
  </g>
</svg>
